<svg fill="none" xmlns="http://www.w3.org/2000/svg" viewBox="0 0 1440 557"><g clip-path="url(#a)"><g filter="url(#b)"><path d="m535.148 182.215-.564-.253a2.026 2.026 0 0 0-2.305.506l-.358.472a1.153 1.153 0 0 0-.196 1.047 1.147 1.147 0 0 0 .749.759l.577.253c.391.168.827.206 1.241.108a1.989 1.989 0 0 0 1.064-.649l.346-.448a1.148 1.148 0 0 0 .188-1.041 1.15 1.15 0 0 0-.742-.754Z" fill="#3796F6"/></g><g filter="url(#c)"><path d="M1194.56 283.338h-.7c-1.02-.069-1.69.541-1.5 1.369 0 .196.08.38.12.576.15.456.44.855.82 1.145.39.29.85.456 1.33.477l.71.057c1.02.081 1.7-.54 1.52-1.369 0-.195-.09-.379-.12-.575a2.442 2.442 0 0 0-2.18-1.68Z" fill="#3796F6"/></g><g filter="url(#d)"><path d="m1313.26 352.867-.75-.127c-1.09-.172-1.85.391-1.73 1.277 0 .196 0 .403.09.61.14.497.41.943.8 1.284.38.342.86.563 1.37.638l.76.126c1.08.184 1.87-.379 1.74-1.265 0-.208 0-.415-.08-.622-.14-.5-.42-.949-.81-1.291a2.667 2.667 0 0 0-1.39-.63Z" fill="#3796F6"/></g><g filter="url(#e)"><path d="m1348.22 317.004.74.069c1.05.115 1.73-.495 1.5-1.358 0-.196-.1-.403-.16-.598a2.66 2.66 0 0 0-.9-1.196c-.41-.306-.9-.489-1.41-.53l-.73-.081c-1.04-.092-1.7.518-1.48 1.37.06.195.11.391.16.586.18.473.49.885.9 1.192.4.307.88.496 1.38.546Z" fill="#3796F6"/></g><g filter="url(#f)"><path d="m815.083 201.924-.588.196a1.149 1.149 0 0 0-.738 1.783c.104.15.196.299.288.461a2.042 2.042 0 0 0 2.305.759l.6-.184a1.155 1.155 0 0 0 .977-1.243 1.153 1.153 0 0 0-.194-.541l-.311-.506a2.045 2.045 0 0 0-2.339-.725Z" fill="#3796F6"/></g><g filter="url(#g)"><path d="m829.996 54.077.531.241a1.858 1.858 0 0 0 2.109-.322l.276-.357c.415-.529.127-1.23-.645-1.576l-.53-.23a1.825 1.825 0 0 0-2.121.334l-.288.368c-.392.564-.092 1.254.668 1.542Z" fill="#3796F6"/></g><g filter="url(#h)"><path d="M348.025 369.861c-.069-.196-.127-.391-.196-.587a1.753 1.753 0 0 0-2.305-.851l-.714.253a1.873 1.873 0 0 0-1.349 2.197l.208.587c.1.211.241.401.414.558a1.787 1.787 0 0 0 1.286.454c.234-.012.463-.071.674-.172l.703-.265a1.83 1.83 0 0 0 1.279-2.174Z" fill="#3796F6"/></g><g filter="url(#i)"><path d="M288.509 291.185v.587c0 .828.761 1.415 1.787 1.3l.703-.081a2.016 2.016 0 0 0 1.878-1.702v-.576c0-.828-.737-1.403-1.752-1.3l-.703.081a2.051 2.051 0 0 0-1.913 1.691Z" fill="#3796F6"/></g><g filter="url(#j)"><path d="m1035.7 40.097.41-.253c.61-.345.59-1.035 0-1.542l-.44-.345a2.12 2.12 0 0 0-2.22-.253l-.41.265c-.59.356-.57 1.035 0 1.53l.43.345a2.161 2.161 0 0 0 2.23.253Z" fill="#3796F6"/></g><g filter="url(#k)"><path d="m202.82 56.596.472.196a2.24 2.24 0 0 0 2.236-.507c.138-.126.265-.264.392-.39a.852.852 0 0 0-.242-1.508l-.484-.207a2.31 2.31 0 0 0-2.305.506l-.381.391a.868.868 0 0 0-.319.857.87.87 0 0 0 .631.662Z" fill="#3796F6"/></g><g filter="url(#l)"><path d="m64.356 31.066.392-.38c.553-.552.461-1.15-.219-1.438l-.472-.173a2.39 2.39 0 0 0-2.305.564c-.127.126-.266.253-.392.391-.565.552-.461 1.15.23 1.438l.473.161a2.308 2.308 0 0 0 2.293-.564Z" fill="#3796F6"/></g></g><defs><filter id="b" x="523.675" y="173.798" width="20.266" height="19.362" filterUnits="userSpaceOnUse" color-interpolation-filters="sRGB"><feFlood flood-opacity="0" result="BackgroundImageFix"/><feColorMatrix in="SourceAlpha" values="0 0 0 0 0 0 0 0 0 0 0 0 0 0 0 0 0 0 127 0" result="hardAlpha"/><feOffset/><feGaussianBlur stdDeviation="4"/><feComposite in2="hardAlpha" operator="out"/><feColorMatrix values="0 0 0 0 0.215686 0 0 0 0 0.588235 0 0 0 0 0.964706 0 0 0 1 0"/><feBlend in2="BackgroundImageFix" result="effect1_dropShadow_5182_131981"/><feColorMatrix in="SourceAlpha" values="0 0 0 0 0 0 0 0 0 0 0 0 0 0 0 0 0 0 127 0" result="hardAlpha"/><feOffset dy="2"/><feGaussianBlur stdDeviation="2"/><feComposite in2="hardAlpha" operator="out"/><feColorMatrix values="0 0 0 0 0.347127 0 0 0 0 0.690744 0 0 0 0 1 0 0 0 0.8 0"/><feBlend in2="effect1_dropShadow_5182_131981" result="effect2_dropShadow_5182_131981"/><feBlend in="SourceGraphic" in2="effect2_dropShadow_5182_131981" result="shape"/></filter><filter id="c" x="1184.33" y="275.333" width="20.564" height="19.637" filterUnits="userSpaceOnUse" color-interpolation-filters="sRGB"><feFlood flood-opacity="0" result="BackgroundImageFix"/><feColorMatrix in="SourceAlpha" values="0 0 0 0 0 0 0 0 0 0 0 0 0 0 0 0 0 0 127 0" result="hardAlpha"/><feOffset/><feGaussianBlur stdDeviation="4"/><feComposite in2="hardAlpha" operator="out"/><feColorMatrix values="0 0 0 0 0.215686 0 0 0 0 0.588235 0 0 0 0 0.964706 0 0 0 1 0"/><feBlend in2="BackgroundImageFix" result="effect1_dropShadow_5182_131981"/><feColorMatrix in="SourceAlpha" values="0 0 0 0 0 0 0 0 0 0 0 0 0 0 0 0 0 0 127 0" result="hardAlpha"/><feOffset dy="2"/><feGaussianBlur stdDeviation="2"/><feComposite in2="hardAlpha" operator="out"/><feColorMatrix values="0 0 0 0 0.347127 0 0 0 0 0.690744 0 0 0 0 1 0 0 0 0.8 0"/><feBlend in2="effect1_dropShadow_5182_131981" result="effect2_dropShadow_5182_131981"/><feBlend in="SourceGraphic" in2="effect2_dropShadow_5182_131981" result="shape"/></filter><filter id="d" x="1302.77" y="344.709" width="20.785" height="20.001" filterUnits="userSpaceOnUse" color-interpolation-filters="sRGB"><feFlood flood-opacity="0" result="BackgroundImageFix"/><feColorMatrix in="SourceAlpha" values="0 0 0 0 0 0 0 0 0 0 0 0 0 0 0 0 0 0 127 0" result="hardAlpha"/><feOffset/><feGaussianBlur stdDeviation="4"/><feComposite in2="hardAlpha" operator="out"/><feColorMatrix values="0 0 0 0 0.215686 0 0 0 0 0.588235 0 0 0 0 0.964706 0 0 0 1 0"/><feBlend in2="BackgroundImageFix" result="effect1_dropShadow_5182_131981"/><feColorMatrix in="SourceAlpha" values="0 0 0 0 0 0 0 0 0 0 0 0 0 0 0 0 0 0 127 0" result="hardAlpha"/><feOffset dy="2"/><feGaussianBlur stdDeviation="2"/><feComposite in2="hardAlpha" operator="out"/><feColorMatrix values="0 0 0 0 0.347127 0 0 0 0 0.690744 0 0 0 0 1 0 0 0 0.8 0"/><feBlend in2="effect1_dropShadow_5182_131981" result="effect2_dropShadow_5182_131981"/><feBlend in="SourceGraphic" in2="effect2_dropShadow_5182_131981" result="shape"/></filter><filter id="e" x="1337.74" y="305.301" width="20.766" height="19.785" filterUnits="userSpaceOnUse" color-interpolation-filters="sRGB"><feFlood flood-opacity="0" result="BackgroundImageFix"/><feColorMatrix in="SourceAlpha" values="0 0 0 0 0 0 0 0 0 0 0 0 0 0 0 0 0 0 127 0" result="hardAlpha"/><feOffset/><feGaussianBlur stdDeviation="4"/><feComposite in2="hardAlpha" operator="out"/><feColorMatrix values="0 0 0 0 0.215686 0 0 0 0 0.588235 0 0 0 0 0.964706 0 0 0 1 0"/><feBlend in2="BackgroundImageFix" result="effect1_dropShadow_5182_131981"/><feColorMatrix in="SourceAlpha" values="0 0 0 0 0 0 0 0 0 0 0 0 0 0 0 0 0 0 127 0" result="hardAlpha"/><feOffset dy="2"/><feGaussianBlur stdDeviation="2"/><feComposite in2="hardAlpha" operator="out"/><feColorMatrix values="0 0 0 0 0.347127 0 0 0 0 0.690744 0 0 0 0 1 0 0 0 0.8 0"/><feBlend in2="effect1_dropShadow_5182_131981" result="effect2_dropShadow_5182_131981"/><feBlend in="SourceGraphic" in2="effect2_dropShadow_5182_131981" result="shape"/></filter><filter id="f" x="805.554" y="193.806" width="20.378" height="19.42" filterUnits="userSpaceOnUse" color-interpolation-filters="sRGB"><feFlood flood-opacity="0" result="BackgroundImageFix"/><feColorMatrix in="SourceAlpha" values="0 0 0 0 0 0 0 0 0 0 0 0 0 0 0 0 0 0 127 0" result="hardAlpha"/><feOffset/><feGaussianBlur stdDeviation="4"/><feComposite in2="hardAlpha" operator="out"/><feColorMatrix values="0 0 0 0 0.215686 0 0 0 0 0.588235 0 0 0 0 0.964706 0 0 0 1 0"/><feBlend in2="BackgroundImageFix" result="effect1_dropShadow_5182_131981"/><feColorMatrix in="SourceAlpha" values="0 0 0 0 0 0 0 0 0 0 0 0 0 0 0 0 0 0 127 0" result="hardAlpha"/><feOffset dy="2"/><feGaussianBlur stdDeviation="2"/><feComposite in2="hardAlpha" operator="out"/><feColorMatrix values="0 0 0 0 0.347127 0 0 0 0 0.690744 0 0 0 0 1 0 0 0 0.8 0"/><feBlend in2="effect1_dropShadow_5182_131981" result="effect2_dropShadow_5182_131981"/><feBlend in="SourceGraphic" in2="effect2_dropShadow_5182_131981" result="shape"/></filter><filter id="g" x="821.156" y="43.632" width="19.946" height="18.879" filterUnits="userSpaceOnUse" color-interpolation-filters="sRGB"><feFlood flood-opacity="0" result="BackgroundImageFix"/><feColorMatrix in="SourceAlpha" values="0 0 0 0 0 0 0 0 0 0 0 0 0 0 0 0 0 0 127 0" result="hardAlpha"/><feOffset/><feGaussianBlur stdDeviation="4"/><feComposite in2="hardAlpha" operator="out"/><feColorMatrix values="0 0 0 0 0.215686 0 0 0 0 0.588235 0 0 0 0 0.964706 0 0 0 1 0"/><feBlend in2="BackgroundImageFix" result="effect1_dropShadow_5182_131981"/><feColorMatrix in="SourceAlpha" values="0 0 0 0 0 0 0 0 0 0 0 0 0 0 0 0 0 0 127 0" result="hardAlpha"/><feOffset dy="2"/><feGaussianBlur stdDeviation="2"/><feComposite in2="hardAlpha" operator="out"/><feColorMatrix values="0 0 0 0 0.347127 0 0 0 0 0.690744 0 0 0 0 1 0 0 0 0.8 0"/><feBlend in2="effect1_dropShadow_5182_131981" result="effect2_dropShadow_5182_131981"/><feBlend in="SourceGraphic" in2="effect2_dropShadow_5182_131981" result="shape"/></filter><filter id="h" x="335.421" y="360.268" width="20.652" height="20.207" filterUnits="userSpaceOnUse" color-interpolation-filters="sRGB"><feFlood flood-opacity="0" result="BackgroundImageFix"/><feColorMatrix in="SourceAlpha" values="0 0 0 0 0 0 0 0 0 0 0 0 0 0 0 0 0 0 127 0" result="hardAlpha"/><feOffset/><feGaussianBlur stdDeviation="4"/><feComposite in2="hardAlpha" operator="out"/><feColorMatrix values="0 0 0 0 0.215686 0 0 0 0 0.588235 0 0 0 0 0.964706 0 0 0 1 0"/><feBlend in2="BackgroundImageFix" result="effect1_dropShadow_5182_131981"/><feColorMatrix in="SourceAlpha" values="0 0 0 0 0 0 0 0 0 0 0 0 0 0 0 0 0 0 127 0" result="hardAlpha"/><feOffset dy="2"/><feGaussianBlur stdDeviation="2"/><feComposite in2="hardAlpha" operator="out"/><feColorMatrix values="0 0 0 0 0.347127 0 0 0 0 0.690744 0 0 0 0 1 0 0 0 0.8 0"/><feBlend in2="effect1_dropShadow_5182_131981" result="effect2_dropShadow_5182_131981"/><feBlend in="SourceGraphic" in2="effect2_dropShadow_5182_131981" result="shape"/></filter><filter id="i" x="280.509" y="281.401" width="20.368" height="19.685" filterUnits="userSpaceOnUse" color-interpolation-filters="sRGB"><feFlood flood-opacity="0" result="BackgroundImageFix"/><feColorMatrix in="SourceAlpha" values="0 0 0 0 0 0 0 0 0 0 0 0 0 0 0 0 0 0 127 0" result="hardAlpha"/><feOffset/><feGaussianBlur stdDeviation="4"/><feComposite in2="hardAlpha" operator="out"/><feColorMatrix values="0 0 0 0 0.215686 0 0 0 0 0.588235 0 0 0 0 0.964706 0 0 0 1 0"/><feBlend in2="BackgroundImageFix" result="effect1_dropShadow_5182_131981"/><feColorMatrix in="SourceAlpha" values="0 0 0 0 0 0 0 0 0 0 0 0 0 0 0 0 0 0 127 0" result="hardAlpha"/><feOffset dy="2"/><feGaussianBlur stdDeviation="2"/><feComposite in2="hardAlpha" operator="out"/><feColorMatrix values="0 0 0 0 0.347127 0 0 0 0 0.690744 0 0 0 0 1 0 0 0 0.8 0"/><feBlend in2="effect1_dropShadow_5182_131981" result="effect2_dropShadow_5182_131981"/><feBlend in="SourceGraphic" in2="effect2_dropShadow_5182_131981" result="shape"/></filter><filter id="j" x="1024.6" y="29.502" width="19.959" height="18.795" filterUnits="userSpaceOnUse" color-interpolation-filters="sRGB"><feFlood flood-opacity="0" result="BackgroundImageFix"/><feColorMatrix in="SourceAlpha" values="0 0 0 0 0 0 0 0 0 0 0 0 0 0 0 0 0 0 127 0" result="hardAlpha"/><feOffset/><feGaussianBlur stdDeviation="4"/><feComposite in2="hardAlpha" operator="out"/><feColorMatrix values="0 0 0 0 0.215686 0 0 0 0 0.588235 0 0 0 0 0.964706 0 0 0 1 0"/><feBlend in2="BackgroundImageFix" result="effect1_dropShadow_5182_131981"/><feColorMatrix in="SourceAlpha" values="0 0 0 0 0 0 0 0 0 0 0 0 0 0 0 0 0 0 127 0" result="hardAlpha"/><feOffset dy="2"/><feGaussianBlur stdDeviation="2"/><feComposite in2="hardAlpha" operator="out"/><feColorMatrix values="0 0 0 0 0.347127 0 0 0 0 0.690744 0 0 0 0 1 0 0 0 0.8 0"/><feBlend in2="effect1_dropShadow_5182_131981" result="effect2_dropShadow_5182_131981"/><feBlend in="SourceGraphic" in2="effect2_dropShadow_5182_131981" result="shape"/></filter><filter id="k" x="194.172" y="46.063" width="20.106" height="18.839" filterUnits="userSpaceOnUse" color-interpolation-filters="sRGB"><feFlood flood-opacity="0" result="BackgroundImageFix"/><feColorMatrix in="SourceAlpha" values="0 0 0 0 0 0 0 0 0 0 0 0 0 0 0 0 0 0 127 0" result="hardAlpha"/><feOffset/><feGaussianBlur stdDeviation="4"/><feComposite in2="hardAlpha" operator="out"/><feColorMatrix values="0 0 0 0 0.215686 0 0 0 0 0.588235 0 0 0 0 0.964706 0 0 0 1 0"/><feBlend in2="BackgroundImageFix" result="effect1_dropShadow_5182_131981"/><feColorMatrix in="SourceAlpha" values="0 0 0 0 0 0 0 0 0 0 0 0 0 0 0 0 0 0 127 0" result="hardAlpha"/><feOffset dy="2"/><feGaussianBlur stdDeviation="2"/><feComposite in2="hardAlpha" operator="out"/><feColorMatrix values="0 0 0 0 0.347127 0 0 0 0 0.690744 0 0 0 0 1 0 0 0 0.8 0"/><feBlend in2="effect1_dropShadow_5182_131981" result="effect2_dropShadow_5182_131981"/><feBlend in="SourceGraphic" in2="effect2_dropShadow_5182_131981" result="shape"/></filter><filter id="l" x="52.996" y="20.982" width="20.113" height="18.748" filterUnits="userSpaceOnUse" color-interpolation-filters="sRGB"><feFlood flood-opacity="0" result="BackgroundImageFix"/><feColorMatrix in="SourceAlpha" values="0 0 0 0 0 0 0 0 0 0 0 0 0 0 0 0 0 0 127 0" result="hardAlpha"/><feOffset/><feGaussianBlur stdDeviation="4"/><feComposite in2="hardAlpha" operator="out"/><feColorMatrix values="0 0 0 0 0.215686 0 0 0 0 0.588235 0 0 0 0 0.964706 0 0 0 1 0"/><feBlend in2="BackgroundImageFix" result="effect1_dropShadow_5182_131981"/><feColorMatrix in="SourceAlpha" values="0 0 0 0 0 0 0 0 0 0 0 0 0 0 0 0 0 0 127 0" result="hardAlpha"/><feOffset dy="2"/><feGaussianBlur stdDeviation="2"/><feComposite in2="hardAlpha" operator="out"/><feColorMatrix values="0 0 0 0 0.347127 0 0 0 0 0.690744 0 0 0 0 1 0 0 0 0.8 0"/><feBlend in2="effect1_dropShadow_5182_131981" result="effect2_dropShadow_5182_131981"/><feBlend in="SourceGraphic" in2="effect2_dropShadow_5182_131981" result="shape"/></filter><clipPath id="a"><path fill="#fff" d="M0 0h1440v556.522H0z"/></clipPath></defs></svg>