<svg fill="none" xmlns="http://www.w3.org/2000/svg" viewBox="0 0 1440 557"><g clip-path="url(#a)"><g filter="url(#b)"><path d="m778.064 276.837-.668-.195a1.788 1.788 0 0 0-2.202.897c-.069.173-.126.345-.184.506a1.543 1.543 0 0 0 .161 1.213 1.565 1.565 0 0 0 .992.72l.656.207a1.785 1.785 0 0 0 2.306-.851c.08-.196.149-.391.219-.587a1.557 1.557 0 0 0-1.28-1.91Z" fill="#3796F6"/></g><g filter="url(#c)"><path d="m213.596 450.952.749-.322a2.119 2.119 0 0 0 1.383-2.427l-.207-.622a1.781 1.781 0 0 0-.436-.572 1.78 1.78 0 0 0-1.346-.42 1.769 1.769 0 0 0-.685.221l-.749.323a2.112 2.112 0 0 0-1.417 2.427l.219.622a1.766 1.766 0 0 0 1.799 1.001c.243-.028.478-.107.69-.231Z" fill="#3796F6"/></g><g filter="url(#d)"><path d="m1305.03 388.73.78.172c1.16.254 1.97-.276 1.92-1.15v-.633a2.651 2.651 0 0 0-2.11-2.071l-.77-.161c-1.16-.242-1.95.288-1.91 1.151v.632c.1.514.35.987.73 1.355.37.368.84.613 1.36.705Z" fill="#3796F6"/></g><g filter="url(#e)"><path d="m113.326 117.358-.564-.127a2.31 2.31 0 0 0-2.305.84l-.334.46a.904.904 0 0 0-.172.951.912.912 0 0 0 .782.568l.565.127a2.42 2.42 0 0 0 2.305-.852c.104-.161.219-.311.323-.46a.913.913 0 0 0 .164-.937.906.906 0 0 0-.764-.57Z" fill="#3796F6"/></g><g filter="url(#f)"><path d="m560.745 231.77.669.103a1.856 1.856 0 0 0 2.063-1.15l.138-.507a1.347 1.347 0 0 0-.251-1.116 1.365 1.365 0 0 0-1.017-.529l-.645-.115a1.88 1.88 0 0 0-2.132 1.093c0 .196-.104.38-.162.575a1.391 1.391 0 0 0 .284 1.135 1.388 1.388 0 0 0 1.053.511Z" fill="#3796F6"/></g><g filter="url(#g)"><path d="M288.509 291.185v.587c0 .828.761 1.415 1.787 1.3l.703-.08c.461-.027.899-.21 1.241-.52a2.01 2.01 0 0 0 .637-1.183v-.575c0-.829-.737-1.404-1.752-1.301l-.703.081a2.051 2.051 0 0 0-1.913 1.691Z" fill="#3796F6"/></g><g filter="url(#h)"><path d="M1110.74 231.079c0-.184-.13-.368-.19-.552-.19-.42-.51-.771-.9-1.009a2.32 2.32 0 0 0-1.32-.326h-.66c-.94 0-1.5.702-1.23 1.473.07.184.13.368.2.541.19.416.49.766.88 1.006s.85.358 1.31.34h.66c.96-.034 1.51-.69 1.25-1.473Z" fill="#3796F6"/></g><g filter="url(#i)"><path d="m338.068 65.582.461.242a2.087 2.087 0 0 0 2.224-.31l.415-.369a.89.89 0 0 0 .262-1.27.895.895 0 0 0-.366-.306l-.449-.253a2.125 2.125 0 0 0-2.248.31l-.415.368a.917.917 0 0 0-.412.828.908.908 0 0 0 .528.76Z" fill="#3796F6"/></g><g filter="url(#j)"><path d="m1089.15 60.704.4.38c.31.28.69.471 1.09.55.41.08.83.044 1.22-.102l.46-.218c.67-.3.74-.99.15-1.542a4.702 4.702 0 0 1-.4-.391 2.311 2.311 0 0 0-1.1-.534c-.4-.077-.82-.043-1.21.096l-.46.22c-.67.31-.74.989-.15 1.54Z" fill="#3796F6"/></g></g><defs><filter id="b" x="766.952" y="268.539" width="20.437" height="19.79" filterUnits="userSpaceOnUse" color-interpolation-filters="sRGB"><feFlood flood-opacity="0" result="BackgroundImageFix"/><feColorMatrix in="SourceAlpha" values="0 0 0 0 0 0 0 0 0 0 0 0 0 0 0 0 0 0 127 0" result="hardAlpha"/><feOffset/><feGaussianBlur stdDeviation="4"/><feComposite in2="hardAlpha" operator="out"/><feColorMatrix values="0 0 0 0 0.215686 0 0 0 0 0.588235 0 0 0 0 0.964706 0 0 0 1 0"/><feBlend in2="BackgroundImageFix" result="effect1_dropShadow_5182_138016"/><feColorMatrix in="SourceAlpha" values="0 0 0 0 0 0 0 0 0 0 0 0 0 0 0 0 0 0 127 0" result="hardAlpha"/><feOffset dy="2"/><feGaussianBlur stdDeviation="2"/><feComposite in2="hardAlpha" operator="out"/><feColorMatrix values="0 0 0 0 0.347127 0 0 0 0 0.690744 0 0 0 0 1 0 0 0 0.8 0"/><feBlend in2="effect1_dropShadow_5182_138016" result="effect2_dropShadow_5182_138016"/><feBlend in="SourceGraphic" in2="effect2_dropShadow_5182_138016" result="shape"/></filter><filter id="c" x="202.846" y="438.579" width="20.926" height="20.616" filterUnits="userSpaceOnUse" color-interpolation-filters="sRGB"><feFlood flood-opacity="0" result="BackgroundImageFix"/><feColorMatrix in="SourceAlpha" values="0 0 0 0 0 0 0 0 0 0 0 0 0 0 0 0 0 0 127 0" result="hardAlpha"/><feOffset/><feGaussianBlur stdDeviation="4"/><feComposite in2="hardAlpha" operator="out"/><feColorMatrix values="0 0 0 0 0.215686 0 0 0 0 0.588235 0 0 0 0 0.964706 0 0 0 1 0"/><feBlend in2="BackgroundImageFix" result="effect1_dropShadow_5182_138016"/><feColorMatrix in="SourceAlpha" values="0 0 0 0 0 0 0 0 0 0 0 0 0 0 0 0 0 0 127 0" result="hardAlpha"/><feOffset dy="2"/><feGaussianBlur stdDeviation="2"/><feComposite in2="hardAlpha" operator="out"/><feColorMatrix values="0 0 0 0 0.347127 0 0 0 0 0.690744 0 0 0 0 1 0 0 0 0.8 0"/><feBlend in2="effect1_dropShadow_5182_138016" result="effect2_dropShadow_5182_138016"/><feBlend in="SourceGraphic" in2="effect2_dropShadow_5182_138016" result="shape"/></filter><filter id="d" x="1294.94" y="376.828" width="20.788" height="20.137" filterUnits="userSpaceOnUse" color-interpolation-filters="sRGB"><feFlood flood-opacity="0" result="BackgroundImageFix"/><feColorMatrix in="SourceAlpha" values="0 0 0 0 0 0 0 0 0 0 0 0 0 0 0 0 0 0 127 0" result="hardAlpha"/><feOffset/><feGaussianBlur stdDeviation="4"/><feComposite in2="hardAlpha" operator="out"/><feColorMatrix values="0 0 0 0 0.215686 0 0 0 0 0.588235 0 0 0 0 0.964706 0 0 0 1 0"/><feBlend in2="BackgroundImageFix" result="effect1_dropShadow_5182_138016"/><feColorMatrix in="SourceAlpha" values="0 0 0 0 0 0 0 0 0 0 0 0 0 0 0 0 0 0 127 0" result="hardAlpha"/><feOffset dy="2"/><feGaussianBlur stdDeviation="2"/><feComposite in2="hardAlpha" operator="out"/><feColorMatrix values="0 0 0 0 0.347127 0 0 0 0 0.690744 0 0 0 0 1 0 0 0 0.8 0"/><feBlend in2="effect1_dropShadow_5182_138016" result="effect2_dropShadow_5182_138016"/><feBlend in="SourceGraphic" in2="effect2_dropShadow_5182_138016" result="shape"/></filter><filter id="e" x="101.885" y="109.18" width="20.269" height="19.035" filterUnits="userSpaceOnUse" color-interpolation-filters="sRGB"><feFlood flood-opacity="0" result="BackgroundImageFix"/><feColorMatrix in="SourceAlpha" values="0 0 0 0 0 0 0 0 0 0 0 0 0 0 0 0 0 0 127 0" result="hardAlpha"/><feOffset/><feGaussianBlur stdDeviation="4"/><feComposite in2="hardAlpha" operator="out"/><feColorMatrix values="0 0 0 0 0.215686 0 0 0 0 0.588235 0 0 0 0 0.964706 0 0 0 1 0"/><feBlend in2="BackgroundImageFix" result="effect1_dropShadow_5182_138016"/><feColorMatrix in="SourceAlpha" values="0 0 0 0 0 0 0 0 0 0 0 0 0 0 0 0 0 0 127 0" result="hardAlpha"/><feOffset dy="2"/><feGaussianBlur stdDeviation="2"/><feComposite in2="hardAlpha" operator="out"/><feColorMatrix values="0 0 0 0 0.347127 0 0 0 0 0.690744 0 0 0 0 1 0 0 0 0.8 0"/><feBlend in2="effect1_dropShadow_5182_138016" result="effect2_dropShadow_5182_138016"/><feBlend in="SourceGraphic" in2="effect2_dropShadow_5182_138016" result="shape"/></filter><filter id="f" x="551.383" y="220.412" width="20.264" height="19.492" filterUnits="userSpaceOnUse" color-interpolation-filters="sRGB"><feFlood flood-opacity="0" result="BackgroundImageFix"/><feColorMatrix in="SourceAlpha" values="0 0 0 0 0 0 0 0 0 0 0 0 0 0 0 0 0 0 127 0" result="hardAlpha"/><feOffset/><feGaussianBlur stdDeviation="4"/><feComposite in2="hardAlpha" operator="out"/><feColorMatrix values="0 0 0 0 0.215686 0 0 0 0 0.588235 0 0 0 0 0.964706 0 0 0 1 0"/><feBlend in2="BackgroundImageFix" result="effect1_dropShadow_5182_138016"/><feColorMatrix in="SourceAlpha" values="0 0 0 0 0 0 0 0 0 0 0 0 0 0 0 0 0 0 127 0" result="hardAlpha"/><feOffset dy="2"/><feGaussianBlur stdDeviation="2"/><feComposite in2="hardAlpha" operator="out"/><feColorMatrix values="0 0 0 0 0.347127 0 0 0 0 0.690744 0 0 0 0 1 0 0 0 0.8 0"/><feBlend in2="effect1_dropShadow_5182_138016" result="effect2_dropShadow_5182_138016"/><feBlend in="SourceGraphic" in2="effect2_dropShadow_5182_138016" result="shape"/></filter><filter id="g" x="280.509" y="281.401" width="20.368" height="19.685" filterUnits="userSpaceOnUse" color-interpolation-filters="sRGB"><feFlood flood-opacity="0" result="BackgroundImageFix"/><feColorMatrix in="SourceAlpha" values="0 0 0 0 0 0 0 0 0 0 0 0 0 0 0 0 0 0 127 0" result="hardAlpha"/><feOffset/><feGaussianBlur stdDeviation="4"/><feComposite in2="hardAlpha" operator="out"/><feColorMatrix values="0 0 0 0 0.215686 0 0 0 0 0.588235 0 0 0 0 0.964706 0 0 0 1 0"/><feBlend in2="BackgroundImageFix" result="effect1_dropShadow_5182_138016"/><feColorMatrix in="SourceAlpha" values="0 0 0 0 0 0 0 0 0 0 0 0 0 0 0 0 0 0 127 0" result="hardAlpha"/><feOffset dy="2"/><feGaussianBlur stdDeviation="2"/><feComposite in2="hardAlpha" operator="out"/><feColorMatrix values="0 0 0 0 0.347127 0 0 0 0 0.690744 0 0 0 0 1 0 0 0 0.8 0"/><feBlend in2="effect1_dropShadow_5182_138016" result="effect2_dropShadow_5182_138016"/><feBlend in="SourceGraphic" in2="effect2_dropShadow_5182_138016" result="shape"/></filter><filter id="h" x="1098.37" y="221.189" width="20.432" height="19.365" filterUnits="userSpaceOnUse" color-interpolation-filters="sRGB"><feFlood flood-opacity="0" result="BackgroundImageFix"/><feColorMatrix in="SourceAlpha" values="0 0 0 0 0 0 0 0 0 0 0 0 0 0 0 0 0 0 127 0" result="hardAlpha"/><feOffset/><feGaussianBlur stdDeviation="4"/><feComposite in2="hardAlpha" operator="out"/><feColorMatrix values="0 0 0 0 0.215686 0 0 0 0 0.588235 0 0 0 0 0.964706 0 0 0 1 0"/><feBlend in2="BackgroundImageFix" result="effect1_dropShadow_5182_138016"/><feColorMatrix in="SourceAlpha" values="0 0 0 0 0 0 0 0 0 0 0 0 0 0 0 0 0 0 127 0" result="hardAlpha"/><feOffset dy="2"/><feGaussianBlur stdDeviation="2"/><feComposite in2="hardAlpha" operator="out"/><feColorMatrix values="0 0 0 0 0.347127 0 0 0 0 0.690744 0 0 0 0 1 0 0 0 0.8 0"/><feBlend in2="effect1_dropShadow_5182_138016" result="effect2_dropShadow_5182_138016"/><feBlend in="SourceGraphic" in2="effect2_dropShadow_5182_138016" result="shape"/></filter><filter id="i" x="329.538" y="55.126" width="20.051" height="18.887" filterUnits="userSpaceOnUse" color-interpolation-filters="sRGB"><feFlood flood-opacity="0" result="BackgroundImageFix"/><feColorMatrix in="SourceAlpha" values="0 0 0 0 0 0 0 0 0 0 0 0 0 0 0 0 0 0 127 0" result="hardAlpha"/><feOffset/><feGaussianBlur stdDeviation="4"/><feComposite in2="hardAlpha" operator="out"/><feColorMatrix values="0 0 0 0 0.215686 0 0 0 0 0.588235 0 0 0 0 0.964706 0 0 0 1 0"/><feBlend in2="BackgroundImageFix" result="effect1_dropShadow_5182_138016"/><feColorMatrix in="SourceAlpha" values="0 0 0 0 0 0 0 0 0 0 0 0 0 0 0 0 0 0 127 0" result="hardAlpha"/><feOffset dy="2"/><feGaussianBlur stdDeviation="2"/><feComposite in2="hardAlpha" operator="out"/><feColorMatrix values="0 0 0 0 0.347127 0 0 0 0 0.690744 0 0 0 0 1 0 0 0 0.8 0"/><feBlend in2="effect1_dropShadow_5182_138016" result="effect2_dropShadow_5182_138016"/><feBlend in="SourceGraphic" in2="effect2_dropShadow_5182_138016" result="shape"/></filter><filter id="j" x="1080.75" y="50.807" width="20.119" height="18.869" filterUnits="userSpaceOnUse" color-interpolation-filters="sRGB"><feFlood flood-opacity="0" result="BackgroundImageFix"/><feColorMatrix in="SourceAlpha" values="0 0 0 0 0 0 0 0 0 0 0 0 0 0 0 0 0 0 127 0" result="hardAlpha"/><feOffset/><feGaussianBlur stdDeviation="4"/><feComposite in2="hardAlpha" operator="out"/><feColorMatrix values="0 0 0 0 0.215686 0 0 0 0 0.588235 0 0 0 0 0.964706 0 0 0 1 0"/><feBlend in2="BackgroundImageFix" result="effect1_dropShadow_5182_138016"/><feColorMatrix in="SourceAlpha" values="0 0 0 0 0 0 0 0 0 0 0 0 0 0 0 0 0 0 127 0" result="hardAlpha"/><feOffset dy="2"/><feGaussianBlur stdDeviation="2"/><feComposite in2="hardAlpha" operator="out"/><feColorMatrix values="0 0 0 0 0.347127 0 0 0 0 0.690744 0 0 0 0 1 0 0 0 0.8 0"/><feBlend in2="effect1_dropShadow_5182_138016" result="effect2_dropShadow_5182_138016"/><feBlend in="SourceGraphic" in2="effect2_dropShadow_5182_138016" result="shape"/></filter><clipPath id="a"><path fill="#fff" d="M0 0h1440v556.522H0z"/></clipPath></defs></svg>