<svg fill="none" xmlns="http://www.w3.org/2000/svg" viewBox="0 0 1440 557"><g clip-path="url(#a)"><g filter="url(#b)"><path d="M479.884 232.955h.668a1.855 1.855 0 0 0 2.006-1.254c0-.184.092-.368.127-.552.172-.76-.427-1.45-1.372-1.542l-.657-.069a1.912 1.912 0 0 0-2.074 1.254c0 .184-.081.368-.127.552-.173.829.472 1.531 1.429 1.611Z" fill="#3796F6"/></g><g filter="url(#c)"><path d="m1101.9 114.849-.53.173a.934.934 0 0 0-.45.22.882.882 0 0 0-.26.419.839.839 0 0 0-.01.496c.04.164.12.312.25.43l.35.437c.28.32.65.556 1.05.682.41.126.85.137 1.26.031l.54-.161a.931.931 0 0 0 .72-.65.958.958 0 0 0 .01-.504.942.942 0 0 0-.26-.434l-.34-.437a2.362 2.362 0 0 0-1.07-.682 2.297 2.297 0 0 0-1.26-.02Z" fill="#3796F6"/></g><g filter="url(#d)"><path d="M267.43 323.516v.598c0 .852.922 1.381 1.959 1.151l.727-.127a2.039 2.039 0 0 0 1.797-1.829v-.599c0-.839-.899-1.369-1.936-1.15l-.714.138a2.049 2.049 0 0 0-1.833 1.818Z" fill="#3796F6"/></g><g filter="url(#e)"><path d="M1139.53 232.633h-.67c-.96 0-1.5.69-1.23 1.472.06.173.12.357.19.541.19.42.5.774.89 1.016.4.242.85.361 1.31.342h.67c.96 0 1.52-.691 1.26-1.473l-.2-.552a2.33 2.33 0 0 0-.9-1.017c-.4-.24-.86-.355-1.32-.329Z" fill="#3796F6"/></g><g filter="url(#f)"><path d="m220.269 131.958-.576-.138a2.311 2.311 0 0 0-2.305.817l-.311.472a.973.973 0 0 0-.123.977.975.975 0 0 0 .791.588l.576.138a2.302 2.302 0 0 0 2.305-.829l.3-.46a.96.96 0 0 0 .137-.977.974.974 0 0 0-.794-.588Z" fill="#3796F6"/></g><g filter="url(#g)"><path d="m1260.14 390.26-.77-.184c-1.16-.265-1.99.242-2 1.151v.632c.07.514.3.993.66 1.37.35.378.82.635 1.33.736l.77.196c1.15.276 2-.219 2.01-1.151v-.667a2.504 2.504 0 0 0-.67-1.357 2.522 2.522 0 0 0-1.33-.726Z" fill="#3796F6"/></g></g><defs><filter id="b" x="470.427" y="221.519" width="20.288" height="19.453" filterUnits="userSpaceOnUse" color-interpolation-filters="sRGB"><feFlood flood-opacity="0" result="BackgroundImageFix"/><feColorMatrix in="SourceAlpha" values="0 0 0 0 0 0 0 0 0 0 0 0 0 0 0 0 0 0 127 0" result="hardAlpha"/><feOffset/><feGaussianBlur stdDeviation="4"/><feComposite in2="hardAlpha" operator="out"/><feColorMatrix values="0 0 0 0 0.215686 0 0 0 0 0.588235 0 0 0 0 0.964706 0 0 0 1 0"/><feBlend in2="BackgroundImageFix" result="effect1_dropShadow_5182_113847"/><feColorMatrix in="SourceAlpha" values="0 0 0 0 0 0 0 0 0 0 0 0 0 0 0 0 0 0 127 0" result="hardAlpha"/><feOffset dy="2"/><feGaussianBlur stdDeviation="2"/><feComposite in2="hardAlpha" operator="out"/><feColorMatrix values="0 0 0 0 0.347127 0 0 0 0 0.690744 0 0 0 0 1 0 0 0 0.8 0"/><feBlend in2="effect1_dropShadow_5182_113847" result="effect2_dropShadow_5182_113847"/><feBlend in="SourceGraphic" in2="effect2_dropShadow_5182_113847" result="shape"/></filter><filter id="c" x="1092.62" y="106.771" width="20.243" height="19.038" filterUnits="userSpaceOnUse" color-interpolation-filters="sRGB"><feFlood flood-opacity="0" result="BackgroundImageFix"/><feColorMatrix in="SourceAlpha" values="0 0 0 0 0 0 0 0 0 0 0 0 0 0 0 0 0 0 127 0" result="hardAlpha"/><feOffset/><feGaussianBlur stdDeviation="4"/><feComposite in2="hardAlpha" operator="out"/><feColorMatrix values="0 0 0 0 0.215686 0 0 0 0 0.588235 0 0 0 0 0.964706 0 0 0 1 0"/><feBlend in2="BackgroundImageFix" result="effect1_dropShadow_5182_113847"/><feColorMatrix in="SourceAlpha" values="0 0 0 0 0 0 0 0 0 0 0 0 0 0 0 0 0 0 127 0" result="hardAlpha"/><feOffset dy="2"/><feGaussianBlur stdDeviation="2"/><feComposite in2="hardAlpha" operator="out"/><feColorMatrix values="0 0 0 0 0.347127 0 0 0 0 0.690744 0 0 0 0 1 0 0 0 0.8 0"/><feBlend in2="effect1_dropShadow_5182_113847" result="effect2_dropShadow_5182_113847"/><feBlend in="SourceGraphic" in2="effect2_dropShadow_5182_113847" result="shape"/></filter><filter id="d" x="259.43" y="313.51" width="20.483" height="19.808" filterUnits="userSpaceOnUse" color-interpolation-filters="sRGB"><feFlood flood-opacity="0" result="BackgroundImageFix"/><feColorMatrix in="SourceAlpha" values="0 0 0 0 0 0 0 0 0 0 0 0 0 0 0 0 0 0 127 0" result="hardAlpha"/><feOffset/><feGaussianBlur stdDeviation="4"/><feComposite in2="hardAlpha" operator="out"/><feColorMatrix values="0 0 0 0 0.215686 0 0 0 0 0.588235 0 0 0 0 0.964706 0 0 0 1 0"/><feBlend in2="BackgroundImageFix" result="effect1_dropShadow_5182_113847"/><feColorMatrix in="SourceAlpha" values="0 0 0 0 0 0 0 0 0 0 0 0 0 0 0 0 0 0 127 0" result="hardAlpha"/><feOffset dy="2"/><feGaussianBlur stdDeviation="2"/><feComposite in2="hardAlpha" operator="out"/><feColorMatrix values="0 0 0 0 0.347127 0 0 0 0 0.690744 0 0 0 0 1 0 0 0 0.8 0"/><feBlend in2="effect1_dropShadow_5182_113847" result="effect2_dropShadow_5182_113847"/><feBlend in="SourceGraphic" in2="effect2_dropShadow_5182_113847" result="shape"/></filter><filter id="e" x="1129.56" y="224.629" width="20.455" height="19.377" filterUnits="userSpaceOnUse" color-interpolation-filters="sRGB"><feFlood flood-opacity="0" result="BackgroundImageFix"/><feColorMatrix in="SourceAlpha" values="0 0 0 0 0 0 0 0 0 0 0 0 0 0 0 0 0 0 127 0" result="hardAlpha"/><feOffset/><feGaussianBlur stdDeviation="4"/><feComposite in2="hardAlpha" operator="out"/><feColorMatrix values="0 0 0 0 0.215686 0 0 0 0 0.588235 0 0 0 0 0.964706 0 0 0 1 0"/><feBlend in2="BackgroundImageFix" result="effect1_dropShadow_5182_113847"/><feColorMatrix in="SourceAlpha" values="0 0 0 0 0 0 0 0 0 0 0 0 0 0 0 0 0 0 127 0" result="hardAlpha"/><feOffset dy="2"/><feGaussianBlur stdDeviation="2"/><feComposite in2="hardAlpha" operator="out"/><feColorMatrix values="0 0 0 0 0.347127 0 0 0 0 0.690744 0 0 0 0 1 0 0 0 0.8 0"/><feBlend in2="effect1_dropShadow_5182_113847" result="effect2_dropShadow_5182_113847"/><feBlend in="SourceGraphic" in2="effect2_dropShadow_5182_113847" result="shape"/></filter><filter id="f" x="208.876" y="123.766" width="20.262" height="19.099" filterUnits="userSpaceOnUse" color-interpolation-filters="sRGB"><feFlood flood-opacity="0" result="BackgroundImageFix"/><feColorMatrix in="SourceAlpha" values="0 0 0 0 0 0 0 0 0 0 0 0 0 0 0 0 0 0 127 0" result="hardAlpha"/><feOffset/><feGaussianBlur stdDeviation="4"/><feComposite in2="hardAlpha" operator="out"/><feColorMatrix values="0 0 0 0 0.215686 0 0 0 0 0.588235 0 0 0 0 0.964706 0 0 0 1 0"/><feBlend in2="BackgroundImageFix" result="effect1_dropShadow_5182_113847"/><feColorMatrix in="SourceAlpha" values="0 0 0 0 0 0 0 0 0 0 0 0 0 0 0 0 0 0 127 0" result="hardAlpha"/><feOffset dy="2"/><feGaussianBlur stdDeviation="2"/><feComposite in2="hardAlpha" operator="out"/><feColorMatrix values="0 0 0 0 0.347127 0 0 0 0 0.690744 0 0 0 0 1 0 0 0 0.8 0"/><feBlend in2="effect1_dropShadow_5182_113847" result="effect2_dropShadow_5182_113847"/><feBlend in="SourceGraphic" in2="effect2_dropShadow_5182_113847" result="shape"/></filter><filter id="g" x="1249.37" y="382.006" width="20.771" height="20.231" filterUnits="userSpaceOnUse" color-interpolation-filters="sRGB"><feFlood flood-opacity="0" result="BackgroundImageFix"/><feColorMatrix in="SourceAlpha" values="0 0 0 0 0 0 0 0 0 0 0 0 0 0 0 0 0 0 127 0" result="hardAlpha"/><feOffset/><feGaussianBlur stdDeviation="4"/><feComposite in2="hardAlpha" operator="out"/><feColorMatrix values="0 0 0 0 0.215686 0 0 0 0 0.588235 0 0 0 0 0.964706 0 0 0 1 0"/><feBlend in2="BackgroundImageFix" result="effect1_dropShadow_5182_113847"/><feColorMatrix in="SourceAlpha" values="0 0 0 0 0 0 0 0 0 0 0 0 0 0 0 0 0 0 127 0" result="hardAlpha"/><feOffset dy="2"/><feGaussianBlur stdDeviation="2"/><feComposite in2="hardAlpha" operator="out"/><feColorMatrix values="0 0 0 0 0.347127 0 0 0 0 0.690744 0 0 0 0 1 0 0 0 0.8 0"/><feBlend in2="effect1_dropShadow_5182_113847" result="effect2_dropShadow_5182_113847"/><feBlend in="SourceGraphic" in2="effect2_dropShadow_5182_113847" result="shape"/></filter><clipPath id="a"><path fill="#fff" d="M0 0h1440v556.522H0z"/></clipPath></defs></svg>