<svg fill="none" xmlns="http://www.w3.org/2000/svg" viewBox="0 0 1440 557"><g clip-path="url(#a)"><g filter="url(#b)"><path d="m609.324 165.359.507-.264a1.148 1.148 0 0 0 .72-.757 1.158 1.158 0 0 0-.189-1.027l-.346-.425a1.982 1.982 0 0 0-2.305-.38l-.577.299a1.146 1.146 0 0 0-.692.786 1.15 1.15 0 0 0 .231 1.02l.358.415a1.974 1.974 0 0 0 2.293.333Z" fill="#3796F6"/></g><g filter="url(#c)"><path d="m829.996 54.077.531.241a1.858 1.858 0 0 0 2.109-.322l.276-.357c.415-.529.127-1.23-.645-1.576l-.53-.23a1.825 1.825 0 0 0-2.121.334l-.288.368c-.392.564-.092 1.254.668 1.542Z" fill="#3796F6"/></g><g filter="url(#d)"><path d="M288.509 291.185v.587c0 .828.761 1.415 1.787 1.3l.703-.081a2.016 2.016 0 0 0 1.878-1.702v-.576c0-.828-.737-1.403-1.752-1.3l-.703.081a2.051 2.051 0 0 0-1.913 1.691Z" fill="#3796F6"/></g><g filter="url(#e)"><path d="m959.654 26.337.369-.3c.518-.414.392-1.15-.288-1.53l-.461-.345a2.02 2.02 0 0 0-2.179 0l-.357.288c-.507.414-.38 1.093.3 1.53l.472.3a2.022 2.022 0 0 0 2.144.057Z" fill="#3796F6"/></g><g filter="url(#f)"><path d="m264.226 99.098.518.184a2.206 2.206 0 0 0 2.305-.598l.358-.426a.918.918 0 0 0-.404-1.576l-.518-.184a2.195 2.195 0 0 0-2.305.587l-.369.426a.927.927 0 0 0-.019 1.346c.12.118.27.201.434.241Z" fill="#3796F6"/></g><g filter="url(#g)"><path d="m1317.08 388.822-.77-.173c-1.15-.241-1.96.288-1.9 1.151v.633c.1.516.36.991.73 1.362.37.371.85.622 1.37.72l.77.173c1.15.253 1.98-.288 1.93-1.151v-.632a2.753 2.753 0 0 0-.74-1.367 2.66 2.66 0 0 0-1.39-.716Z" fill="#3796F6"/></g><g filter="url(#h)"><path d="m202.82 56.596.472.196a2.24 2.24 0 0 0 2.236-.506c.138-.127.265-.265.392-.392a.852.852 0 0 0-.242-1.507l-.484-.207a2.311 2.311 0 0 0-2.305.506l-.381.392a.867.867 0 0 0-.319.856.87.87 0 0 0 .631.662Z" fill="#3796F6"/></g></g><defs><filter id="b" x="598.406" y="154.294" width="20.192" height="19.291" filterUnits="userSpaceOnUse" color-interpolation-filters="sRGB"><feFlood flood-opacity="0" result="BackgroundImageFix"/><feColorMatrix in="SourceAlpha" values="0 0 0 0 0 0 0 0 0 0 0 0 0 0 0 0 0 0 127 0" result="hardAlpha"/><feOffset/><feGaussianBlur stdDeviation="4"/><feComposite in2="hardAlpha" operator="out"/><feColorMatrix values="0 0 0 0 0.215686 0 0 0 0 0.588235 0 0 0 0 0.964706 0 0 0 1 0"/><feBlend in2="BackgroundImageFix" result="effect1_dropShadow_5182_125942"/><feColorMatrix in="SourceAlpha" values="0 0 0 0 0 0 0 0 0 0 0 0 0 0 0 0 0 0 127 0" result="hardAlpha"/><feOffset dy="2"/><feGaussianBlur stdDeviation="2"/><feComposite in2="hardAlpha" operator="out"/><feColorMatrix values="0 0 0 0 0.347127 0 0 0 0 0.690744 0 0 0 0 1 0 0 0 0.8 0"/><feBlend in2="effect1_dropShadow_5182_125942" result="effect2_dropShadow_5182_125942"/><feBlend in="SourceGraphic" in2="effect2_dropShadow_5182_125942" result="shape"/></filter><filter id="c" x="821.156" y="43.632" width="19.946" height="18.879" filterUnits="userSpaceOnUse" color-interpolation-filters="sRGB"><feFlood flood-opacity="0" result="BackgroundImageFix"/><feColorMatrix in="SourceAlpha" values="0 0 0 0 0 0 0 0 0 0 0 0 0 0 0 0 0 0 127 0" result="hardAlpha"/><feOffset/><feGaussianBlur stdDeviation="4"/><feComposite in2="hardAlpha" operator="out"/><feColorMatrix values="0 0 0 0 0.215686 0 0 0 0 0.588235 0 0 0 0 0.964706 0 0 0 1 0"/><feBlend in2="BackgroundImageFix" result="effect1_dropShadow_5182_125942"/><feColorMatrix in="SourceAlpha" values="0 0 0 0 0 0 0 0 0 0 0 0 0 0 0 0 0 0 127 0" result="hardAlpha"/><feOffset dy="2"/><feGaussianBlur stdDeviation="2"/><feComposite in2="hardAlpha" operator="out"/><feColorMatrix values="0 0 0 0 0.347127 0 0 0 0 0.690744 0 0 0 0 1 0 0 0 0.8 0"/><feBlend in2="effect1_dropShadow_5182_125942" result="effect2_dropShadow_5182_125942"/><feBlend in="SourceGraphic" in2="effect2_dropShadow_5182_125942" result="shape"/></filter><filter id="d" x="280.509" y="281.401" width="20.368" height="19.685" filterUnits="userSpaceOnUse" color-interpolation-filters="sRGB"><feFlood flood-opacity="0" result="BackgroundImageFix"/><feColorMatrix in="SourceAlpha" values="0 0 0 0 0 0 0 0 0 0 0 0 0 0 0 0 0 0 127 0" result="hardAlpha"/><feOffset/><feGaussianBlur stdDeviation="4"/><feComposite in2="hardAlpha" operator="out"/><feColorMatrix values="0 0 0 0 0.215686 0 0 0 0 0.588235 0 0 0 0 0.964706 0 0 0 1 0"/><feBlend in2="BackgroundImageFix" result="effect1_dropShadow_5182_125942"/><feColorMatrix in="SourceAlpha" values="0 0 0 0 0 0 0 0 0 0 0 0 0 0 0 0 0 0 127 0" result="hardAlpha"/><feOffset dy="2"/><feGaussianBlur stdDeviation="2"/><feComposite in2="hardAlpha" operator="out"/><feColorMatrix values="0 0 0 0 0.347127 0 0 0 0 0.690744 0 0 0 0 1 0 0 0 0.8 0"/><feBlend in2="effect1_dropShadow_5182_125942" result="effect2_dropShadow_5182_125942"/><feBlend in="SourceGraphic" in2="effect2_dropShadow_5182_125942" result="shape"/></filter><filter id="e" x="948.428" y="15.843" width="19.913" height="18.773" filterUnits="userSpaceOnUse" color-interpolation-filters="sRGB"><feFlood flood-opacity="0" result="BackgroundImageFix"/><feColorMatrix in="SourceAlpha" values="0 0 0 0 0 0 0 0 0 0 0 0 0 0 0 0 0 0 127 0" result="hardAlpha"/><feOffset/><feGaussianBlur stdDeviation="4"/><feComposite in2="hardAlpha" operator="out"/><feColorMatrix values="0 0 0 0 0.215686 0 0 0 0 0.588235 0 0 0 0 0.964706 0 0 0 1 0"/><feBlend in2="BackgroundImageFix" result="effect1_dropShadow_5182_125942"/><feColorMatrix in="SourceAlpha" values="0 0 0 0 0 0 0 0 0 0 0 0 0 0 0 0 0 0 127 0" result="hardAlpha"/><feOffset dy="2"/><feGaussianBlur stdDeviation="2"/><feComposite in2="hardAlpha" operator="out"/><feColorMatrix values="0 0 0 0 0.347127 0 0 0 0 0.690744 0 0 0 0 1 0 0 0 0.8 0"/><feBlend in2="effect1_dropShadow_5182_125942" result="effect2_dropShadow_5182_125942"/><feBlend in="SourceGraphic" in2="effect2_dropShadow_5182_125942" result="shape"/></filter><filter id="f" x="255.513" y="88.384" width="20.196" height="19.008" filterUnits="userSpaceOnUse" color-interpolation-filters="sRGB"><feFlood flood-opacity="0" result="BackgroundImageFix"/><feColorMatrix in="SourceAlpha" values="0 0 0 0 0 0 0 0 0 0 0 0 0 0 0 0 0 0 127 0" result="hardAlpha"/><feOffset/><feGaussianBlur stdDeviation="4"/><feComposite in2="hardAlpha" operator="out"/><feColorMatrix values="0 0 0 0 0.215686 0 0 0 0 0.588235 0 0 0 0 0.964706 0 0 0 1 0"/><feBlend in2="BackgroundImageFix" result="effect1_dropShadow_5182_125942"/><feColorMatrix in="SourceAlpha" values="0 0 0 0 0 0 0 0 0 0 0 0 0 0 0 0 0 0 127 0" result="hardAlpha"/><feOffset dy="2"/><feGaussianBlur stdDeviation="2"/><feComposite in2="hardAlpha" operator="out"/><feColorMatrix values="0 0 0 0 0.347127 0 0 0 0 0.690744 0 0 0 0 1 0 0 0 0.8 0"/><feBlend in2="effect1_dropShadow_5182_125942" result="effect2_dropShadow_5182_125942"/><feBlend in="SourceGraphic" in2="effect2_dropShadow_5182_125942" result="shape"/></filter><filter id="g" x="1306.41" y="380.591" width="20.8" height="20.16" filterUnits="userSpaceOnUse" color-interpolation-filters="sRGB"><feFlood flood-opacity="0" result="BackgroundImageFix"/><feColorMatrix in="SourceAlpha" values="0 0 0 0 0 0 0 0 0 0 0 0 0 0 0 0 0 0 127 0" result="hardAlpha"/><feOffset/><feGaussianBlur stdDeviation="4"/><feComposite in2="hardAlpha" operator="out"/><feColorMatrix values="0 0 0 0 0.215686 0 0 0 0 0.588235 0 0 0 0 0.964706 0 0 0 1 0"/><feBlend in2="BackgroundImageFix" result="effect1_dropShadow_5182_125942"/><feColorMatrix in="SourceAlpha" values="0 0 0 0 0 0 0 0 0 0 0 0 0 0 0 0 0 0 127 0" result="hardAlpha"/><feOffset dy="2"/><feGaussianBlur stdDeviation="2"/><feComposite in2="hardAlpha" operator="out"/><feColorMatrix values="0 0 0 0 0.347127 0 0 0 0 0.690744 0 0 0 0 1 0 0 0 0.8 0"/><feBlend in2="effect1_dropShadow_5182_125942" result="effect2_dropShadow_5182_125942"/><feBlend in="SourceGraphic" in2="effect2_dropShadow_5182_125942" result="shape"/></filter><filter id="h" x="194.172" y="46.063" width="20.106" height="18.839" filterUnits="userSpaceOnUse" color-interpolation-filters="sRGB"><feFlood flood-opacity="0" result="BackgroundImageFix"/><feColorMatrix in="SourceAlpha" values="0 0 0 0 0 0 0 0 0 0 0 0 0 0 0 0 0 0 127 0" result="hardAlpha"/><feOffset/><feGaussianBlur stdDeviation="4"/><feComposite in2="hardAlpha" operator="out"/><feColorMatrix values="0 0 0 0 0.215686 0 0 0 0 0.588235 0 0 0 0 0.964706 0 0 0 1 0"/><feBlend in2="BackgroundImageFix" result="effect1_dropShadow_5182_125942"/><feColorMatrix in="SourceAlpha" values="0 0 0 0 0 0 0 0 0 0 0 0 0 0 0 0 0 0 127 0" result="hardAlpha"/><feOffset dy="2"/><feGaussianBlur stdDeviation="2"/><feComposite in2="hardAlpha" operator="out"/><feColorMatrix values="0 0 0 0 0.347127 0 0 0 0 0.690744 0 0 0 0 1 0 0 0 0.8 0"/><feBlend in2="effect1_dropShadow_5182_125942" result="effect2_dropShadow_5182_125942"/><feBlend in="SourceGraphic" in2="effect2_dropShadow_5182_125942" result="shape"/></filter><clipPath id="a"><path fill="#fff" d="M0 0h1440v556.522H0z"/></clipPath></defs></svg>