<svg fill="none" xmlns="http://www.w3.org/2000/svg" viewBox="0 0 1440 557"><g clip-path="url(#a)"><g filter="url(#b)"><path d="M479.884 232.955h.668a1.855 1.855 0 0 0 2.006-1.254c0-.184.092-.368.127-.552.172-.76-.427-1.45-1.372-1.542l-.657-.069a1.912 1.912 0 0 0-2.074 1.254c0 .184-.081.368-.127.552-.173.829.472 1.531 1.429 1.611Z" fill="#3796F6"/></g><g filter="url(#c)"><path d="M1182.32 274.743h-.7c-.99 0-1.65.564-1.45 1.381 0 .196.09.38.12.575.16.45.46.841.84 1.124.39.283.85.444 1.33.464h.7c1 .058 1.67-.552 1.48-1.381l-.14-.575a2.386 2.386 0 0 0-.85-1.127 2.386 2.386 0 0 0-1.33-.461Z" fill="#3796F6"/></g><g filter="url(#d)"><path d="M196.85 350.922v-.61c0-.862-.922-1.38-1.971-1.15l-.738.149a2.197 2.197 0 0 0-1.272.668 2.18 2.18 0 0 0-.583 1.311v.622c0 .863.933 1.392 1.994 1.15l.737-.161a2.152 2.152 0 0 0 1.833-1.979Z" fill="#3796F6"/></g><g filter="url(#e)"><path d="m1065.09 39.441.42.357a2.165 2.165 0 0 0 2.23.322l.44-.23c.61-.334.62-1.013 0-1.53l-.43-.357a2.2 2.2 0 0 0-2.24-.31l-.42.23c-.61.333-.61 1.012 0 1.518Z" fill="#3796F6"/></g><g filter="url(#f)"><path d="m1260.14 390.26-.77-.184c-1.16-.265-1.99.242-2 1.151v.632c.07.514.3.993.66 1.37.35.378.82.635 1.33.736l.77.196c1.15.276 2-.219 2.01-1.151v-.667a2.504 2.504 0 0 0-.67-1.357 2.522 2.522 0 0 0-1.33-.726Z" fill="#3796F6"/></g><g filter="url(#g)"><path d="m126.154 88.087-.518-.15a2.378 2.378 0 0 0-2.305.714l-.346.437a.875.875 0 0 0 .02 1.304.88.88 0 0 0 .441.203l.53.15a2.31 2.31 0 0 0 2.305-.714l.357-.437a.872.872 0 0 0-.484-1.507Z" fill="#3796F6"/></g></g><defs><filter id="b" x="470.427" y="221.519" width="20.288" height="19.453" filterUnits="userSpaceOnUse" color-interpolation-filters="sRGB"><feFlood flood-opacity="0" result="BackgroundImageFix"/><feColorMatrix in="SourceAlpha" values="0 0 0 0 0 0 0 0 0 0 0 0 0 0 0 0 0 0 127 0" result="hardAlpha"/><feOffset/><feGaussianBlur stdDeviation="4"/><feComposite in2="hardAlpha" operator="out"/><feColorMatrix values="0 0 0 0 0.215686 0 0 0 0 0.588235 0 0 0 0 0.964706 0 0 0 1 0"/><feBlend in2="BackgroundImageFix" result="effect1_dropShadow_5182_119897"/><feColorMatrix in="SourceAlpha" values="0 0 0 0 0 0 0 0 0 0 0 0 0 0 0 0 0 0 127 0" result="hardAlpha"/><feOffset dy="2"/><feGaussianBlur stdDeviation="2"/><feComposite in2="hardAlpha" operator="out"/><feColorMatrix values="0 0 0 0 0.347127 0 0 0 0 0.690744 0 0 0 0 1 0 0 0 0.8 0"/><feBlend in2="effect1_dropShadow_5182_119897" result="effect2_dropShadow_5182_119897"/><feBlend in="SourceGraphic" in2="effect2_dropShadow_5182_119897" result="shape"/></filter><filter id="c" x="1172.13" y="266.743" width="20.541" height="19.547" filterUnits="userSpaceOnUse" color-interpolation-filters="sRGB"><feFlood flood-opacity="0" result="BackgroundImageFix"/><feColorMatrix in="SourceAlpha" values="0 0 0 0 0 0 0 0 0 0 0 0 0 0 0 0 0 0 127 0" result="hardAlpha"/><feOffset/><feGaussianBlur stdDeviation="4"/><feComposite in2="hardAlpha" operator="out"/><feColorMatrix values="0 0 0 0 0.215686 0 0 0 0 0.588235 0 0 0 0 0.964706 0 0 0 1 0"/><feBlend in2="BackgroundImageFix" result="effect1_dropShadow_5182_119897"/><feColorMatrix in="SourceAlpha" values="0 0 0 0 0 0 0 0 0 0 0 0 0 0 0 0 0 0 127 0" result="hardAlpha"/><feOffset dy="2"/><feGaussianBlur stdDeviation="2"/><feComposite in2="hardAlpha" operator="out"/><feColorMatrix values="0 0 0 0 0.347127 0 0 0 0 0.690744 0 0 0 0 1 0 0 0 0.8 0"/><feBlend in2="effect1_dropShadow_5182_119897" result="effect2_dropShadow_5182_119897"/><feBlend in="SourceGraphic" in2="effect2_dropShadow_5182_119897" result="shape"/></filter><filter id="d" x="184.286" y="341.107" width="20.564" height="20.014" filterUnits="userSpaceOnUse" color-interpolation-filters="sRGB"><feFlood flood-opacity="0" result="BackgroundImageFix"/><feColorMatrix in="SourceAlpha" values="0 0 0 0 0 0 0 0 0 0 0 0 0 0 0 0 0 0 127 0" result="hardAlpha"/><feOffset/><feGaussianBlur stdDeviation="4"/><feComposite in2="hardAlpha" operator="out"/><feColorMatrix values="0 0 0 0 0.215686 0 0 0 0 0.588235 0 0 0 0 0.964706 0 0 0 1 0"/><feBlend in2="BackgroundImageFix" result="effect1_dropShadow_5182_119897"/><feColorMatrix in="SourceAlpha" values="0 0 0 0 0 0 0 0 0 0 0 0 0 0 0 0 0 0 127 0" result="hardAlpha"/><feOffset dy="2"/><feGaussianBlur stdDeviation="2"/><feComposite in2="hardAlpha" operator="out"/><feColorMatrix values="0 0 0 0 0.347127 0 0 0 0 0.690744 0 0 0 0 1 0 0 0 0.8 0"/><feBlend in2="effect1_dropShadow_5182_119897" result="effect2_dropShadow_5182_119897"/><feBlend in="SourceGraphic" in2="effect2_dropShadow_5182_119897" result="shape"/></filter><filter id="e" x="1056.63" y="29.517" width="20.009" height="18.779" filterUnits="userSpaceOnUse" color-interpolation-filters="sRGB"><feFlood flood-opacity="0" result="BackgroundImageFix"/><feColorMatrix in="SourceAlpha" values="0 0 0 0 0 0 0 0 0 0 0 0 0 0 0 0 0 0 127 0" result="hardAlpha"/><feOffset/><feGaussianBlur stdDeviation="4"/><feComposite in2="hardAlpha" operator="out"/><feColorMatrix values="0 0 0 0 0.215686 0 0 0 0 0.588235 0 0 0 0 0.964706 0 0 0 1 0"/><feBlend in2="BackgroundImageFix" result="effect1_dropShadow_5182_119897"/><feColorMatrix in="SourceAlpha" values="0 0 0 0 0 0 0 0 0 0 0 0 0 0 0 0 0 0 127 0" result="hardAlpha"/><feOffset dy="2"/><feGaussianBlur stdDeviation="2"/><feComposite in2="hardAlpha" operator="out"/><feColorMatrix values="0 0 0 0 0.347127 0 0 0 0 0.690744 0 0 0 0 1 0 0 0 0.8 0"/><feBlend in2="effect1_dropShadow_5182_119897" result="effect2_dropShadow_5182_119897"/><feBlend in="SourceGraphic" in2="effect2_dropShadow_5182_119897" result="shape"/></filter><filter id="f" x="1249.37" y="382.006" width="20.771" height="20.231" filterUnits="userSpaceOnUse" color-interpolation-filters="sRGB"><feFlood flood-opacity="0" result="BackgroundImageFix"/><feColorMatrix in="SourceAlpha" values="0 0 0 0 0 0 0 0 0 0 0 0 0 0 0 0 0 0 127 0" result="hardAlpha"/><feOffset/><feGaussianBlur stdDeviation="4"/><feComposite in2="hardAlpha" operator="out"/><feColorMatrix values="0 0 0 0 0.215686 0 0 0 0 0.588235 0 0 0 0 0.964706 0 0 0 1 0"/><feBlend in2="BackgroundImageFix" result="effect1_dropShadow_5182_119897"/><feColorMatrix in="SourceAlpha" values="0 0 0 0 0 0 0 0 0 0 0 0 0 0 0 0 0 0 127 0" result="hardAlpha"/><feOffset dy="2"/><feGaussianBlur stdDeviation="2"/><feComposite in2="hardAlpha" operator="out"/><feColorMatrix values="0 0 0 0 0.347127 0 0 0 0 0.690744 0 0 0 0 1 0 0 0 0.8 0"/><feBlend in2="effect1_dropShadow_5182_119897" result="effect2_dropShadow_5182_119897"/><feBlend in="SourceGraphic" in2="effect2_dropShadow_5182_119897" result="shape"/></filter><filter id="g" x="114.703" y="79.874" width="20.215" height="18.943" filterUnits="userSpaceOnUse" color-interpolation-filters="sRGB"><feFlood flood-opacity="0" result="BackgroundImageFix"/><feColorMatrix in="SourceAlpha" values="0 0 0 0 0 0 0 0 0 0 0 0 0 0 0 0 0 0 127 0" result="hardAlpha"/><feOffset/><feGaussianBlur stdDeviation="4"/><feComposite in2="hardAlpha" operator="out"/><feColorMatrix values="0 0 0 0 0.215686 0 0 0 0 0.588235 0 0 0 0 0.964706 0 0 0 1 0"/><feBlend in2="BackgroundImageFix" result="effect1_dropShadow_5182_119897"/><feColorMatrix in="SourceAlpha" values="0 0 0 0 0 0 0 0 0 0 0 0 0 0 0 0 0 0 127 0" result="hardAlpha"/><feOffset dy="2"/><feGaussianBlur stdDeviation="2"/><feComposite in2="hardAlpha" operator="out"/><feColorMatrix values="0 0 0 0 0.347127 0 0 0 0 0.690744 0 0 0 0 1 0 0 0 0.8 0"/><feBlend in2="effect1_dropShadow_5182_119897" result="effect2_dropShadow_5182_119897"/><feBlend in="SourceGraphic" in2="effect2_dropShadow_5182_119897" result="shape"/></filter><clipPath id="a"><path fill="#fff" d="M0 0h1440v556.522H0z"/></clipPath></defs></svg>