<svg width="1024" height="1024" viewBox="0 0 1024 1024" fill="none" xmlns="http://www.w3.org/2000/svg">
<g clip-path="url(#clip0_5120_16752)">
<path fill-rule="evenodd" clip-rule="evenodd" d="M555.65 105.213L834.84 270.014C861.811 285.935 878.427 315.358 878.427 347.2V676.802C878.427 708.643 861.811 738.066 834.84 753.987L555.65 918.788C547.631 923.522 539.059 926.848 530.262 928.767C531.196 907.184 532.336 881.658 533.555 854.365C537.129 774.316 541.383 679.055 543.12 623.49C543.143 623.474 543.166 623.457 543.188 623.441L561.628 610.011C564.255 611.65 567.694 611.635 570.359 609.694L591.6 594.224C595.165 591.627 595.996 586.568 593.457 582.924L582.511 567.214C579.972 563.57 575.023 562.72 571.459 565.316L550.218 580.786C546.668 583.371 545.829 588.398 548.328 592.039L543.836 595.312C543.963 587.371 543.949 581.708 543.762 578.846C542.177 554.538 568.855 534.958 583.384 526.18L749.807 404.644C765.657 389.114 795.377 358.055 785.471 343.876C775.7 329.889 729.995 344.551 710.182 354.004C687.347 364.171 649 383.017 611.815 401.291C582.326 415.784 553.565 429.918 533.854 439.079C499.115 455.224 487.03 453.353 461.486 440.647L462.567 439.86C465.194 441.499 468.633 441.485 471.298 439.544L492.539 424.073C496.104 421.477 496.935 416.418 494.396 412.773L483.45 397.064C480.911 393.419 475.962 392.569 472.398 395.166L451.157 410.636C447.607 413.221 446.768 418.248 449.268 421.889L439.235 429.196L438.757 428.951L165.713 290.376C172.224 282.33 180.163 275.399 189.286 270.014L468.476 105.213C495.448 89.2917 528.678 89.2917 555.65 105.213ZM151.594 314.981C147.755 325.099 145.7 336 145.7 347.2V676.802C145.7 708.643 162.315 738.066 189.286 753.987L468.476 918.788C478.376 924.632 489.118 928.331 500.085 929.885C498.913 852.315 489.636 720.529 470.455 655.819C469.589 652.897 468.77 650.119 467.992 647.478C454.867 602.935 453.274 597.53 430.83 605.178C411.811 611.66 370.073 632.186 351.581 641.639C345.638 643.665 333.75 651.362 333.75 665.947V755.073C327.807 760.475 310.158 774.855 306.013 767.227C296.109 748.996 288.184 721.313 282.241 696.331C278.278 684.177 273.125 669.998 252.52 678.1C231.916 686.203 230.727 685.527 232.708 684.177C226.104 684.177 216.464 676.885 230.729 663.921C235.025 660.017 238.976 657.053 242.277 654.577C252.678 646.776 256.629 643.812 244.597 631.511C240.29 627.107 232.567 617.965 224.118 607.963C213.915 595.885 202.651 582.55 195.065 574.794C192.423 572.094 187.932 565.882 191.102 562.641C194.272 559.4 202.99 553.188 206.952 550.487C207.613 549.137 212.103 547.651 224.783 552.513C237.463 557.374 274.974 578.846 292.145 588.974C296.768 591.674 307.6 596.671 321.865 586.948C335.052 577.96 364.492 555.007 379.822 543.055L383.281 540.359C393.187 534.958 409.037 519.698 393.187 501.873C373.838 480.112 210.879 338.571 151.594 314.981ZM452.626 77.1451C489.406 55.4347 534.72 55.4347 571.5 77.1451L850.69 241.946C887.469 263.656 910.126 303.779 910.126 347.2V676.802C910.126 720.222 887.469 760.345 850.69 782.055L571.5 946.856C534.72 968.566 489.406 968.566 452.626 946.856L173.437 782.055C136.657 760.345 114 720.222 114 676.802V347.2C114 303.779 136.657 263.656 173.437 241.946L452.626 77.1451Z" fill="white" stroke="white" stroke-width="8.99414"/>
</g>
<defs>
<clipPath id="clip0_5120_16752">
<rect width="1024" height="1024" fill="white"/>
</clipPath>
</defs>
</svg>
