<?xml version="1.0" standalone="no"?>
<!DOCTYPE svg PUBLIC "-//W3C//DTD SVG 20010904//EN"
 "http://www.w3.org/TR/2001/REC-SVG-20010904/DTD/svg10.dtd">
<svg version="1.0" xmlns="http://www.w3.org/2000/svg"
 width="700.000000pt" height="700.000000pt" viewBox="0 0 700.000000 700.000000"
 preserveAspectRatio="xMidYMid meet">
<metadata>
Created by potrace 1.14, written by Peter Selinger 2001-2017
</metadata>
<g transform="translate(0.000000,700.000000) scale(0.100000,-0.100000)"
fill="#000000" stroke="none">
<path d="M3324 6966 c-34 -8 -89 -25 -121 -38 -61 -25 -2321 -1320 -2424
-1389 -30 -20 -89 -73 -131 -118 -60 -63 -87 -103 -126 -183 -95 -193 -87 -41
-87 -1738 0 -1428 1 -1498 19 -1565 23 -89 72 -196 124 -271 48 -71 158 -178
227 -221 159 -99 2332 -1342 2388 -1365 96 -41 185 -58 307 -58 122 0 211 17
307 57 63 27 2301 1308 2403 1376 64 42 165 143 210 207 54 79 86 146 117 247
l28 88 0 1495 c0 1430 -1 1498 -19 1570 -49 195 -178 382 -336 487 -50 34
-2302 1329 -2365 1361 -95 47 -174 64 -320 68 -96 2 -159 -1 -201 -10z m411
-386 c39 -12 95 -35 126 -50 70 -35 1943 -1139 2020 -1191 128 -86 252 -243
308 -389 63 -163 61 -109 61 -1450 0 -1341 2 -1287 -61 -1450 -56 -146 -180
-303 -308 -389 -76 -52 -1941 -1151 -2016 -1189 -125 -62 -194 -77 -365 -77
-171 0 -241 15 -364 77 -82 41 -1981 1163 -2031 1199 -117 86 -229 225 -284
355 -71 167 -66 58 -66 1474 0 1416 -5 1307 66 1474 55 130 167 270 284 355
52 37 1951 1159 2030 1198 133 67 212 83 390 79 112 -2 154 -8 210 -26z"/>
<path d="M3368 6314 c-78 -18 -80 -19 -613 -334 -258 -152 -697 -411 -975
-575 -484 -286 -594 -357 -587 -378 1 -5 408 -215 902 -466 638 -325 905 -455
916 -450 9 5 19 26 23 48 5 36 14 46 103 110 100 73 131 84 168 57 32 -22 115
-151 115 -178 0 -34 -30 -69 -100 -119 -33 -23 -60 -45 -60 -50 0 -4 25 -13
56 -20 75 -17 154 -3 275 49 52 22 312 147 579 277 570 279 696 337 809 376
104 36 215 59 278 59 56 0 127 -30 142 -58 19 -35 13 -105 -14 -158 -32 -64
-138 -196 -213 -265 -48 -44 -1077 -801 -1232 -906 -97 -66 -189 -188 -190
-250 0 -21 7 -18 76 32 42 30 84 57 94 60 33 11 70 -15 119 -82 92 -125 85
-144 -103 -270 -26 -18 -60 -33 -75 -33 -14 0 -47 -16 -72 -34 l-46 -34 -7
-188 c-3 -104 -22 -553 -42 -998 -19 -445 -34 -817 -32 -827 3 -18 6 -17 58 7
30 14 496 285 1034 602 1087 640 1071 629 1148 777 72 138 68 57 68 1407 0
1348 4 1265 -68 1402 -78 149 -60 137 -1148 777 -538 318 -998 586 -1021 598
-98 49 -250 63 -365 35z"/>
<path d="M1041 4750 c-15 -71 -15 -2428 0 -2502 6 -29 29 -91 51 -136 59 -126
123 -184 343 -313 99 -59 389 -230 645 -381 256 -151 620 -366 808 -477 334
-197 418 -242 474 -255 l28 -6 -5 102 c-21 420 -28 550 -46 748 -34 379 -80
695 -133 904 -39 151 -103 347 -126 385 -20 31 -24 33 -63 29 -55 -7 -140 -41
-382 -155 -265 -125 -283 -136 -306 -186 -17 -38 -19 -70 -19 -364 l0 -322
-43 -34 c-87 -71 -159 -94 -189 -59 -40 45 -100 203 -152 402 -41 153 -66 207
-103 216 -18 5 -58 -3 -125 -26 -106 -35 -136 -35 -175 2 -16 15 -23 33 -23
59 0 46 30 83 126 160 35 28 64 56 64 62 -1 7 -11 24 -23 38 -12 14 -89 104
-172 199 -221 254 -225 259 -225 291 0 32 37 71 112 120 46 30 49 30 103 19
60 -13 204 -83 414 -205 74 -42 149 -79 167 -82 65 -11 81 -1 508 325 126 96
151 146 107 217 -52 86 -743 675 -1111 947 -222 163 -475 328 -506 328 -7 0
-17 -23 -23 -50z"/>
</g>
</svg>
