<svg width="164" height="50" viewBox="0 0 164 50" fill="none" xmlns="http://www.w3.org/2000/svg">
<path d="M4.55545 35.0001H0.675781L7.73953 14.9355H12.2266L19.3002 35.0001H15.4205L10.0615 19.0503H9.9047L4.55545 35.0001ZM4.68282 27.133H15.2637V30.0525H4.68282V27.133Z" fill="#3796F6"/>
<path d="M21.894 35.0001V19.9516H25.4405V35.0001H21.894ZM23.677 17.8159C23.1153 17.8159 22.632 17.6297 22.2271 17.2574C21.8221 16.8786 21.6196 16.4247 21.6196 15.8956C21.6196 15.36 21.8221 14.9061 22.2271 14.5338C22.632 14.155 23.1153 13.9656 23.677 13.9656C24.2453 13.9656 24.7286 14.155 25.127 14.5338C25.532 14.9061 25.7345 15.36 25.7345 15.8956C25.7345 16.4247 25.532 16.8786 25.127 17.2574C24.7286 17.6297 24.2453 17.8159 23.677 17.8159Z" fill="#3796F6"/>
<path d="M29.0875 35.0001V19.9516H32.5263V22.4597H32.6831C32.9574 21.591 33.4277 20.9216 34.0939 20.4513C34.7666 19.9745 35.5341 19.7361 36.3962 19.7361C36.5921 19.7361 36.8109 19.7459 37.0526 19.7655C37.3008 19.7786 37.5065 19.8014 37.6698 19.8341V23.0965C37.5196 23.0443 37.2812 22.9986 36.9546 22.9594C36.6346 22.9136 36.3244 22.8908 36.0239 22.8908C35.3773 22.8908 34.796 23.0312 34.28 23.3121C33.7706 23.5864 33.3689 23.9685 33.075 24.4583C32.7811 24.9482 32.6341 25.5132 32.6341 26.1532V35.0001H29.0875Z" fill="#3796F6"/>
<path d="M57.3572 21.7053H53.6931C53.5886 21.1044 53.3959 20.5721 53.1151 20.1084C52.8342 19.6381 52.4848 19.2397 52.0668 18.9131C51.6487 18.5866 51.1719 18.3416 50.6364 18.1784C50.1073 18.0085 49.5358 17.9236 48.9219 17.9236C47.8311 17.9236 46.8645 18.1979 46.0219 18.7466C45.1794 19.2887 44.5197 20.0855 44.0429 21.1371C43.5661 22.1821 43.3277 23.459 43.3277 24.9678C43.3277 26.5027 43.5661 27.7959 44.0429 28.8475C44.5262 29.8925 45.1859 30.6828 46.0219 31.2184C46.8645 31.7474 47.8279 32.0119 48.9121 32.0119C49.513 32.0119 50.0747 31.9336 50.5972 31.7768C51.1262 31.6135 51.5998 31.3751 52.0178 31.0616C52.4423 30.7481 52.7983 30.3627 53.0857 29.9055C53.3796 29.4483 53.582 28.9258 53.6931 28.338L57.3572 28.3576C57.2201 29.3112 56.9229 30.206 56.4657 31.042C56.015 31.878 55.4239 32.6161 54.6924 33.2562C53.9609 33.8897 53.1053 34.3861 52.1255 34.7453C51.1458 35.098 50.0583 35.2744 48.8631 35.2744C47.0996 35.2744 45.5255 34.8662 44.1409 34.0497C42.7562 33.2333 41.6654 32.0544 40.8686 30.513C40.0718 28.9716 39.6734 27.1232 39.6734 24.9678C39.6734 22.8059 40.075 20.9575 40.8784 19.4226C41.6818 17.8812 42.7758 16.7022 44.1604 15.8858C45.5451 15.0694 47.1127 14.6612 48.8631 14.6612C49.98 14.6612 51.0185 14.8179 51.9786 15.1314C52.9387 15.4449 53.7943 15.9054 54.5454 16.5128C55.2965 17.1137 55.9138 17.8518 56.3971 18.727C56.887 19.5957 57.207 20.5885 57.3572 21.7053Z" fill="#3796F6"/>
<path d="M64.8594 35.3038C63.9058 35.3038 63.0469 35.134 62.2827 34.7943C61.5251 34.4482 60.9242 33.9387 60.4801 33.266C60.0425 32.5932 59.8237 31.7637 59.8237 30.7775C59.8237 29.9284 59.9804 29.2263 60.2939 28.6711C60.6074 28.1159 61.0352 27.6718 61.5773 27.3387C62.1195 27.0056 62.7301 26.7541 63.4094 26.5843C64.0952 26.408 64.8039 26.2806 65.5354 26.2022C66.4171 26.1108 67.1323 26.0291 67.681 25.9573C68.2296 25.8789 68.628 25.7613 68.8762 25.6046C69.1309 25.4413 69.2583 25.1898 69.2583 24.8502V24.7914C69.2583 24.0534 69.0395 23.4819 68.6019 23.0769C68.1643 22.672 67.534 22.4695 66.7111 22.4695C65.8424 22.4695 65.1533 22.6589 64.6439 23.0377C64.1409 23.4166 63.8013 23.864 63.6249 24.38L60.3135 23.9097C60.5748 22.9953 61.0058 22.2311 61.6067 21.6172C62.2076 20.9967 62.9424 20.5329 63.8111 20.226C64.6798 19.9124 65.6399 19.7557 66.6915 19.7557C67.4164 19.7557 68.1382 19.8406 68.8566 20.0104C69.5751 20.1802 70.2315 20.4611 70.8259 20.853C71.4202 21.2383 71.897 21.7641 72.2562 22.4303C72.622 23.0965 72.8049 23.9293 72.8049 24.9286V35.0001H69.3955V32.9329H69.2779C69.0624 33.3509 68.7587 33.7428 68.3668 34.1085C67.9814 34.4678 67.4948 34.7584 66.907 34.9805C66.3257 35.196 65.6432 35.3038 64.8594 35.3038ZM65.7803 32.6977C66.4922 32.6977 67.1095 32.5573 67.632 32.2765C68.1545 31.9891 68.5562 31.6103 68.837 31.14C69.1244 30.6697 69.2681 30.157 69.2681 29.6018V27.8285C69.1571 27.92 68.9677 28.0049 68.6999 28.0833C68.4386 28.1617 68.1447 28.2302 67.8181 28.289C67.4916 28.3478 67.1683 28.4 66.8482 28.4458C66.5282 28.4915 66.2506 28.5307 66.0154 28.5633C65.4864 28.6352 65.0129 28.7527 64.5949 28.916C64.1769 29.0793 63.847 29.3079 63.6054 29.6018C63.3637 29.8892 63.2429 30.2615 63.2429 30.7187C63.2429 31.3719 63.4813 31.865 63.958 32.1981C64.4348 32.5312 65.0423 32.6977 65.7803 32.6977Z" fill="#3796F6"/>
<path d="M76.371 35.0001V19.9516H79.8098V22.4597H79.9666C80.2409 21.591 80.7112 20.9216 81.3774 20.4513C82.0501 19.9745 82.8176 19.7361 83.6797 19.7361C83.8757 19.7361 84.0945 19.7459 84.3361 19.7655C84.5843 19.7786 84.7901 19.8014 84.9534 19.8341V23.0965C84.8031 23.0443 84.5647 22.9986 84.2382 22.9594C83.9181 22.9136 83.6079 22.8908 83.3074 22.8908C82.6608 22.8908 82.0795 23.0312 81.5635 23.3121C81.0541 23.5864 80.6524 23.9685 80.3585 24.4583C80.0646 24.9482 79.9176 25.5132 79.9176 26.1532V35.0001H76.371Z" fill="#3796F6"/>
<path d="M93.2344 40.9567C91.9608 40.9567 90.8667 40.7837 89.9523 40.4375C89.0379 40.0979 88.3032 39.6407 87.748 39.0659C87.1928 38.4911 86.8075 37.8543 86.5919 37.1554L89.7858 36.3815C89.9295 36.6754 90.1385 36.966 90.4128 37.2534C90.6871 37.5473 91.0562 37.789 91.5199 37.9784C91.9902 38.1743 92.5812 38.2723 93.2932 38.2723C94.299 38.2723 95.1318 38.0274 95.7915 37.5375C96.4511 37.0542 96.781 36.2574 96.781 35.147V32.2961H96.6046C96.4217 32.6618 96.1539 33.0374 95.8012 33.4227C95.4551 33.8081 94.9946 34.1314 94.4198 34.3926C93.8516 34.6539 93.1364 34.7845 92.2743 34.7845C91.1182 34.7845 90.0699 34.5135 89.1294 33.9714C88.1954 33.4227 87.4508 32.6063 86.8956 31.5221C86.347 30.4313 86.0727 29.0663 86.0727 27.4269C86.0727 25.7744 86.347 24.38 86.8956 23.2435C87.4508 22.1005 88.1987 21.2351 89.1392 20.6472C90.0797 20.0529 91.128 19.7557 92.2841 19.7557C93.1658 19.7557 93.8908 19.9059 94.459 20.2064C95.0338 20.5003 95.491 20.8562 95.8306 21.2743C96.1703 21.6857 96.4283 22.0744 96.6046 22.4401H96.8006V19.9516H100.298V35.245C100.298 36.5317 99.9912 37.5963 99.3772 38.4389C98.7632 39.2814 97.924 39.9117 96.8593 40.3297C95.7947 40.7477 94.5864 40.9567 93.2344 40.9567ZM93.2638 32.0021C94.0149 32.0021 94.655 31.8193 95.184 31.4535C95.7131 31.0877 96.1148 30.562 96.3891 29.8762C96.6634 29.1904 96.8006 28.3674 96.8006 27.4073C96.8006 26.4602 96.6634 25.6307 96.3891 24.9188C96.1213 24.2069 95.7229 23.655 95.1938 23.2631C94.6713 22.8647 94.028 22.6654 93.2638 22.6654C92.4735 22.6654 91.8138 22.8712 91.2848 23.2827C90.7557 23.6942 90.3573 24.2591 90.0895 24.9776C89.8217 25.6895 89.6878 26.4994 89.6878 27.4073C89.6878 28.3282 89.8217 29.1348 90.0895 29.8272C90.3638 30.513 90.7655 31.0485 91.2946 31.4339C91.8301 31.8127 92.4865 32.0021 93.2638 32.0021Z" fill="#3796F6"/>
<path d="M110.497 35.294C109.027 35.294 107.754 34.9707 106.676 34.3241C105.598 33.6775 104.762 32.7728 104.168 31.6103C103.58 30.4477 103.286 29.0891 103.286 27.5346C103.286 25.9802 103.58 24.6183 104.168 23.4492C104.762 22.2801 105.598 21.3722 106.676 20.7256C107.754 20.079 109.027 19.7557 110.497 19.7557C111.967 19.7557 113.24 20.079 114.318 20.7256C115.396 21.3722 116.228 22.2801 116.816 23.4492C117.411 24.6183 117.708 25.9802 117.708 27.5346C117.708 29.0891 117.411 30.4477 116.816 31.6103C116.228 32.7728 115.396 33.6775 114.318 34.3241C113.24 34.9707 111.967 35.294 110.497 35.294ZM110.517 32.4528C111.313 32.4528 111.98 32.234 112.515 31.7964C113.051 31.3523 113.449 30.7579 113.71 30.0133C113.978 29.2687 114.112 28.4392 114.112 27.5248C114.112 26.6039 113.978 25.7711 113.71 25.0266C113.449 24.2754 113.051 23.6778 112.515 23.2337C111.98 22.7895 111.313 22.5675 110.517 22.5675C109.7 22.5675 109.021 22.7895 108.479 23.2337C107.943 23.6778 107.542 24.2754 107.274 25.0266C107.012 25.7711 106.882 26.6039 106.882 27.5248C106.882 28.4392 107.012 29.2687 107.274 30.0133C107.542 30.7579 107.943 31.3523 108.479 31.7964C109.021 32.234 109.7 32.4528 110.517 32.4528Z" fill="#3796F6"/>
<path d="M120.875 35.0001V14.9355H128.399C129.94 14.9355 131.233 15.2229 132.279 15.7976C133.33 16.3724 134.124 17.1627 134.659 18.1686C135.201 19.1679 135.472 20.3043 135.472 21.578C135.472 22.8647 135.201 24.0077 134.659 25.007C134.117 26.0063 133.317 26.7933 132.259 27.3681C131.201 27.9363 129.898 28.2204 128.35 28.2204H123.363V25.2323H127.86C128.761 25.2323 129.499 25.0755 130.074 24.762C130.649 24.4485 131.073 24.0175 131.348 23.4688C131.629 22.9202 131.769 22.2899 131.769 21.578C131.769 20.866 131.629 20.239 131.348 19.6969C131.073 19.1548 130.646 18.7335 130.064 18.4331C129.49 18.1261 128.748 17.9726 127.84 17.9726H124.509V35.0001H120.875Z" fill="#3796F6"/>
<path d="M138.473 35.0001V19.9516H141.912V22.4597H142.068C142.343 21.591 142.813 20.9216 143.479 20.4513C144.152 19.9745 144.919 19.7361 145.781 19.7361C145.977 19.7361 146.196 19.7459 146.438 19.7655C146.686 19.7786 146.892 19.8014 147.055 19.8341V23.0965C146.905 23.0443 146.666 22.9986 146.34 22.9594C146.02 22.9136 145.71 22.8908 145.409 22.8908C144.763 22.8908 144.181 23.0312 143.665 23.3121C143.156 23.5864 142.754 23.9685 142.46 24.4583C142.166 24.9482 142.019 25.5132 142.019 26.1532V35.0001H138.473Z" fill="#3796F6"/>
<path d="M155.356 35.294C153.886 35.294 152.612 34.9707 151.535 34.3241C150.457 33.6775 149.621 32.7728 149.027 31.6103C148.439 30.4477 148.145 29.0891 148.145 27.5346C148.145 25.9802 148.439 24.6183 149.027 23.4492C149.621 22.2801 150.457 21.3722 151.535 20.7256C152.612 20.079 153.886 19.7557 155.356 19.7557C156.825 19.7557 158.099 20.079 159.177 20.7256C160.254 21.3722 161.087 22.2801 161.675 23.4492C162.269 24.6183 162.566 25.9802 162.566 27.5346C162.566 29.0891 162.269 30.4477 161.675 31.6103C161.087 32.7728 160.254 33.6775 159.177 34.3241C158.099 34.9707 156.825 35.294 155.356 35.294ZM155.375 32.4528C156.172 32.4528 156.838 32.234 157.374 31.7964C157.909 31.3523 158.308 30.7579 158.569 30.0133C158.837 29.2687 158.971 28.4392 158.971 27.5248C158.971 26.6039 158.837 25.7711 158.569 25.0266C158.308 24.2754 157.909 23.6778 157.374 23.2337C156.838 22.7895 156.172 22.5675 155.375 22.5675C154.559 22.5675 153.88 22.7895 153.337 23.2337C152.802 23.6778 152.4 24.2754 152.132 25.0266C151.871 25.7711 151.741 26.6039 151.741 27.5248C151.741 28.4392 151.871 29.2687 152.132 30.0133C152.4 30.7579 152.802 31.3523 153.337 31.7964C153.88 32.234 154.559 32.4528 155.375 32.4528Z" fill="#3796F6"/>
</svg>
