<svg width="340" height="38" viewBox="0 0 340 38" fill="none" xmlns="http://www.w3.org/2000/svg">
<path fill-rule="evenodd" clip-rule="evenodd" d="M19.72 9.85625C19.6673 9.86238 19.5075 9.87999 19.3648 9.89537C17.7981 10.0643 16.2086 10.9487 15.2942 12.1602C14.5687 13.1214 14.2219 14.2131 14.2188 15.5455C14.2146 17.3118 14.7637 18.6564 15.9466 19.7765C16.8884 20.6683 18.0078 21.1514 19.4312 21.2803C19.8669 21.3198 20.7675 21.2973 21.1692 21.237C22.4544 21.0438 23.5188 20.496 24.6417 19.4499L24.9015 19.2079L24.5011 18.7929C24.2809 18.5646 23.9598 18.2323 23.7875 18.0544L23.4742 17.731L23.2626 17.9259C22.6578 18.4832 22.0818 18.8621 21.552 19.0513C21.1248 19.2038 20.8118 19.2579 20.2668 19.2736C19.5378 19.2946 19.0848 19.2163 18.4946 18.9673C17.4038 18.5069 16.6744 17.6345 16.4121 16.4761C16.1788 15.4462 16.3668 14.3225 16.9046 13.5326C17.5927 12.522 18.6202 11.945 19.8567 11.875C21.0519 11.8074 22.1447 12.2255 23.1737 13.1442L23.4828 13.4201L23.9871 12.9459C24.2644 12.685 24.5948 12.3728 24.7213 12.252L24.9512 12.0324L24.7076 11.7826C23.7013 10.7509 22.3396 10.0765 20.8957 9.89469C20.6454 9.86316 19.8765 9.83802 19.72 9.85625ZM52.0256 9.8706C50.5467 10.0084 49.3808 10.5278 48.4012 11.4853C48.0704 11.8086 47.8456 12.08 47.5801 12.4765C46.1513 14.61 46.4589 17.6656 48.2933 19.5606C49.1824 20.4791 50.2899 21.0328 51.6565 21.2422C52.1097 21.3117 53.2695 21.311 53.6936 21.241C54.8874 21.0441 55.789 20.5979 56.5707 19.817C56.8856 19.5024 57.0242 19.333 57.2838 18.9449C57.912 18.0063 58.2627 16.7924 58.1999 15.7747L58.1832 15.505H55.3984H52.6135V16.4896V17.4742H54.2122C55.7233 17.4742 55.81 17.4768 55.7933 17.5214C55.7836 17.5473 55.7097 17.6778 55.6291 17.8114C55.0246 18.8125 54.1155 19.2818 52.7817 19.2813C51.8411 19.281 51.1115 19.0638 50.4131 18.5761C49.5562 17.9779 48.983 17.0696 48.8412 16.085C48.806 15.8413 48.8062 15.2214 48.8414 14.979C48.9939 13.9299 49.6132 13.0138 50.5709 12.4207C51.829 11.6415 53.6724 11.6939 54.965 12.5456C55.2474 12.7316 55.5174 12.9455 55.7443 13.1628L55.9357 13.3461L56.6739 12.617L57.4122 11.8879L57.0978 11.5853C56.2107 10.732 55.3448 10.2649 54.1902 10.017C53.4434 9.85668 52.7086 9.80697 52.0256 9.8706ZM64.7538 9.88126C63.3853 10.0326 62.1628 10.6246 61.212 11.5966C60.7637 12.0549 60.4542 12.4922 60.1732 13.0638C59.9802 13.4568 59.8925 13.6862 59.7951 14.0537C59.3852 15.6003 59.6229 17.2968 60.4288 18.5756C60.7684 19.1146 61.3704 19.7849 61.8444 20.1519C62.5286 20.6818 63.3376 21.0427 64.2095 21.2072C65.0023 21.3568 66.0843 21.3292 66.8455 21.1399C68.0824 20.8325 69.1861 20.0875 70.014 19.0013C70.5886 18.2472 70.9647 17.2915 71.0732 16.3096C71.1149 15.9316 71.0893 14.8933 71.0304 14.5744C70.8975 13.8556 70.675 13.2554 70.3232 12.6673C69.8569 11.8878 69.1107 11.1389 68.3149 10.652C67.2805 10.0191 66.0047 9.74296 64.7538 9.88126ZM30.1792 10.1363C30.1701 10.1507 30.0907 10.3479 30.0026 10.5746C29.8129 11.0626 29.5308 11.7846 29.167 12.7132C29.0217 13.0841 28.7512 13.776 28.5658 14.2507C28.3804 14.7255 28.0787 15.4963 27.8954 15.9636C27.7121 16.4309 27.5032 16.965 27.4312 17.1505C27.3593 17.3359 27.0887 18.0278 26.8301 18.688C26.1245 20.489 25.9268 20.9988 25.9268 21.0177C25.9268 21.0271 26.4171 21.0348 27.0163 21.0348H28.1058L28.5543 19.9156L29.0029 18.7964L31.2621 18.7962L33.5213 18.7959L33.7272 19.3287C33.8404 19.6217 34.0344 20.1255 34.1583 20.4481L34.3835 21.0348H35.4734C36.0728 21.0348 36.5632 21.0263 36.5632 21.0158C36.5632 21.0054 36.4447 20.6928 36.2999 20.3212C35.7985 19.0351 35.7097 18.8071 35.5113 18.2969C35.4017 18.015 34.9706 16.9104 34.5534 15.8422C34.1362 14.774 33.7361 13.7483 33.6642 13.5629C33.5924 13.3774 33.3344 12.7159 33.091 12.0928C32.8475 11.4697 32.5741 10.7687 32.4833 10.535L32.3183 10.1101H31.2569C30.6012 10.1101 30.1893 10.1201 30.1792 10.1363ZM38.3679 15.5696V21.0348H39.4206H40.4733V18.7269V16.4189L40.572 16.4273C40.6702 16.4356 40.6721 16.4383 40.9424 16.9347C41.0919 17.2092 41.3052 17.6037 41.4164 17.8114C41.5276 18.0191 41.9625 18.8263 42.3829 19.6052L43.1472 21.0213L44.2984 21.0284C44.9316 21.0322 45.4497 21.0287 45.4497 21.0204C45.4497 21.0079 44.7903 19.778 44.4378 19.1331C44.3811 19.0293 44.2396 18.7683 44.1235 18.5532C44.0074 18.338 43.8661 18.0771 43.8094 17.9732C43.7528 17.8694 43.5497 17.4931 43.3581 17.137C43.1665 16.7809 42.9741 16.4257 42.9305 16.3476L42.8512 16.2056L42.9268 16.1744C43.4722 15.9491 43.8449 15.7193 44.1387 15.4272C44.5866 14.9819 44.8232 14.4831 44.9172 13.7858C44.9874 13.2662 44.9495 12.7394 44.8074 12.2573C44.5403 11.3512 43.8912 10.6572 43.054 10.3825C42.4117 10.1718 41.972 10.1338 39.9879 10.1176L38.3679 10.1043V15.5696ZM66.1165 11.9435C67.1653 12.1544 68.0996 12.8813 68.5964 13.8731C68.906 14.4911 69.0079 14.9815 68.9833 15.7343C68.949 16.7815 68.6141 17.5554 67.886 18.2699C67.3468 18.7991 66.7349 19.1178 66.0252 19.2392C65.7031 19.2943 65.0859 19.2941 64.7518 19.2388C64.01 19.116 63.3266 18.7636 62.7692 18.2167C62.1699 17.6287 61.8438 16.9423 61.7475 16.0658C61.5966 14.6931 62.0931 13.4223 63.0868 12.638C63.6455 12.197 64.2308 11.9648 64.9999 11.8789C65.2273 11.8536 65.8474 11.8894 66.1165 11.9435ZM42.0668 12.2238C42.4157 12.321 42.6612 12.5145 42.8043 12.8052C42.8868 12.9729 42.8917 12.9997 42.8905 13.2796C42.889 13.6642 42.827 13.8382 42.6204 14.0382C42.3579 14.2923 42.039 14.3667 41.109 14.3905L40.4733 14.4067V13.2806V12.1544L41.191 12.1671C41.7409 12.1768 41.9457 12.1901 42.0668 12.2238ZM31.6635 14.0349C31.8746 14.569 32.2021 15.3975 32.3913 15.876C32.5805 16.3545 32.7352 16.752 32.7352 16.7594C32.7352 16.7668 32.0695 16.7728 31.2558 16.7728C30.0834 16.7728 29.7791 16.7659 29.7895 16.7391C29.819 16.6637 30.5735 14.7637 30.8687 14.0214C31.2423 13.0823 31.2592 13.0416 31.2708 13.0542C31.2757 13.0595 31.4524 13.5008 31.6635 14.0349ZM15.2862 23.5526C14.9239 23.6856 14.699 23.9349 14.6332 24.2765C14.5523 24.6972 14.7768 25.0585 15.4682 25.6196C16.0608 26.1006 16.1715 26.2734 16.0318 26.4993C15.9114 26.6941 15.5532 26.7334 15.3524 26.5739C15.2604 26.5008 15.1345 26.3545 15.058 26.2318C15.0342 26.1936 14.9935 26.2106 14.7436 26.3632C14.5857 26.4596 14.4579 26.5551 14.4597 26.5754C14.4662 26.6485 14.6685 26.9158 14.8265 27.0601C15.0705 27.283 15.2226 27.3336 15.6459 27.3326C16.0887 27.3316 16.2393 27.2787 16.4822 27.039C16.6957 26.8284 16.7729 26.6443 16.7773 26.3353C16.7835 25.898 16.6459 25.6891 15.9824 25.1281C15.4344 24.6648 15.3178 24.5435 15.3178 24.4372C15.3178 24.2621 15.5228 24.1364 15.7219 24.1893C15.8524 24.2239 16.0279 24.3459 16.109 24.4582C16.142 24.504 16.1837 24.5411 16.2014 24.5407C16.2192 24.5402 16.3445 24.4384 16.4798 24.3143L16.7259 24.0887L16.527 23.8983C16.4005 23.7774 16.2614 23.6756 16.1452 23.6192C15.9785 23.5382 15.9371 23.5298 15.6743 23.5232C15.4819 23.5183 15.3529 23.5281 15.2862 23.5526ZM53.5154 23.5658C52.8505 23.7482 52.3355 24.2192 52.139 24.8247C52.0685 25.0418 52.0384 25.4018 52.0685 25.6677C52.1547 26.4304 52.619 27.0108 53.3384 27.2553C53.526 27.3191 53.6116 27.3312 53.9453 27.3412C54.4092 27.3551 54.6322 27.3153 54.9553 27.1609C55.1523 27.0669 55.5256 26.8015 55.6191 26.6891C55.6542 26.6469 55.6345 26.6191 55.4165 26.4031L55.1751 26.1638L54.9949 26.3148C54.8957 26.3978 54.7239 26.5082 54.613 26.5602C54.4326 26.6448 54.3815 26.656 54.1262 26.6672C53.7788 26.6824 53.561 26.6326 53.3305 26.4851C53.0172 26.2846 52.8341 25.996 52.781 25.6187C52.6811 24.9107 53.1356 24.2974 53.84 24.1896C54.2289 24.1301 54.6993 24.2794 55.0222 24.5648L55.175 24.7L55.4297 24.465L55.6844 24.2299L55.5093 24.0728C55.2851 23.8717 54.9827 23.6961 54.7052 23.6059C54.4101 23.51 53.7944 23.4892 53.5154 23.5658ZM69.0699 23.5669C68.7918 23.6768 68.5525 23.9193 68.4721 24.1729C68.4205 24.3356 68.4486 24.6375 68.5318 24.8148C68.615 24.9919 68.8909 25.2889 69.2346 25.5715C69.5536 25.8336 69.8081 26.0772 69.8553 26.1654C69.9128 26.2729 69.9045 26.4366 69.8372 26.521C69.7536 26.6258 69.6426 26.6725 69.4771 26.6725C69.2835 26.6725 69.1182 26.5699 68.9637 26.3539L68.8486 26.1927L68.5532 26.3715L68.2577 26.5503L68.3309 26.6806C68.4637 26.9173 68.6742 27.1198 68.9033 27.2316L69.1121 27.3334H69.469C69.7989 27.3334 69.8377 27.3279 69.9821 27.2611C70.3898 27.0726 70.6045 26.744 70.6045 26.3083C70.6046 25.9128 70.451 25.6745 69.8942 25.2066C69.3584 24.7562 69.1865 24.5922 69.1566 24.5029C69.0981 24.3281 69.2242 24.1838 69.4379 24.1809C69.5951 24.1787 69.7348 24.2526 69.8879 24.419L70.0173 24.5596L70.2864 24.3283L70.5555 24.0969L70.3527 23.9051C70.2231 23.7826 70.0818 23.6802 69.9613 23.6217C69.7876 23.5372 69.75 23.5295 69.4849 23.5233C69.2564 23.518 69.1708 23.527 69.0699 23.5669ZM22.2629 25.4317V27.2659H23.2882H24.3136V26.9288V26.5916H23.6431H22.9726L22.98 26.0993L22.9875 25.607L23.6505 25.5998L24.3136 25.5925V25.2698V24.9471L23.6505 24.9399L22.9875 24.9326L22.9798 24.6022L22.9721 24.2718H23.6428H24.3136V23.9346V23.5974H23.2882H22.2629V25.4317ZM29.8095 25.4317V27.2659H30.165H30.5204V26.4837C30.5204 25.8572 30.5276 25.7014 30.5562 25.7014C30.5928 25.7014 30.6084 25.7281 30.966 26.4028C31.08 26.6179 31.2287 26.8971 31.2964 27.0232L31.4194 27.2525L31.8039 27.2599C32.0154 27.2641 32.1884 27.2597 32.1884 27.2504C32.1884 27.2352 31.8515 26.5982 31.4741 25.8996C31.4007 25.7639 31.3407 25.6457 31.3407 25.6371C31.3407 25.6285 31.4034 25.5901 31.4799 25.5518C31.6766 25.4535 31.8466 25.2891 31.9349 25.1118C32.0043 24.9723 32.0106 24.9338 32.0106 24.6494C32.0106 24.3699 32.0034 24.3241 31.9379 24.1861C31.7882 23.8712 31.5389 23.6888 31.1744 23.6276C31.0754 23.611 30.7279 23.5974 30.402 23.5974H29.8095V25.4317ZM37.4095 23.9675C37.6062 24.5173 37.9771 25.5488 38.067 25.7958C38.1102 25.9145 38.2127 26.1998 38.2948 26.4297C38.3769 26.6597 38.4777 26.9419 38.5189 27.0569L38.5937 27.2659H38.9393H39.2849L39.8649 25.6812C40.6391 23.5655 40.61 23.6463 40.61 23.6194C40.61 23.6065 40.4481 23.5992 40.2502 23.6034L39.8904 23.6109L39.8009 23.8537C39.7517 23.9872 39.5421 24.5607 39.3352 25.1282C39.1283 25.6957 38.9521 26.1598 38.9437 26.1596C38.9353 26.1594 38.8323 25.8894 38.7148 25.5595C38.5974 25.2295 38.4659 24.8625 38.4227 24.7438C38.3795 24.6251 38.2708 24.3217 38.181 24.0695L38.0179 23.6109L37.6473 23.6034L37.2766 23.5959L37.4095 23.9675ZM45.9418 25.4317V27.2659H46.2973H46.6528V25.4317V23.5974H46.2973H45.9418V25.4317ZM61.0898 25.4317V27.2659H62.1152H63.1405V26.9288V26.5916H62.47H61.7995L61.8069 26.0993L61.8144 25.607L62.4775 25.5998L63.1405 25.5925V25.2693V24.9461H62.4706H61.8007V24.6089V24.2718H62.4706H63.1405V23.9346V23.5974H62.1152H61.0898V25.4317ZM31.1381 24.3269C31.3243 24.4158 31.3923 24.6284 31.2976 24.8253C31.2354 24.9546 31.1099 25.0029 30.7908 25.0202L30.5204 25.0349V24.6533V24.2718H30.7715C30.9686 24.2718 31.0475 24.2836 31.1381 24.3269Z" fill="#083556"/>
<path d="M0 20.7812V15.3125V9.84375H2.79285H5.58569V10.3839V10.924H3.35692H1.12814V12.6389V14.3538H3.35692H5.58569V14.8939V15.434H3.35692H1.12814V18.1076V20.7812H0.564072H0Z" fill="#0974B4"/>
<path d="M7.53931 20.7812V15.3125V9.84375H10.3322H13.125V10.3839V10.924H10.8962H8.66745V12.6389V14.3538H10.8962H13.125V14.8939V15.434H10.8962H8.66745V18.1076V20.7812H8.10338H7.53931Z" fill="#0974B4"/>
<path fill-rule="evenodd" clip-rule="evenodd" d="M94.1033 0.0144055C93.551 0.077214 93.0459 0.226249 92.6524 0.442494C92.5084 0.521634 91.2316 1.24489 89.8152 2.04971C88.3987 2.85457 87.1258 3.57749 86.9865 3.65621C86.7294 3.80154 82.7622 6.05332 82.2721 6.33215C82.125 6.4158 81.4601 6.79337 80.7944 7.17116C79.3836 7.97189 79.3241 8.0097 79.0119 8.30437C78.4684 8.81727 77.9696 9.63807 77.7828 10.327C77.6506 10.8142 77.6562 10.4458 77.6563 18.5898C77.6563 25.3834 77.6613 26.2712 77.7 26.4893C77.8713 27.4522 78.5039 28.5035 79.2771 29.1102C79.3713 29.1842 79.7197 29.3989 80.0511 29.5873C80.3825 29.7757 80.7804 30.002 80.9352 30.0903C81.09 30.1785 82.0842 30.7435 83.1446 31.3457C84.205 31.9479 85.9529 32.9406 87.0287 33.5518C93.2555 37.0888 92.9443 36.9182 93.3813 37.0359C93.8685 37.1671 94.5626 37.2203 95.0926 37.1671C95.4587 37.1303 95.8927 37.0314 96.1967 36.9154C96.4039 36.8364 96.5229 36.7728 97.4005 36.2726C97.7016 36.101 98.6017 35.5896 101.411 33.9942C101.496 33.9459 102.51 33.3704 103.663 32.7155C104.816 32.0605 106.621 31.0357 107.674 30.4383C108.726 29.8409 109.676 29.2945 109.785 29.2242C110.048 29.0532 110.501 28.6018 110.734 28.2781C111.098 27.7707 111.407 27.0797 111.519 26.5204C111.577 26.2315 111.577 10.9481 111.519 10.6591C111.359 9.85617 110.885 8.98106 110.291 8.38763C109.894 7.99121 110.165 8.15542 106.281 5.95222C105.158 5.31564 103.961 4.63673 103.621 4.44352C102.694 3.91775 98.9428 1.78852 97.6116 1.03257C96.2437 0.255785 96.0416 0.16596 95.4162 0.0567023C95.1293 0.00657179 94.3834 -0.0174554 94.1033 0.0144055ZM95.1066 1.52366C95.5801 1.57377 95.9718 1.67115 96.331 1.82799C96.4084 1.86181 97.3013 2.36019 98.3153 2.93548C100.218 4.01516 100.506 4.17903 100.961 4.43876C101.193 4.57138 105.352 6.93224 105.774 7.17091C107.632 8.22202 108.385 8.65764 108.546 8.77575C109.322 9.34402 109.957 10.3488 110.183 11.365C110.233 11.5907 110.235 11.8864 110.235 18.5898C110.235 25.2932 110.233 25.5889 110.183 25.8146C110.04 26.4599 109.751 27.0727 109.332 27.6213C109.123 27.8943 108.666 28.335 108.438 28.4824C108.348 28.5409 107.632 28.953 106.848 29.3982C106.064 29.8433 104.441 30.7651 103.241 31.4465C102.041 32.1279 100.148 33.2026 99.033 33.8345C97.9184 34.4665 96.9051 35.0429 96.7813 35.1154C96.4716 35.2968 96.3692 35.345 96.084 35.4439C95.8479 35.5258 95.3022 35.6492 95.2787 35.6261C95.2725 35.62 95.2886 35.3438 95.3145 35.0123C95.3684 34.3203 95.4027 33.8584 95.4425 33.2884C95.458 33.0677 95.4838 32.7002 95.4999 32.4719C95.516 32.2435 95.5544 31.6643 95.5854 31.1847C95.6163 30.7051 95.6539 30.1446 95.6691 29.939C95.6842 29.7335 95.7105 29.3598 95.7275 29.1086C95.7445 28.8574 95.7957 28.1723 95.8414 27.5861C95.9522 26.1627 95.9734 25.8072 95.9939 25.0248C96.0124 24.3168 96.0812 23.1137 96.11 22.9941C96.1477 22.8377 96.1941 22.8172 96.4631 22.8378C96.6728 22.8539 96.7259 22.8487 96.8338 22.8018C97.0783 22.6955 97.8969 22.2083 97.9401 22.1435C98.013 22.0341 97.9809 21.7376 97.8729 21.5222C97.7596 21.2965 97.5385 21.0517 97.3873 20.9846C97.2843 20.9389 97.2582 20.9371 97.1666 20.9693C97.1095 20.9894 97.0121 21.0394 96.9502 21.0805C96.762 21.2052 96.2795 21.4641 96.1996 21.4832C96.0855 21.5105 96.0224 21.4008 96.0449 21.2142C96.1179 20.6082 96.5338 20.1199 97.5989 19.3895C97.9232 19.167 98.3342 18.8932 98.5123 18.781C100.106 17.7766 102.596 16.0398 103.902 15.0223C105.051 14.1273 105.971 13.2967 106.217 12.9332C106.451 12.5867 106.561 12.2184 106.522 11.9109C106.504 11.7731 106.492 11.7538 106.364 11.6579C105.977 11.3678 105.428 11.3329 104.634 11.5483C103.966 11.7294 102.421 12.3016 101.425 12.7366C100.36 13.202 99.9306 13.3922 99.6522 13.5222C99.4664 13.6089 99.1434 13.7597 98.9345 13.8574C98.3648 14.1235 96.7493 14.9143 96.3169 15.1386C95.6998 15.4587 94.803 15.8738 94.5148 15.9726C94.1068 16.1126 93.8188 16.1621 93.5035 16.1465C93.1864 16.1308 92.971 16.0701 92.8478 15.9618C92.7088 15.8397 92.7548 15.7828 93.2053 15.5191C93.415 15.3962 93.5967 15.2957 93.6089 15.2957C93.6211 15.2957 93.6737 15.2607 93.7258 15.218C93.8076 15.1508 93.8222 15.1195 93.8333 14.988C93.857 14.7067 93.597 14.2219 93.3284 14.0466C93.1253 13.9141 93.0746 13.9275 92.4743 14.2719C92.1821 14.4396 91.9137 14.6039 91.8779 14.637C91.842 14.6701 91.7862 14.7687 91.7538 14.856C91.677 15.0632 91.5926 15.1429 91.4746 15.1197C91.3786 15.1009 90.1497 14.5119 89.6745 14.2571C89.376 14.097 87.9995 13.4134 87.9756 13.4134C87.9686 13.4134 87.8381 13.3559 87.6857 13.2858C87.5334 13.2155 87.2377 13.0799 87.0287 12.9843C86.635 12.8043 84.1807 11.6467 83.2431 11.1987C82.949 11.0581 82.607 10.8963 82.4832 10.839C82.3593 10.7817 82.068 10.6446 81.8358 10.5344C81.1761 10.221 80.6592 9.97891 80.2404 9.78705C79.9269 9.64341 79.8596 9.60259 79.8788 9.5674C79.8918 9.54365 79.9987 9.4161 80.1166 9.28395C80.3206 9.05511 80.6477 8.77287 80.8635 8.63953C80.9452 8.58902 83.8186 6.95525 85.1993 6.17428C85.3928 6.06483 86.406 5.48984 87.4509 4.89652C92.0468 2.28691 92.6798 1.92883 92.8127 1.86345C93.2529 1.64693 93.9342 1.50107 94.5718 1.4869C94.657 1.48499 94.8976 1.50155 95.1066 1.52366ZM79.3322 10.7257C79.3469 10.7395 79.4856 10.822 79.6404 10.9091C81.5879 12.0042 83.1229 13.0044 85.1148 14.476C85.9869 15.1202 86.6445 15.6344 87.1554 16.0716C87.6737 16.5151 89.3538 18.1773 89.5034 18.3947C89.7635 18.7725 89.8026 18.999 89.6531 19.2618C89.5631 19.4199 89.4691 19.4956 88.8551 19.9046C88.0701 20.4276 87.2191 21.0509 86.2393 21.8208C86.1028 21.928 85.9436 21.9766 85.7306 21.9761C85.5628 21.9757 85.4821 21.9396 84.2564 21.3166C82.6876 20.5192 82.0139 20.1936 81.9019 20.1785C81.6966 20.1508 81.5628 20.2059 81.2935 20.4291C80.9235 20.7358 80.8535 20.8152 80.8535 20.9281C80.8535 20.9914 80.8818 21.061 80.9366 21.1325C80.9822 21.1922 81.5262 21.7854 82.1454 22.4508C82.7646 23.1161 83.3019 23.7106 83.3393 23.7717C83.4258 23.9132 83.4291 24.0839 83.3479 24.2121C83.3153 24.2637 83.1912 24.3869 83.0723 24.4859C82.5807 24.895 82.2155 25.3458 82.2159 25.5429C82.216 25.5781 82.2461 25.6438 82.2827 25.6889C82.3432 25.7632 82.368 25.7719 82.5487 25.7819C82.7958 25.7956 83.0503 25.7421 83.5937 25.5621C83.818 25.4878 84.0436 25.427 84.0952 25.427C84.2142 25.427 84.3285 25.4851 84.4202 25.5922C84.4933 25.6777 84.5357 25.7983 85.2826 28.0486C85.585 28.9595 85.6344 29.0867 85.7096 29.1489C85.7564 29.1877 85.8243 29.2193 85.8604 29.2193C85.8966 29.2193 86.0942 29.161 86.2993 29.0898C86.7126 28.9463 86.8364 28.8634 86.9221 28.6727C86.977 28.5508 86.9786 28.5224 87.1126 25.3754C87.1386 24.7662 87.1503 24.6554 87.2013 24.539C87.2757 24.3688 87.4821 24.1778 87.6628 24.1119C88.0094 23.9856 89.0815 23.541 89.4685 23.3631C89.6156 23.2955 89.7401 23.2402 89.7452 23.2402C89.7503 23.2402 90.0816 23.0831 90.4814 22.891C90.8813 22.699 91.2575 22.5246 91.3175 22.5035C91.5658 22.4161 91.8862 22.4974 92.0513 22.6895C92.1939 22.8555 92.3414 23.2107 92.5444 23.8769C93.0974 25.6916 93.3225 26.8107 93.6273 29.2608C93.6519 29.4588 93.6845 29.7204 93.6998 29.8422C93.7865 30.5331 93.8811 31.5929 93.9372 32.4995C93.9718 33.0601 94.0371 35.0419 94.0371 35.5334V35.649L93.8872 35.6316C93.6579 35.6051 93.2268 35.4908 92.9891 35.3935C92.8718 35.3455 92.0177 34.8759 91.0914 34.35C90.165 33.8242 88.5395 32.9012 87.4791 32.299C86.4187 31.6968 85.4371 31.1396 85.2978 31.0608C83.1283 29.8336 80.9331 28.583 80.8226 28.5113C80.4391 28.2626 80.0049 27.818 79.703 27.3647C79.5261 27.0991 79.2572 26.5555 79.1637 26.2742C79.1237 26.1539 79.0658 25.934 79.035 25.7854C78.98 25.52 78.979 25.3937 78.979 18.6113C78.979 14.0437 78.9887 11.6518 79.0077 11.5431C79.0473 11.3165 79.0856 11.1658 79.1671 10.9152C79.2333 10.7119 79.2712 10.6684 79.3322 10.7257Z" fill="#0974B4"/>
<path d="M119.062 24.1534V14.3097H120.422V15.4702H120.539C120.62 15.3211 120.736 15.1486 120.889 14.9529C121.041 14.7571 121.252 14.5862 121.522 14.4402C121.793 14.291 122.15 14.2165 122.594 14.2165C123.172 14.2165 123.688 14.3625 124.142 14.6546C124.596 14.9467 124.951 15.3677 125.209 15.9177C125.47 16.4677 125.601 17.1295 125.601 17.9032C125.601 18.6769 125.472 19.3403 125.214 19.8934C124.956 20.4434 124.602 20.8675 124.151 21.1658C123.701 21.461 123.186 21.6086 122.608 21.6086C122.173 21.6086 121.818 21.5356 121.541 21.3895C121.268 21.2435 121.053 21.0726 120.898 20.8769C120.743 20.6811 120.623 20.5071 120.539 20.3548H120.455V24.1534H119.062ZM120.427 17.8892C120.427 18.3926 120.5 18.8338 120.646 19.2129C120.792 19.592 121.004 19.8887 121.28 20.1031C121.557 20.3144 121.895 20.4201 122.296 20.4201C122.713 20.4201 123.061 20.3098 123.34 20.0892C123.62 19.8654 123.831 19.5625 123.974 19.1803C124.12 18.7981 124.193 18.3678 124.193 17.8892C124.193 17.4169 124.122 16.9928 123.979 16.6168C123.839 16.2408 123.628 15.9441 123.345 15.7266C123.065 15.5091 122.716 15.4003 122.296 15.4003C121.892 15.4003 121.55 15.5044 121.271 15.7126C120.994 15.9208 120.784 16.2113 120.642 16.5842C120.499 16.9571 120.427 17.3921 120.427 17.8892Z" fill="#083556"/>
<path d="M130.178 21.6133C129.507 21.6133 128.921 21.4595 128.421 21.1518C127.92 20.8442 127.532 20.4139 127.255 19.8608C126.979 19.3077 126.841 18.6614 126.841 17.9219C126.841 17.1792 126.979 16.5298 127.255 15.9736C127.532 15.4174 127.92 14.9855 128.421 14.6779C128.921 14.3703 129.507 14.2165 130.178 14.2165C130.849 14.2165 131.435 14.3703 131.935 14.6779C132.435 14.9855 132.824 15.4174 133.1 15.9736C133.377 16.5298 133.515 17.1792 133.515 17.9219C133.515 18.6614 133.377 19.3077 133.1 19.8608C132.824 20.4139 132.435 20.8442 131.935 21.1518C131.435 21.4595 130.849 21.6133 130.178 21.6133ZM130.182 20.4434C130.617 20.4434 130.978 20.3284 131.264 20.0985C131.55 19.8686 131.761 19.5625 131.898 19.1803C132.037 18.7981 132.107 18.3771 132.107 17.9172C132.107 17.4604 132.037 17.041 131.898 16.6588C131.761 16.2735 131.55 15.9643 131.264 15.7313C130.978 15.4982 130.617 15.3817 130.182 15.3817C129.744 15.3817 129.381 15.4982 129.092 15.7313C128.806 15.9643 128.593 16.2735 128.453 16.6588C128.316 17.041 128.248 17.4604 128.248 17.9172C128.248 18.3771 128.316 18.7981 128.453 19.1803C128.593 19.5625 128.806 19.8686 129.092 20.0985C129.381 20.3284 129.744 20.4434 130.182 20.4434Z" fill="#083556"/>
<path d="M136.405 21.4688L134.298 14.3097H135.738L137.141 19.5672H137.211L138.619 14.3097H140.059L141.457 19.5438H141.527L142.92 14.3097H144.361L142.259 21.4688H140.837L139.383 16.2999H139.276L137.822 21.4688H136.405Z" fill="#083556"/>
<path d="M148.551 21.6133C147.845 21.6133 147.238 21.4626 146.728 21.1612C146.222 20.8567 145.83 20.4294 145.554 19.8794C145.28 19.3263 145.144 18.6785 145.144 17.9358C145.144 17.2025 145.28 16.5562 145.554 15.9969C145.83 15.4376 146.216 15.0011 146.71 14.6872C147.207 14.3734 147.788 14.2165 148.453 14.2165C148.857 14.2165 149.248 14.2833 149.627 14.4169C150.007 14.5505 150.347 14.7602 150.648 15.0461C150.95 15.332 151.187 15.7033 151.361 16.1601C151.535 16.6137 151.622 17.1652 151.622 17.8147V18.3087H145.931V17.2647H150.257C150.257 16.898 150.182 16.5733 150.033 16.2906C149.884 16.0047 149.674 15.7794 149.404 15.6147C149.137 15.4501 148.823 15.3677 148.462 15.3677C148.071 15.3677 147.729 15.464 147.437 15.6567C147.148 15.8462 146.924 16.0948 146.766 16.4024C146.61 16.7069 146.533 17.0379 146.533 17.3952V18.2108C146.533 18.6894 146.617 19.0964 146.784 19.432C146.955 19.7676 147.193 20.0239 147.497 20.201C147.802 20.375 148.158 20.462 148.565 20.462C148.829 20.462 149.07 20.4247 149.287 20.3502C149.505 20.2725 149.693 20.1575 149.851 20.0053C150.01 19.853 150.131 19.665 150.215 19.4413L151.534 19.679C151.428 20.0674 151.239 20.4077 150.965 20.6997C150.695 20.9887 150.355 21.214 149.944 21.3756C149.537 21.534 149.073 21.6133 148.551 21.6133Z" fill="#083556"/>
<path d="M153.169 21.4688V14.3097H154.516V15.4469H154.59C154.721 15.0616 154.951 14.7587 155.28 14.5381C155.612 14.3144 155.988 14.2025 156.408 14.2025C156.495 14.2025 156.597 14.2056 156.715 14.2118C156.837 14.218 156.931 14.2258 157 14.2351V15.5681C156.944 15.5526 156.844 15.5355 156.702 15.5169C156.559 15.4951 156.416 15.4842 156.273 15.4842C155.943 15.4842 155.65 15.5541 155.392 15.694C155.137 15.8307 154.935 16.0218 154.786 16.2673C154.637 16.5096 154.562 16.7862 154.562 17.0969V21.4688H153.169Z" fill="#083556"/>
<path d="M161.035 21.6133C160.33 21.6133 159.722 21.4626 159.213 21.1612C158.706 20.8567 158.315 20.4294 158.038 19.8794C157.765 19.3263 157.628 18.6785 157.628 17.9358C157.628 17.2025 157.765 16.5562 158.038 15.9969C158.315 15.4376 158.7 15.0011 159.194 14.6872C159.691 14.3734 160.272 14.2165 160.937 14.2165C161.341 14.2165 161.733 14.2833 162.112 14.4169C162.491 14.5505 162.831 14.7602 163.132 15.0461C163.434 15.332 163.671 15.7033 163.845 16.1601C164.019 16.6137 164.106 17.1652 164.106 17.8147V18.3087H158.416V17.2647H162.741C162.741 16.898 162.666 16.5733 162.517 16.2906C162.368 16.0047 162.158 15.7794 161.888 15.6147C161.621 15.4501 161.307 15.3677 160.946 15.3677C160.555 15.3677 160.213 15.464 159.921 15.6567C159.632 15.8462 159.408 16.0948 159.25 16.4024C159.094 16.7069 159.017 17.0379 159.017 17.3952V18.2108C159.017 18.6894 159.101 19.0964 159.268 19.432C159.439 19.7676 159.677 20.0239 159.982 20.201C160.286 20.375 160.642 20.462 161.049 20.462C161.313 20.462 161.554 20.4247 161.771 20.3502C161.989 20.2725 162.177 20.1575 162.335 20.0053C162.494 19.853 162.615 19.665 162.699 19.4413L164.018 19.679C163.912 20.0674 163.723 20.4077 163.449 20.6997C163.179 20.9887 162.839 21.214 162.429 21.3756C162.022 21.534 161.557 21.6133 161.035 21.6133Z" fill="#083556"/>
<path d="M168.333 21.6086C167.755 21.6086 167.239 21.461 166.785 21.1658C166.335 20.8675 165.981 20.4434 165.723 19.8934C165.468 19.3403 165.34 18.6769 165.34 17.9032C165.34 17.1295 165.469 16.4677 165.727 15.9177C165.988 15.3677 166.346 14.9467 166.799 14.6546C167.253 14.3625 167.767 14.2165 168.342 14.2165C168.786 14.2165 169.144 14.291 169.414 14.4402C169.687 14.5862 169.899 14.7571 170.048 14.9529C170.2 15.1486 170.318 15.3211 170.402 15.4702H170.486V11.9233H171.88V21.4688H170.519V20.3548H170.402C170.318 20.5071 170.197 20.6811 170.039 20.8769C169.883 21.0726 169.669 21.2435 169.395 21.3895C169.122 21.5356 168.768 21.6086 168.333 21.6086ZM168.64 20.4201C169.041 20.4201 169.38 20.3144 169.656 20.1031C169.936 19.8887 170.147 19.592 170.29 19.2129C170.436 18.8338 170.509 18.3926 170.509 17.8892C170.509 17.3921 170.438 16.9571 170.295 16.5842C170.152 16.2113 169.942 15.9208 169.666 15.7126C169.389 15.5044 169.047 15.4003 168.64 15.4003C168.221 15.4003 167.871 15.5091 167.592 15.7266C167.312 15.9441 167.101 16.2408 166.958 16.6168C166.818 16.9928 166.748 17.4169 166.748 17.8892C166.748 18.3678 166.819 18.7981 166.962 19.1803C167.105 19.5625 167.317 19.8654 167.596 20.0892C167.879 20.3098 168.227 20.4201 168.64 20.4201Z" fill="#083556"/>
<path d="M177.454 21.4688V11.9233H178.848V15.4702H178.932C179.012 15.3211 179.129 15.1486 179.281 14.9529C179.433 14.7571 179.645 14.5862 179.915 14.4402C180.185 14.291 180.543 14.2165 180.987 14.2165C181.565 14.2165 182.081 14.3625 182.534 14.6546C182.988 14.9467 183.344 15.3677 183.602 15.9177C183.863 16.4677 183.993 17.1295 183.993 17.9032C183.993 18.6769 183.864 19.3403 183.606 19.8934C183.348 20.4434 182.994 20.8675 182.544 21.1658C182.093 21.461 181.579 21.6086 181.001 21.6086C180.566 21.6086 180.21 21.5356 179.934 21.3895C179.66 21.2435 179.446 21.0726 179.29 20.8769C179.135 20.6811 179.015 20.5071 178.932 20.3548H178.815V21.4688H177.454ZM178.82 17.8892C178.82 18.3926 178.893 18.8338 179.039 19.2129C179.185 19.592 179.396 19.8887 179.673 20.1031C179.949 20.3144 180.288 20.4201 180.689 20.4201C181.105 20.4201 181.453 20.3098 181.733 20.0892C182.012 19.8654 182.224 19.5625 182.367 19.1803C182.513 18.7981 182.586 18.3678 182.586 17.8892C182.586 17.4169 182.514 16.9928 182.371 16.6168C182.231 16.2408 182.02 15.9441 181.737 15.7266C181.458 15.5091 181.108 15.4003 180.689 15.4003C180.285 15.4003 179.943 15.5044 179.663 15.7126C179.387 15.9208 179.177 16.2113 179.034 16.5842C178.891 16.9571 178.82 17.3921 178.82 17.8892Z" fill="#083556"/>
<path d="M186.195 24.1534C185.987 24.1534 185.798 24.1364 185.627 24.1022C185.456 24.0711 185.329 24.0369 185.245 23.9996L185.58 22.8577C185.835 22.9261 186.062 22.9556 186.261 22.9463C186.46 22.937 186.635 22.8624 186.787 22.7226C186.943 22.5827 187.079 22.3543 187.198 22.0374L187.37 21.562L184.751 14.3097H186.242L188.055 19.8654H188.13L189.943 14.3097H191.439L188.489 22.4243C188.352 22.7971 188.178 23.1125 187.967 23.3704C187.755 23.6314 187.504 23.8272 187.212 23.9577C186.919 24.0882 186.581 24.1534 186.195 24.1534Z" fill="#083556"/>
<path d="M204.262 15.0275H202.808C202.752 14.7167 202.648 14.4433 202.496 14.2072C202.343 13.971 202.157 13.7706 201.936 13.6059C201.716 13.4412 201.469 13.3169 201.195 13.233C200.925 13.1491 200.638 13.1072 200.333 13.1072C199.783 13.1072 199.291 13.2455 198.856 13.522C198.424 13.7986 198.082 14.204 197.83 14.7385C197.582 15.2729 197.457 15.9255 197.457 16.6961C197.457 17.4729 197.582 18.1285 197.83 18.6629C198.082 19.1974 198.425 19.6013 198.86 19.8748C199.295 20.1482 199.785 20.2849 200.328 20.2849C200.63 20.2849 200.916 20.2445 201.186 20.1637C201.459 20.0798 201.706 19.9571 201.927 19.7955C202.148 19.634 202.334 19.4366 202.486 19.2036C202.642 18.9675 202.749 18.6971 202.808 18.3926L204.262 18.3973C204.184 18.8665 204.034 19.2984 203.81 19.693C203.589 20.0845 203.305 20.4232 202.957 20.7091C202.612 20.9918 202.218 21.2109 201.773 21.3662C201.329 21.5216 200.844 21.5993 200.319 21.5993C199.493 21.5993 198.756 21.4035 198.11 21.012C197.464 20.6174 196.954 20.0534 196.581 19.3201C196.211 18.5868 196.026 17.7121 196.026 16.6961C196.026 15.6769 196.213 14.8022 196.586 14.072C196.959 13.3387 197.468 12.7763 198.114 12.3848C198.761 11.9901 199.496 11.7928 200.319 11.7928C200.826 11.7928 201.298 11.8658 201.736 12.0119C202.177 12.1548 202.573 12.3661 202.924 12.6458C203.276 12.9223 203.566 13.261 203.796 13.6618C204.026 14.0596 204.181 14.5148 204.262 15.0275Z" fill="#083556"/>
<path d="M207.957 21.6273C207.503 21.6273 207.093 21.5434 206.727 21.3756C206.36 21.2047 206.069 20.9576 205.855 20.6345C205.644 20.3113 205.538 19.9152 205.538 19.446C205.538 19.042 205.616 18.7096 205.771 18.4485C205.926 18.1875 206.136 17.9809 206.4 17.8286C206.664 17.6764 206.96 17.5614 207.286 17.4837C207.612 17.4061 207.945 17.347 208.283 17.3066C208.712 17.2569 209.06 17.2165 209.327 17.1854C209.595 17.1513 209.789 17.0969 209.91 17.0223C210.031 16.9477 210.092 16.8266 210.092 16.6588V16.6261C210.092 16.2191 209.977 15.9037 209.747 15.68C209.52 15.4563 209.181 15.3444 208.731 15.3444C208.262 15.3444 207.892 15.4485 207.621 15.6567C207.354 15.8618 207.169 16.0901 207.067 16.3418L205.757 16.0435C205.912 15.6085 206.139 15.2574 206.438 14.9902C206.739 14.7198 207.085 14.5241 207.477 14.4029C207.868 14.2786 208.28 14.2165 208.712 14.2165C208.998 14.2165 209.301 14.2507 209.621 14.319C209.944 14.3843 210.246 14.5054 210.525 14.6826C210.808 14.8597 211.039 15.1129 211.22 15.4423C211.4 15.7685 211.49 16.1927 211.49 16.7147V21.4688H210.129V20.49H210.073C209.983 20.6702 209.848 20.8473 209.668 21.0213C209.487 21.1953 209.256 21.3398 208.973 21.4548C208.69 21.5698 208.352 21.6273 207.957 21.6273ZM208.26 20.5086C208.645 20.5086 208.975 20.4325 209.248 20.2803C209.525 20.128 209.734 19.9291 209.877 19.6837C210.023 19.4351 210.096 19.1694 210.096 18.8867V17.9638C210.047 18.0135 209.95 18.0601 209.807 18.1036C209.668 18.144 209.508 18.1798 209.327 18.2108C209.147 18.2388 208.972 18.2652 208.801 18.2901C208.63 18.3118 208.487 18.3305 208.372 18.346C208.102 18.3802 207.855 18.4377 207.631 18.5185C207.41 18.5992 207.233 18.7158 207.099 18.868C206.969 19.0172 206.904 19.216 206.904 19.4646C206.904 19.8095 207.031 20.0705 207.286 20.2476C207.541 20.4216 207.865 20.5086 208.26 20.5086Z" fill="#083556"/>
<path d="M213.346 21.4688V14.3097H214.693V15.4469H214.768C214.898 15.0616 215.128 14.7587 215.458 14.5381C215.79 14.3144 216.166 14.2025 216.585 14.2025C216.673 14.2025 216.775 14.2056 216.893 14.2118C217.014 14.218 217.109 14.2258 217.177 14.2351V15.5681C217.121 15.5526 217.022 15.5355 216.879 15.5169C216.736 15.4951 216.593 15.4842 216.45 15.4842C216.121 15.4842 215.827 15.5541 215.569 15.694C215.315 15.8307 215.113 16.0218 214.964 16.2673C214.814 16.5096 214.74 16.7862 214.74 17.0969V21.4688H213.346Z" fill="#083556"/>
<path d="M221.129 24.3026C220.56 24.3026 220.071 24.228 219.66 24.0789C219.253 23.9297 218.921 23.7324 218.663 23.4869C218.405 23.2415 218.213 22.9727 218.085 22.6806L219.283 22.1866C219.367 22.3233 219.479 22.4678 219.619 22.62C219.761 22.7754 219.954 22.9074 220.196 23.0162C220.442 23.1249 220.757 23.1793 221.143 23.1793C221.671 23.1793 222.107 23.0504 222.452 22.7925C222.797 22.5377 222.97 22.1306 222.97 21.5713V20.1637H222.881C222.797 20.316 222.676 20.4853 222.518 20.6718C222.362 20.8582 222.148 21.0198 221.874 21.1565C221.601 21.2932 221.245 21.3616 220.807 21.3616C220.242 21.3616 219.732 21.2295 219.278 20.9654C218.828 20.6982 218.47 20.3051 218.206 19.7862C217.945 19.2642 217.815 18.6225 217.815 17.8613C217.815 17.1 217.944 16.4475 218.202 15.9037C218.463 15.3599 218.82 14.9436 219.274 14.6546C219.727 14.3625 220.242 14.2165 220.816 14.2165C221.261 14.2165 221.62 14.291 221.893 14.4402C222.166 14.5862 222.379 14.7571 222.532 14.9529C222.687 15.1486 222.807 15.3211 222.89 15.4702H222.993V14.3097H224.359V21.6273C224.359 22.2425 224.216 22.7474 223.93 23.142C223.644 23.5367 223.257 23.8287 222.769 24.0183C222.285 24.2078 221.738 24.3026 221.129 24.3026ZM221.115 20.2057C221.516 20.2057 221.854 20.1125 222.131 19.926C222.41 19.7365 222.622 19.4662 222.765 19.115C222.911 18.7608 222.984 18.3367 222.984 17.8426C222.984 17.361 222.912 16.9369 222.769 16.5702C222.626 16.2036 222.417 15.9177 222.14 15.7126C221.864 15.5044 221.522 15.4003 221.115 15.4003C220.695 15.4003 220.346 15.5091 220.066 15.7266C219.786 15.941 219.575 16.2331 219.432 16.6028C219.292 16.9726 219.222 17.3859 219.222 17.8426C219.222 18.3118 219.294 18.7235 219.437 19.0778C219.58 19.432 219.791 19.7085 220.071 19.9074C220.353 20.1063 220.701 20.2057 221.115 20.2057Z" fill="#083556"/>
<path d="M229.243 21.6133C228.572 21.6133 227.986 21.4595 227.486 21.1518C226.986 20.8442 226.597 20.4139 226.321 19.8608C226.044 19.3077 225.906 18.6614 225.906 17.9219C225.906 17.1792 226.044 16.5298 226.321 15.9736C226.597 15.4174 226.986 14.9855 227.486 14.6779C227.986 14.3703 228.572 14.2165 229.243 14.2165C229.914 14.2165 230.5 14.3703 231 14.6779C231.501 14.9855 231.889 15.4174 232.166 15.9736C232.442 16.5298 232.58 17.1792 232.58 17.9219C232.58 18.6614 232.442 19.3077 232.166 19.8608C231.889 20.4139 231.501 20.8442 231 21.1518C230.5 21.4595 229.914 21.6133 229.243 21.6133ZM229.248 20.4434C229.683 20.4434 230.043 20.3284 230.329 20.0985C230.615 19.8686 230.826 19.5625 230.963 19.1803C231.103 18.7981 231.173 18.3771 231.173 17.9172C231.173 17.4604 231.103 17.041 230.963 16.6588C230.826 16.2735 230.615 15.9643 230.329 15.7313C230.043 15.4982 229.683 15.3817 229.248 15.3817C228.81 15.3817 228.446 15.4982 228.157 15.7313C227.871 15.9643 227.659 16.2735 227.519 16.6588C227.382 17.041 227.314 17.4604 227.314 17.9172C227.314 18.3771 227.382 18.7981 227.519 19.1803C227.659 19.5625 227.871 19.8686 228.157 20.0985C228.446 20.3284 228.81 20.4434 229.248 20.4434Z" fill="#083556"/>
<path d="M234.248 21.4688V11.9233H235.641V15.4702H235.725C235.806 15.3211 235.923 15.1486 236.075 14.9529C236.227 14.7571 236.438 14.5862 236.709 14.4402C236.979 14.291 237.336 14.2165 237.781 14.2165C238.359 14.2165 238.875 14.3625 239.328 14.6546C239.782 14.9467 240.138 15.3677 240.396 15.9177C240.657 16.4677 240.787 17.1295 240.787 17.9032C240.787 18.6769 240.658 19.3403 240.4 19.8934C240.142 20.4434 239.788 20.8675 239.338 21.1658C238.887 21.461 238.373 21.6086 237.795 21.6086C237.36 21.6086 237.004 21.5356 236.727 21.3895C236.454 21.2435 236.24 21.0726 236.084 20.8769C235.929 20.6811 235.809 20.5071 235.725 20.3548H235.609V21.4688H234.248ZM235.613 17.8892C235.613 18.3926 235.687 18.8338 235.833 19.2129C235.979 19.592 236.19 19.8887 236.466 20.1031C236.743 20.3144 237.082 20.4201 237.482 20.4201C237.899 20.4201 238.247 20.3098 238.527 20.0892C238.806 19.8654 239.017 19.5625 239.16 19.1803C239.306 18.7981 239.379 18.3678 239.379 17.8892C239.379 17.4169 239.308 16.9928 239.165 16.6168C239.025 16.2408 238.814 15.9441 238.531 15.7266C238.252 15.5091 237.902 15.4003 237.482 15.4003C237.079 15.4003 236.737 15.5044 236.457 15.7126C236.181 15.9208 235.971 16.2113 235.828 16.5842C235.685 16.9571 235.613 17.3921 235.613 17.8892Z" fill="#083556"/>
<path d="M245.368 21.6133C244.696 21.6133 244.111 21.4595 243.61 21.1518C243.11 20.8442 242.722 20.4139 242.445 19.8608C242.169 19.3077 242.03 18.6614 242.03 17.9219C242.03 17.1792 242.169 16.5298 242.445 15.9736C242.722 15.4174 243.11 14.9855 243.61 14.6779C244.111 14.3703 244.696 14.2165 245.368 14.2165C246.039 14.2165 246.624 14.3703 247.125 14.6779C247.625 14.9855 248.013 15.4174 248.29 15.9736C248.566 16.5298 248.705 17.1792 248.705 17.9219C248.705 18.6614 248.566 19.3077 248.29 19.8608C248.013 20.4139 247.625 20.8442 247.125 21.1518C246.624 21.4595 246.039 21.6133 245.368 21.6133ZM245.372 20.4434C245.807 20.4434 246.168 20.3284 246.453 20.0985C246.739 19.8686 246.951 19.5625 247.087 19.1803C247.227 18.7981 247.297 18.3771 247.297 17.9172C247.297 17.4604 247.227 17.041 247.087 16.6588C246.951 16.2735 246.739 15.9643 246.453 15.7313C246.168 15.4982 245.807 15.3817 245.372 15.3817C244.934 15.3817 244.57 15.4982 244.282 15.7313C243.996 15.9643 243.783 16.2735 243.643 16.6588C243.506 17.041 243.438 17.4604 243.438 17.9172C243.438 18.3771 243.506 18.7981 243.643 19.1803C243.783 19.5625 243.996 19.8686 244.282 20.0985C244.57 20.3284 244.934 20.4434 245.372 20.4434Z" fill="#083556"/>
<path d="M253.276 21.6133C252.605 21.6133 252.019 21.4595 251.519 21.1518C251.018 20.8442 250.63 20.4139 250.353 19.8608C250.077 19.3077 249.939 18.6614 249.939 17.9219C249.939 17.1792 250.077 16.5298 250.353 15.9736C250.63 15.4174 251.018 14.9855 251.519 14.6779C252.019 14.3703 252.605 14.2165 253.276 14.2165C253.947 14.2165 254.533 14.3703 255.033 14.6779C255.533 14.9855 255.922 15.4174 256.198 15.9736C256.475 16.5298 256.613 17.1792 256.613 17.9219C256.613 18.6614 256.475 19.3077 256.198 19.8608C255.922 20.4139 255.533 20.8442 255.033 21.1518C254.533 21.4595 253.947 21.6133 253.276 21.6133ZM253.281 20.4434C253.716 20.4434 254.076 20.3284 254.362 20.0985C254.648 19.8686 254.859 19.5625 254.996 19.1803C255.136 18.7981 255.205 18.3771 255.205 17.9172C255.205 17.4604 255.136 17.041 254.996 16.6588C254.859 16.2735 254.648 15.9643 254.362 15.7313C254.076 15.4982 253.716 15.3817 253.281 15.3817C252.842 15.3817 252.479 15.4982 252.19 15.7313C251.904 15.9643 251.691 16.2735 251.551 16.6588C251.415 17.041 251.346 17.4604 251.346 17.9172C251.346 18.3771 251.415 18.7981 251.551 19.1803C251.691 19.5625 251.904 19.8686 252.19 20.0985C252.479 20.3284 252.842 20.4434 253.281 20.4434Z" fill="#083556"/>
<path d="M259.45 19.0405L259.441 17.3393H259.683L262.536 14.3097H264.204L260.951 17.7587H260.732L259.45 19.0405ZM258.169 21.4688V11.9233H259.562V21.4688H258.169ZM262.69 21.4688L260.126 18.0664L261.086 17.0922L264.4 21.4688H262.69Z" fill="#083556"/>
<path d="M265.474 21.4688V14.3097H266.868V21.4688H265.474ZM266.178 13.2051C265.936 13.2051 265.728 13.1243 265.554 12.9627C265.383 12.798 265.297 12.6023 265.297 12.3754C265.297 12.1455 265.383 11.9497 265.554 11.7882C265.728 11.6235 265.936 11.5411 266.178 11.5411C266.421 11.5411 266.627 11.6235 266.798 11.7882C266.972 11.9497 267.059 12.1455 267.059 12.3754C267.059 12.6023 266.972 12.798 266.798 12.9627C266.627 13.1243 266.421 13.2051 266.178 13.2051Z" fill="#083556"/>
<path d="M270.137 17.2181V21.4688H268.743V14.3097H270.081V15.4749H270.169C270.334 15.0958 270.592 14.7913 270.943 14.5614C271.297 14.3314 271.743 14.2165 272.281 14.2165C272.768 14.2165 273.196 14.319 273.562 14.5241C273.929 14.7261 274.213 15.0275 274.415 15.4283C274.617 15.8291 274.718 16.3247 274.718 16.9151V21.4688H273.325V17.0829C273.325 16.564 273.189 16.1585 272.919 15.8664C272.649 15.5712 272.277 15.4236 271.805 15.4236C271.482 15.4236 271.195 15.4936 270.943 15.6334C270.694 15.7732 270.497 15.9783 270.351 16.2486C270.208 16.5158 270.137 16.839 270.137 17.2181Z" fill="#083556"/>
<path d="M279.589 24.3026C279.02 24.3026 278.531 24.228 278.121 24.0789C277.714 23.9297 277.381 23.7324 277.123 23.4869C276.865 23.2415 276.673 22.9727 276.545 22.6806L277.743 22.1866C277.827 22.3233 277.939 22.4678 278.079 22.62C278.222 22.7754 278.414 22.9074 278.657 23.0162C278.902 23.1249 279.217 23.1793 279.603 23.1793C280.131 23.1793 280.568 23.0504 280.912 22.7925C281.257 22.5377 281.43 22.1306 281.43 21.5713V20.1637H281.341C281.257 20.316 281.136 20.4853 280.978 20.6718C280.822 20.8582 280.608 21.0198 280.335 21.1565C280.061 21.2932 279.705 21.3616 279.267 21.3616C278.702 21.3616 278.192 21.2295 277.738 20.9654C277.288 20.6982 276.931 20.3051 276.666 19.7862C276.405 19.2642 276.275 18.6225 276.275 17.8613C276.275 17.1 276.404 16.4475 276.662 15.9037C276.923 15.3599 277.28 14.9436 277.734 14.6546C278.187 14.3625 278.702 14.2165 279.276 14.2165C279.721 14.2165 280.08 14.291 280.353 14.4402C280.627 14.5862 280.839 14.7571 280.992 14.9529C281.147 15.1486 281.267 15.3211 281.351 15.4702H281.453V14.3097H282.819V21.6273C282.819 22.2425 282.676 22.7474 282.39 23.142C282.104 23.5367 281.717 23.8287 281.229 24.0183C280.745 24.2078 280.198 24.3026 279.589 24.3026ZM279.575 20.2057C279.976 20.2057 280.314 20.1125 280.591 19.926C280.87 19.7365 281.082 19.4662 281.225 19.115C281.371 18.7608 281.444 18.3367 281.444 17.8426C281.444 17.361 281.372 16.9369 281.229 16.5702C281.086 16.2036 280.877 15.9177 280.6 15.7126C280.324 15.5044 279.982 15.4003 279.575 15.4003C279.155 15.4003 278.806 15.5091 278.526 15.7266C278.246 15.941 278.035 16.2331 277.892 16.6028C277.752 16.9726 277.682 17.3859 277.682 17.8426C277.682 18.3118 277.754 18.7235 277.897 19.0778C278.04 19.432 278.251 19.7085 278.531 19.9074C278.814 20.1063 279.162 20.2057 279.575 20.2057Z" fill="#083556"/>
<path d="M287.992 21.5993C287.352 21.5993 286.78 21.489 286.277 21.2684C285.777 21.0478 285.381 20.7417 285.089 20.3502C284.8 19.9556 284.644 19.4988 284.622 18.9799H286.086C286.105 19.2626 286.199 19.5081 286.37 19.7163C286.544 19.9214 286.771 20.0798 287.051 20.1917C287.33 20.3036 287.641 20.3595 287.983 20.3595C288.359 20.3595 288.691 20.2942 288.98 20.1637C289.272 20.0332 289.501 19.8515 289.666 19.6184C289.83 19.3823 289.913 19.1104 289.913 18.8028C289.913 18.4827 289.83 18.2015 289.666 17.9592C289.504 17.7137 289.266 17.521 288.952 17.3812C288.642 17.2414 288.266 17.1715 287.825 17.1715H287.018V15.9969H287.825C288.179 15.9969 288.489 15.9332 288.757 15.8058C289.027 15.6784 289.238 15.5013 289.391 15.2745C289.543 15.0446 289.619 14.7758 289.619 14.4682C289.619 14.173 289.552 13.9166 289.419 13.6991C289.288 13.4785 289.102 13.3061 288.859 13.1818C288.62 13.0575 288.337 12.9953 288.011 12.9953C287.7 12.9953 287.41 13.0528 287.139 13.1678C286.872 13.2796 286.655 13.4412 286.487 13.6525C286.319 13.8607 286.229 14.1108 286.217 14.4029H284.823C284.838 13.8871 284.991 13.4334 285.28 13.0419C285.572 12.6504 285.957 12.3444 286.436 12.1237C286.914 11.9031 287.445 11.7928 288.03 11.7928C288.642 11.7928 289.17 11.9125 289.614 12.1517C290.062 12.3879 290.407 12.7032 290.649 13.0979C290.894 13.4925 291.016 13.9244 291.013 14.3936C291.016 14.928 290.867 15.3817 290.565 15.7546C290.267 16.1274 289.869 16.3776 289.372 16.505V16.5795C290.006 16.6759 290.497 16.9275 290.845 17.3346C291.196 17.7416 291.37 18.2466 291.367 18.8494C291.37 19.3745 291.224 19.8452 290.929 20.2616C290.637 20.678 290.237 21.0058 289.731 21.2451C289.224 21.4812 288.645 21.5993 287.992 21.5993Z" fill="#083556"/>
<path d="M296.461 21.5993C296.035 21.5931 295.616 21.5154 295.203 21.3662C294.793 21.2171 294.42 20.9685 294.084 20.6205C293.748 20.2725 293.48 19.8049 293.278 19.2176C293.079 18.6303 292.979 17.897 292.979 17.0177C292.979 16.1849 293.062 15.4454 293.226 14.7991C293.394 14.1528 293.635 13.6075 293.949 13.1631C294.263 12.7157 294.642 12.3754 295.086 12.1424C295.53 11.9093 296.029 11.7928 296.582 11.7928C297.151 11.7928 297.656 11.9047 298.097 12.1284C298.538 12.3521 298.896 12.6613 299.169 13.0559C299.446 13.4505 299.621 13.8995 299.696 14.4029H298.274C298.178 14.0052 297.987 13.6805 297.701 13.4288C297.415 13.1771 297.042 13.0513 296.582 13.0513C295.883 13.0513 295.338 13.3558 294.946 13.9648C294.558 14.5738 294.362 15.4205 294.359 16.505H294.429C294.594 16.2346 294.796 16.0047 295.035 15.8152C295.277 15.6225 295.548 15.4749 295.846 15.3724C296.147 15.2667 296.464 15.2139 296.797 15.2139C297.35 15.2139 297.85 15.3491 298.297 15.6194C298.748 15.8866 299.107 16.2564 299.374 16.7287C299.641 17.201 299.775 17.7416 299.775 18.3507C299.775 18.9597 299.637 19.5112 299.36 20.0053C299.087 20.4993 298.701 20.8908 298.204 21.1798C297.707 21.4657 297.126 21.6055 296.461 21.5993ZM296.456 20.3875C296.823 20.3875 297.151 20.2974 297.44 20.1171C297.729 19.9369 297.957 19.6945 298.125 19.39C298.293 19.0855 298.377 18.7453 298.377 18.3693C298.377 18.0027 298.294 17.6686 298.13 17.3672C297.968 17.0658 297.744 16.8266 297.459 16.6494C297.176 16.4723 296.853 16.3838 296.489 16.3838C296.213 16.3838 295.956 16.4366 295.72 16.5422C295.487 16.6479 295.282 16.7939 295.105 16.9804C294.928 17.1668 294.788 17.3812 294.685 17.6236C294.586 17.8628 294.536 18.1161 294.536 18.3833C294.536 18.7406 294.618 19.0715 294.783 19.3761C294.951 19.6806 295.179 19.926 295.468 20.1125C295.76 20.2958 296.09 20.3875 296.456 20.3875Z" fill="#083556"/>
<path d="M304.623 21.5993C304.039 21.5993 303.514 21.4874 303.048 21.2637C302.585 21.0369 302.215 20.7262 301.939 20.3315C301.662 19.9369 301.515 19.4864 301.496 18.9799H302.894C302.928 19.39 303.11 19.7272 303.44 19.9913C303.769 20.2554 304.164 20.3875 304.623 20.3875C304.99 20.3875 305.315 20.3036 305.598 20.1358C305.883 19.9649 306.107 19.7303 306.269 19.432C306.433 19.1337 306.516 18.7934 306.516 18.4113C306.516 18.0228 306.432 17.6764 306.264 17.3719C306.096 17.0674 305.865 16.8281 305.57 16.6541C305.278 16.4801 304.942 16.3915 304.563 16.3884C304.274 16.3884 303.983 16.4382 303.691 16.5376C303.399 16.637 303.163 16.7675 302.983 16.9291L301.664 16.7333L302.2 11.9233H307.448V13.1585H303.398L303.095 15.8291H303.151C303.337 15.6489 303.584 15.4982 303.892 15.377C304.202 15.2558 304.535 15.1953 304.889 15.1953C305.47 15.1953 305.988 15.3335 306.441 15.6101C306.898 15.8866 307.257 16.2641 307.518 16.7427C307.782 17.2181 307.912 17.7649 307.909 18.3833C307.912 19.0016 307.773 19.5532 307.49 20.0379C307.21 20.5226 306.822 20.9048 306.325 21.1845C305.831 21.461 305.264 21.5993 304.623 21.5993Z" fill="#083556"/>
<path d="M310.202 21.5573C309.948 21.5573 309.729 21.4672 309.545 21.287C309.362 21.1037 309.27 20.8831 309.27 20.6252C309.27 20.3704 309.362 20.1529 309.545 19.9726C309.729 19.7893 309.948 19.6977 310.202 19.6977C310.457 19.6977 310.676 19.7893 310.86 19.9726C311.043 20.1529 311.135 20.3704 311.135 20.6252C311.135 20.7961 311.091 20.953 311.004 21.0959C310.92 21.2357 310.808 21.3476 310.669 21.4315C310.529 21.5154 310.373 21.5573 310.202 21.5573Z" fill="#083556"/>
<path d="M316.017 21.6133C315.324 21.6133 314.727 21.4564 314.227 21.1425C313.73 20.8256 313.348 20.389 313.081 19.8328C312.813 19.2766 312.68 18.6396 312.68 17.9219C312.68 17.1948 312.816 16.5531 313.09 15.9969C313.363 15.4376 313.749 15.0011 314.246 14.6872C314.743 14.3734 315.329 14.2165 316.003 14.2165C316.547 14.2165 317.031 14.3175 317.457 14.5194C317.883 14.7183 318.226 14.9979 318.487 15.3584C318.751 15.7188 318.908 16.1399 318.958 16.6215H317.602C317.527 16.2859 317.356 15.9969 317.089 15.7546C316.825 15.5122 316.471 15.391 316.026 15.391C315.638 15.391 315.298 15.4936 315.006 15.6986C314.717 15.9006 314.491 16.1896 314.33 16.5656C314.168 16.9384 314.087 17.3796 314.087 17.8892C314.087 18.4113 314.167 18.8618 314.325 19.2409C314.483 19.62 314.707 19.9136 314.996 20.1218C315.288 20.33 315.632 20.4341 316.026 20.4341C316.29 20.4341 316.53 20.3859 316.744 20.2896C316.962 20.1902 317.143 20.0488 317.289 19.8654C317.439 19.6821 317.543 19.4615 317.602 19.2036H318.958C318.908 19.6666 318.758 20.0798 318.506 20.4434C318.254 20.8069 317.917 21.0928 317.494 21.301C317.075 21.5092 316.582 21.6133 316.017 21.6133Z" fill="#083556"/>
<path d="M323.464 21.6133C322.793 21.6133 322.207 21.4595 321.707 21.1518C321.206 20.8442 320.818 20.4139 320.541 19.8608C320.265 19.3077 320.127 18.6614 320.127 17.9219C320.127 17.1792 320.265 16.5298 320.541 15.9736C320.818 15.4174 321.206 14.9855 321.707 14.6779C322.207 14.3703 322.793 14.2165 323.464 14.2165C324.135 14.2165 324.721 14.3703 325.221 14.6779C325.721 14.9855 326.11 15.4174 326.386 15.9736C326.663 16.5298 326.801 17.1792 326.801 17.9219C326.801 18.6614 326.663 19.3077 326.386 19.8608C326.11 20.4139 325.721 20.8442 325.221 21.1518C324.721 21.4595 324.135 21.6133 323.464 21.6133ZM323.468 20.4434C323.904 20.4434 324.264 20.3284 324.55 20.0985C324.836 19.8686 325.047 19.5625 325.184 19.1803C325.324 18.7981 325.393 18.3771 325.393 17.9172C325.393 17.4604 325.324 17.041 325.184 16.6588C325.047 16.2735 324.836 15.9643 324.55 15.7313C324.264 15.4982 323.904 15.3817 323.468 15.3817C323.03 15.3817 322.667 15.4982 322.378 15.7313C322.092 15.9643 321.879 16.2735 321.739 16.6588C321.603 17.041 321.534 17.4604 321.534 17.9172C321.534 18.3771 321.603 18.7981 321.739 19.1803C321.879 19.5625 322.092 19.8686 322.378 20.0985C322.667 20.3284 323.03 20.4434 323.468 20.4434Z" fill="#083556"/>
<path d="M328.357 21.4688V14.3097H329.694V15.4749H329.783C329.932 15.0803 330.176 14.7727 330.515 14.5521C330.853 14.3283 331.259 14.2165 331.731 14.2165C332.21 14.2165 332.61 14.3283 332.934 14.5521C333.26 14.7758 333.501 15.0834 333.656 15.4749H333.731C333.901 15.0927 334.173 14.7882 334.546 14.5614C334.919 14.3314 335.363 14.2165 335.879 14.2165C336.529 14.2165 337.058 14.42 337.469 14.827C337.882 15.2341 338.088 15.8478 338.088 16.6681V21.4688H336.695V16.7986C336.695 16.3139 336.563 15.9627 336.299 15.7452C336.035 15.5277 335.719 15.419 335.353 15.419C334.899 15.419 334.546 15.5588 334.295 15.8385C334.043 16.115 333.917 16.4708 333.917 16.9058V21.4688H332.528V16.71C332.528 16.3216 332.407 16.0094 332.165 15.7732C331.922 15.5371 331.607 15.419 331.218 15.419C330.954 15.419 330.71 15.4889 330.487 15.6287C330.266 15.7654 330.087 15.9565 329.951 16.202C329.817 16.4475 329.75 16.7318 329.75 17.0549V21.4688H328.357Z" fill="#083556"/>
</svg>
