<svg width="150" height="50" viewBox="0 0 150 50" fill="none" xmlns="http://www.w3.org/2000/svg">
<path fill-rule="evenodd" clip-rule="evenodd" d="M26.5148 13.2522C26.444 13.2604 26.2291 13.2841 26.0373 13.3048C23.9308 13.5319 21.7936 14.721 20.5641 16.3499C19.5887 17.6423 19.1225 19.1101 19.1182 20.9016C19.1126 23.2764 19.8509 25.0843 21.4413 26.5903C22.7076 27.7894 24.2127 28.4389 26.1265 28.6123C26.7124 28.6653 27.9233 28.6351 28.4632 28.554C30.1913 28.2943 31.6224 27.5578 33.1322 26.1512L33.4815 25.8258L32.9432 25.2678C32.6472 24.9609 32.2154 24.5141 31.9837 24.2749L31.5625 23.84L31.278 24.1021C30.4648 24.8514 29.6904 25.3608 28.9779 25.6152C28.4036 25.8202 27.9827 25.8931 27.25 25.9142C26.2699 25.9424 25.6607 25.8371 24.8672 25.5022C23.4005 24.8833 22.4199 23.7103 22.0672 22.1528C21.7535 20.7681 22.0063 19.2572 22.7294 18.1951C23.6546 16.8363 25.0361 16.0606 26.6986 15.9665C28.3056 15.8756 29.7749 16.4377 31.1584 17.6729L31.5741 18.0439L32.252 17.4063C32.6249 17.0555 33.0691 16.6357 33.2392 16.4733L33.5484 16.1781L33.2208 15.8423C31.8678 14.4551 30.037 13.5483 28.0956 13.3038C27.759 13.2614 26.7253 13.2276 26.5148 13.2522ZM69.951 13.2715C67.9625 13.4567 66.3949 14.155 65.0778 15.4424C64.633 15.8772 64.3307 16.2421 63.9737 16.7752C62.0526 19.6438 62.4663 23.7521 64.9327 26.3001C66.1282 27.535 67.6171 28.2795 69.4547 28.561C70.0639 28.6544 71.6234 28.6535 72.1935 28.5594C73.7987 28.2947 75.0109 27.6947 76.062 26.6447C76.4854 26.2218 76.6716 25.994 77.0208 25.4723C77.8654 24.2103 78.3369 22.5781 78.2524 21.2097L78.2301 20.8472H74.4857H70.7414V22.171V23.4948H72.8909C74.9226 23.4948 75.0391 23.4982 75.0167 23.5582C75.0036 23.5931 74.9043 23.7686 74.7959 23.9481C73.9832 25.2941 72.7609 25.9252 70.9675 25.9245C69.7028 25.924 68.7219 25.632 67.7828 24.9764C66.6307 24.172 65.8601 22.9508 65.6693 21.6269C65.6221 21.2992 65.6222 20.4658 65.6696 20.1399C65.8747 18.7293 66.7074 17.4977 67.995 16.7002C69.6865 15.6524 72.1651 15.7229 73.9031 16.868C74.2827 17.1182 74.6458 17.4058 74.9508 17.6979L75.2082 17.9443L76.2008 16.964L77.1934 15.9837L76.7706 15.577C75.5779 14.4296 74.4137 13.8016 72.8612 13.4683C71.8572 13.2527 70.8693 13.1859 69.951 13.2715ZM87.0644 13.2858C85.2244 13.4892 83.5808 14.2853 82.3024 15.5921C81.6997 16.2084 81.2834 16.7963 80.9057 17.5649C80.6461 18.0932 80.5283 18.4017 80.3973 18.8958C79.8462 20.9753 80.1658 23.2562 81.2493 24.9756C81.706 25.7004 82.5153 26.6016 83.1526 27.0951C84.0726 27.8075 85.1603 28.2928 86.3326 28.5139C87.3986 28.715 88.8533 28.6779 89.8768 28.4235C91.5398 28.0102 93.0239 27.0084 94.1369 25.548C94.9096 24.5341 95.4153 23.2491 95.5611 21.929C95.6172 21.4207 95.5828 20.0247 95.5035 19.5959C95.3249 18.6294 95.0257 17.8225 94.5527 17.0318C93.9258 15.9836 92.9225 14.9768 91.8525 14.3221C90.4617 13.4711 88.7464 13.0998 87.0644 13.2858ZM40.5775 13.6287C40.5654 13.648 40.4586 13.9132 40.3401 14.218C40.0851 14.8742 39.7058 15.8449 39.2167 17.0934C39.0213 17.5921 38.6575 18.5224 38.4083 19.1607C38.1591 19.799 37.7534 20.8354 37.5069 21.4637C37.2604 22.0921 36.9796 22.8102 36.8828 23.0595C36.7861 23.3089 36.4223 24.2392 36.0746 25.1268C35.1259 27.5482 34.8601 28.2337 34.8601 28.2591C34.8601 28.2718 35.5193 28.2822 36.3249 28.2822H37.7898L38.3929 26.7773L38.996 25.2725L42.0336 25.2722L45.0712 25.2719L45.348 25.9882C45.5002 26.3822 45.7611 27.0595 45.9276 27.4933L46.2305 28.2822H47.6958C48.5018 28.2822 49.1611 28.2707 49.1611 28.2566C49.1611 28.2426 49.0018 27.8223 48.8071 27.3227C48.133 25.5935 48.0136 25.2869 47.7468 24.6009C47.5994 24.2219 47.0199 22.7368 46.4589 21.3005C45.8979 19.8643 45.3599 18.4852 45.2633 18.2359C45.1667 17.9865 44.8199 17.097 44.4926 16.2592C44.1652 15.4214 43.7976 14.4789 43.6756 14.1647L43.4537 13.5935H42.0267C41.145 13.5935 40.5912 13.607 40.5775 13.6287ZM51.5875 20.9339V28.2822H53.0029H54.4183V25.1791V22.0759L54.5511 22.0872C54.6831 22.0984 54.6857 22.102 55.0491 22.7694C55.2501 23.1384 55.5369 23.6688 55.6864 23.9481C55.836 24.2274 56.4207 25.3127 56.9859 26.36L58.0135 28.264L59.5614 28.2735C60.4128 28.2787 61.1093 28.2739 61.1093 28.2628C61.1093 28.246 60.2227 26.5923 59.7488 25.7253C59.6725 25.5856 59.4824 25.2347 59.3263 24.9455C59.1702 24.6563 58.9802 24.3054 58.904 24.1657C58.8278 24.0261 58.5547 23.5201 58.2971 23.0414C58.0395 22.5627 57.7808 22.085 57.7222 21.9801L57.6156 21.7891L57.7173 21.7471C58.4506 21.4442 58.9517 21.1353 59.3467 20.7425C59.9489 20.1438 60.267 19.4732 60.3935 18.5356C60.4877 17.8369 60.4368 17.1287 60.2457 16.4805C59.8866 15.2622 59.0139 14.329 57.8882 13.9597C57.0246 13.6764 56.4335 13.6253 53.7658 13.6035L51.5875 13.5857V20.9339ZM88.8966 16.0586C90.3068 16.3421 91.5631 17.3195 92.231 18.6529C92.6472 19.4839 92.7842 20.1432 92.7511 21.1555C92.7051 22.5634 92.2548 23.6039 91.2758 24.5647C90.5508 25.2761 89.7282 25.7047 88.7739 25.8679C88.3408 25.942 87.5109 25.9417 87.0617 25.8674C86.0644 25.7022 85.1455 25.2285 84.396 24.4931C83.5903 23.7025 83.1519 22.7796 83.0224 21.6012C82.8195 19.7555 83.4871 18.0468 84.8231 16.9923C85.5743 16.3994 86.3613 16.0871 87.3953 15.9717C87.7011 15.9376 88.5348 15.9858 88.8966 16.0586ZM56.5609 16.4355C57.0301 16.5661 57.3601 16.8263 57.5525 17.2171C57.6634 17.4426 57.67 17.4786 57.6684 17.855C57.6663 18.372 57.583 18.606 57.3053 18.8749C56.9523 19.2167 56.5236 19.3166 55.2731 19.3486L54.4183 19.3704V17.8563V16.3421L55.3834 16.3592C56.1227 16.3723 56.3981 16.3901 56.5609 16.4355ZM42.5733 18.8706C42.8572 19.5887 43.2975 20.7026 43.5518 21.3459C43.8062 21.9893 44.0142 22.5238 44.0142 22.5337C44.0142 22.5437 43.1191 22.5518 42.0251 22.5518C40.4488 22.5518 40.0396 22.5424 40.0536 22.5064C40.0933 22.405 41.1077 19.8504 41.5047 18.8524C42.007 17.5897 42.0297 17.535 42.0453 17.5519C42.0518 17.5591 42.2895 18.1524 42.5733 18.8706ZM20.5533 31.6675C20.0662 31.8462 19.7639 32.1814 19.6755 32.6408C19.5666 33.2064 19.8685 33.6922 20.798 34.4466C21.5948 35.0933 21.7437 35.3256 21.5559 35.6294C21.394 35.8913 20.9124 35.9441 20.6423 35.7296C20.5187 35.6314 20.3494 35.4347 20.2466 35.2697C20.2146 35.2184 20.1598 35.2413 19.8238 35.4464C19.6115 35.576 19.4398 35.7044 19.4422 35.7317C19.4509 35.8299 19.7228 36.1893 19.9353 36.3834C20.2633 36.683 20.4679 36.7511 21.037 36.7498C21.6323 36.7484 21.8348 36.6773 22.1615 36.3551C22.4485 36.0719 22.5523 35.8243 22.5582 35.4089C22.5665 34.8209 22.3816 34.5401 21.4895 33.7858C20.7527 33.1628 20.5958 32.9997 20.5958 32.8568C20.5958 32.6213 20.8715 32.4523 21.1392 32.5234C21.3146 32.57 21.5507 32.734 21.6597 32.885C21.7041 32.9466 21.7601 32.9965 21.784 32.996C21.8079 32.9953 21.9763 32.8584 22.1583 32.6915L22.4892 32.3882L22.2216 32.1323C22.0516 31.9696 21.8646 31.8328 21.7084 31.757C21.4842 31.6481 21.4285 31.6368 21.0752 31.6279C20.8165 31.6214 20.6431 31.6345 20.5533 31.6675ZM71.954 31.6851C71.06 31.9304 70.3676 32.5638 70.1033 33.3779C70.0086 33.6698 69.9681 34.1537 70.0085 34.5113C70.1245 35.5367 70.7487 36.3171 71.716 36.6459C71.9683 36.7316 72.0834 36.7479 72.532 36.7613C73.1558 36.78 73.4556 36.7264 73.89 36.519C74.1549 36.3925 74.6568 36.0357 74.7825 35.8845C74.8296 35.8278 74.8032 35.7905 74.5101 35.5L74.1855 35.1783L73.9432 35.3813C73.8099 35.4929 73.5789 35.6413 73.4298 35.7112C73.1872 35.825 73.1185 35.84 72.7752 35.8551C72.3081 35.8756 72.0153 35.8086 71.7054 35.6102C71.2842 35.3406 71.038 34.9526 70.9665 34.4454C70.8323 33.4934 71.4433 32.6689 72.3904 32.5239C72.9134 32.4439 73.5459 32.6446 73.9799 33.0284L74.1854 33.2102L74.5279 32.8941L74.8703 32.5781L74.6348 32.3668C74.3334 32.0964 73.9268 31.8603 73.5538 31.7391C73.1569 31.6101 72.3291 31.5822 71.954 31.6851ZM92.8676 31.6866C92.4937 31.8344 92.1719 32.1605 92.0639 32.5014C91.9945 32.7203 92.0322 33.1261 92.1441 33.3645C92.2559 33.6026 92.6269 34.002 93.0891 34.3819C93.5179 34.7343 93.8601 35.0618 93.9236 35.1804C94.0009 35.325 93.9897 35.5451 93.8992 35.6586C93.7869 35.7994 93.6376 35.8622 93.4152 35.8622C93.1548 35.8622 92.9326 35.7243 92.7249 35.4338L92.57 35.2172L92.1728 35.4576L91.7756 35.6979L91.874 35.8732C92.0526 36.1914 92.3355 36.4637 92.6437 36.6139L92.9244 36.7508H93.4042C93.8477 36.7508 93.8999 36.7435 94.0941 36.6537C94.6423 36.4002 94.9309 35.9584 94.931 35.3726C94.9311 34.8408 94.7246 34.5204 93.976 33.8913C93.2556 33.2857 93.0243 33.0652 92.9842 32.9451C92.9056 32.7101 93.075 32.5161 93.3625 32.5121C93.5737 32.5092 93.7616 32.6087 93.9675 32.8323L94.1414 33.0213L94.5032 32.7103L94.865 32.3993L94.5924 32.1414C94.4182 31.9766 94.2282 31.839 94.0662 31.7603C93.8326 31.6467 93.7821 31.6363 93.4256 31.628C93.1183 31.6209 93.0032 31.633 92.8676 31.6866ZM29.9338 34.1939V36.6601H31.3124H32.6911V36.2068V35.7534H31.7895H30.888L30.898 35.0915L30.908 34.4296L31.7995 34.4199L32.6911 34.4102V33.9763V33.5424L31.7995 33.5327L30.908 33.5229L30.8977 33.0787L30.8874 32.6344H31.7892H32.6911V32.181V31.7277H31.3124H29.9338V34.1939ZM40.0805 34.1939V36.6601H40.5585H41.0364V35.6084C41.0364 34.766 41.046 34.5566 41.0845 34.5566C41.1337 34.5566 41.1547 34.5925 41.6355 35.4996C41.7888 35.7888 41.9886 36.1642 42.0797 36.3337L42.2451 36.642L42.7621 36.6521C43.0464 36.6576 43.279 36.6518 43.279 36.6392C43.279 36.6189 42.826 35.7623 42.3186 34.8231C42.22 34.6405 42.1393 34.4817 42.1393 34.4701C42.1393 34.4585 42.2235 34.4069 42.3264 34.3554C42.5909 34.2232 42.8195 34.0022 42.9382 33.7638C43.0315 33.5763 43.04 33.5245 43.04 33.1421C43.04 32.7663 43.0303 32.7047 42.9422 32.5192C42.741 32.0958 42.4058 31.8505 41.9157 31.7683C41.7826 31.7459 41.3153 31.7277 40.8771 31.7277H40.0805V34.1939ZM50.2991 32.2253C50.5635 32.9646 51.0622 34.3513 51.1831 34.6835C51.2412 34.8431 51.3789 35.2266 51.4894 35.5358C51.5997 35.845 51.7353 36.2245 51.7906 36.3791L51.8912 36.6601H52.3559H52.8206L53.6004 34.5294C54.6414 31.6848 54.6022 31.7934 54.6022 31.7573C54.6022 31.7398 54.3845 31.7301 54.1184 31.7357L53.6346 31.7458L53.5143 32.0722C53.4481 32.2517 53.1664 33.0229 52.8882 33.7859C52.61 34.5489 52.3732 35.1729 52.3618 35.1727C52.3505 35.1724 52.212 34.8093 52.0541 34.3657C51.8962 33.9221 51.7194 33.4286 51.6613 33.2691C51.6032 33.1095 51.457 32.7015 51.3364 32.3624L51.1171 31.7458L50.6187 31.7357L50.1203 31.7256L50.2991 32.2253ZM61.7711 34.1939V36.6601H62.249H62.7269V34.1939V31.7277H62.249H61.7711V34.1939ZM82.1381 34.1939V36.6601H83.5167H84.8954V36.2068V35.7534H83.9938H83.0923L83.1023 35.0915L83.1123 34.4296L84.0038 34.4199L84.8954 34.4102V33.9756V33.5411H83.9947H83.0939V33.0877V32.6344H83.9947H84.8954V32.181V31.7277H83.5167H82.1381V34.1939ZM41.8669 32.7085C42.1173 32.8281 42.2087 33.1138 42.0813 33.3787C41.9977 33.5524 41.8289 33.6173 41.3999 33.6407L41.0364 33.6604V33.1474V32.6344H41.374C41.639 32.6344 41.7451 32.6503 41.8669 32.7085Z" fill="#083556"/>
<path d="M0 27.9412V20.5883V13.2354H3.75509H7.51017V13.9616V14.6878H4.5135H1.51683V16.9935V19.2993H4.5135H7.51017V20.0255V20.7517H4.5135H1.51683V24.3465V27.9412H0.758417H0Z" fill="#0974B4"/>
<path d="M10.1369 27.9412V20.5883V13.2354H13.892H17.6471V13.9616V14.6878H14.6504H11.6537V16.9935V19.2993H14.6504H17.6471V20.0255V20.7517H14.6504H11.6537V24.3465V27.9412H10.8953H10.1369Z" fill="#0974B4"/>
<path fill-rule="evenodd" clip-rule="evenodd" d="M126.525 0.0193688C125.782 0.103817 125.103 0.3042 124.574 0.59495C124.38 0.701357 122.664 1.6738 120.759 2.75592C118.855 3.83808 117.143 4.81007 116.956 4.91592C116.61 5.11131 111.276 8.13891 110.617 8.51381C110.42 8.62628 109.526 9.13394 108.631 9.6419C106.734 10.7185 106.654 10.7693 106.234 11.1655C105.503 11.8552 104.832 12.9588 104.581 13.885C104.404 14.5402 104.411 14.0447 104.411 24.9947C104.411 34.1289 104.418 35.3226 104.47 35.6158C104.7 36.9105 105.551 38.324 106.59 39.1398C106.717 39.2393 107.185 39.5279 107.631 39.7812C108.077 40.0345 108.612 40.3388 108.82 40.4575C109.028 40.5762 110.365 41.3358 111.79 42.1454C113.216 42.9552 115.566 44.2899 117.013 45.1116C125.385 49.8673 124.967 49.6379 125.554 49.7961C126.209 49.9725 127.142 50.0441 127.855 49.9725C128.347 49.9231 128.931 49.7901 129.339 49.6342C129.618 49.528 129.778 49.4424 130.958 48.7699C131.363 48.5391 132.573 47.8516 136.351 45.7065C136.465 45.6415 137.828 44.8678 139.378 43.9872C140.929 43.1065 143.355 41.7287 144.771 40.9254C146.186 40.1222 147.463 39.3876 147.609 39.293C147.963 39.0631 148.572 38.4563 148.885 38.021C149.375 37.3387 149.791 36.4097 149.941 35.6577C150.019 35.2692 150.019 14.7201 149.941 14.3316C149.725 13.252 149.089 12.0754 148.29 11.2775C147.757 10.7445 148.12 10.9653 142.898 8.00299C141.389 7.14708 139.779 6.23426 139.321 5.97448C138.075 5.26756 133.032 2.40473 131.242 1.38833C129.403 0.343912 129.131 0.223139 128.29 0.0762383C127.904 0.00883602 126.901 -0.0234695 126.525 0.0193688ZM127.874 2.04862C128.51 2.11599 129.037 2.24692 129.52 2.4578C129.624 2.50328 130.825 3.17336 132.188 3.94687C134.746 5.39853 135.134 5.61886 135.745 5.96808C136.057 6.14639 141.649 9.32066 142.216 9.64156C144.715 11.0548 145.727 11.6405 145.944 11.7993C146.987 12.5634 147.841 13.9143 148.144 15.2807C148.212 15.5841 148.215 15.9817 148.215 24.9947C148.215 34.0077 148.212 34.4052 148.144 34.7086C147.952 35.5763 147.564 36.4002 147 37.1379C146.72 37.505 146.105 38.0975 145.799 38.2957C145.677 38.3743 144.715 38.9284 143.661 39.527C142.606 40.1255 140.424 41.3649 138.811 42.2811C137.197 43.1972 134.652 44.6421 133.153 45.4918C131.654 46.3415 130.292 47.1165 130.125 47.214C129.709 47.4579 129.571 47.5227 129.188 47.6557C128.87 47.7657 128.137 47.9317 128.105 47.9006C128.097 47.8924 128.119 47.5211 128.153 47.0753C128.226 46.145 128.272 45.5239 128.325 44.7576C128.346 44.4608 128.381 43.9667 128.403 43.6596C128.424 43.3526 128.476 42.5738 128.517 41.929C128.559 41.2842 128.61 40.5305 128.63 40.2542C128.65 39.9778 128.686 39.4754 128.709 39.1376C128.731 38.7999 128.8 37.8787 128.862 37.0906C129.011 35.1768 129.039 34.6987 129.067 33.6468C129.092 32.6948 129.184 31.0772 129.223 30.9164C129.274 30.7061 129.336 30.6785 129.698 30.7063C129.98 30.7279 130.051 30.721 130.196 30.6579C130.525 30.5149 131.625 29.8599 131.684 29.7727C131.782 29.6256 131.738 29.227 131.593 28.9373C131.441 28.6339 131.144 28.3047 130.94 28.2146C130.802 28.1531 130.767 28.1507 130.644 28.1941C130.567 28.2211 130.436 28.2883 130.353 28.3435C130.1 28.5112 129.451 28.8593 129.343 28.885C129.19 28.9217 129.105 28.7742 129.135 28.5233C129.233 27.7085 129.793 27.0519 131.225 26.0699C131.661 25.7708 132.213 25.4027 132.453 25.2518C134.596 23.9013 137.944 21.5662 139.7 20.198C141.244 18.9947 142.481 17.878 142.812 17.3892C143.127 16.9232 143.274 16.4281 143.222 16.0146C143.198 15.8294 143.182 15.8035 143.01 15.6745C142.49 15.2844 141.751 15.2376 140.684 15.5271C139.786 15.7707 137.709 16.54 136.37 17.1249C134.937 17.7506 134.36 18.0064 133.985 18.1811C133.736 18.2977 133.301 18.5004 133.02 18.6317C132.255 18.9896 130.082 20.0528 129.501 20.3544C128.671 20.7848 127.466 21.3429 127.078 21.4758C126.53 21.664 126.142 21.7306 125.718 21.7096C125.292 21.6885 125.002 21.6069 124.837 21.4613C124.65 21.2971 124.712 21.2206 125.317 20.866C125.599 20.7008 125.844 20.5657 125.86 20.5657C125.876 20.5657 125.947 20.5186 126.017 20.4612C126.127 20.3708 126.147 20.3288 126.162 20.1519C126.194 19.7737 125.844 19.1218 125.483 18.8862C125.21 18.708 125.142 18.726 124.335 19.1891C123.942 19.4146 123.581 19.6355 123.533 19.68C123.484 19.7245 123.409 19.857 123.366 19.9745C123.263 20.2531 123.149 20.3602 122.99 20.3291C122.861 20.3037 121.209 19.5118 120.57 19.1691C120.169 18.954 118.318 18.0348 118.286 18.0348C118.276 18.0348 118.101 17.9576 117.896 17.8632C117.691 17.7688 117.294 17.5864 117.013 17.4579C116.483 17.2159 113.184 15.6594 111.923 15.057C111.527 14.8681 111.068 14.6505 110.901 14.5735C110.735 14.4964 110.343 14.3121 110.031 14.1638C109.144 13.7426 108.449 13.417 107.886 13.1591C107.464 12.9659 107.374 12.911 107.399 12.8637C107.417 12.8318 107.561 12.6603 107.719 12.4826C107.993 12.1749 108.433 11.7955 108.723 11.6162C108.833 11.5483 112.697 9.35159 114.553 8.30155C114.813 8.15439 116.176 7.38129 117.58 6.58356C123.76 3.07484 124.611 2.59339 124.79 2.50548C125.381 2.21435 126.297 2.01825 127.155 1.9992C127.269 1.99663 127.593 2.01888 127.874 2.04862ZM106.665 14.4212C106.684 14.4397 106.871 14.5506 107.079 14.6677C109.697 16.1401 111.761 17.4849 114.439 19.4635C115.612 20.3297 116.496 21.0211 117.183 21.6088C117.88 22.2051 120.139 24.4401 120.34 24.7323C120.69 25.2404 120.742 25.5448 120.541 25.8982C120.42 26.1108 120.294 26.2126 119.468 26.7625C118.413 27.4657 117.269 28.3038 115.951 29.3389C115.768 29.483 115.554 29.5484 115.267 29.5477C115.042 29.5472 114.933 29.4987 113.285 28.661C111.176 27.5889 110.27 27.151 110.12 27.1307C109.843 27.0935 109.664 27.1676 109.302 27.4677C108.804 27.8801 108.71 27.9868 108.71 28.1387C108.71 28.2238 108.748 28.3173 108.822 28.4135C108.883 28.4937 109.614 29.2913 110.447 30.1859C111.28 31.0805 112.002 31.8797 112.052 31.962C112.168 32.1522 112.173 32.3817 112.064 32.5541C112.02 32.6235 111.853 32.7891 111.693 32.9222C111.032 33.4723 110.541 34.0784 110.542 34.3434C110.542 34.3908 110.582 34.4791 110.632 34.5397C110.713 34.6396 110.746 34.6512 110.989 34.6647C111.321 34.6832 111.664 34.6112 112.394 34.3692C112.696 34.2693 112.999 34.1876 113.068 34.1876C113.229 34.1876 113.382 34.2657 113.505 34.4097C113.604 34.5247 113.661 34.6868 114.665 37.7124C115.072 38.9371 115.138 39.1081 115.239 39.1918C115.302 39.2439 115.393 39.2865 115.442 39.2865C115.491 39.2865 115.756 39.2081 116.032 39.1123C116.588 38.9193 116.754 38.8079 116.869 38.5516C116.943 38.3876 116.945 38.3494 117.126 34.1181C117.161 33.2991 117.176 33.1502 117.245 32.9936C117.345 32.7648 117.622 32.508 117.865 32.4194C118.331 32.2495 119.773 31.6517 120.293 31.4125C120.491 31.3217 120.658 31.2473 120.665 31.2473C120.672 31.2473 121.117 31.0361 121.655 30.7779C122.193 30.5197 122.699 30.2852 122.779 30.2568C123.113 30.1393 123.544 30.2486 123.766 30.507C123.958 30.7301 124.156 31.2076 124.429 32.1034C125.172 34.5433 125.475 36.048 125.885 39.3423C125.918 39.6084 125.962 39.9601 125.982 40.1239C126.099 41.0529 126.226 42.4778 126.301 43.6969C126.348 44.4505 126.436 47.1152 126.436 47.7759V47.9314L126.234 47.9081C125.926 47.8725 125.346 47.7187 125.027 47.5879C124.869 47.5233 123.721 46.8919 122.475 46.1849C121.23 45.4779 119.044 44.2369 117.618 43.4272C116.193 42.6175 114.873 41.8684 114.685 41.7624C111.769 40.1124 108.817 38.4309 108.668 38.3345C108.153 38.0001 107.569 37.4023 107.163 36.7929C106.925 36.4358 106.564 35.7049 106.438 35.3266C106.384 35.165 106.306 34.8693 106.265 34.6694C106.191 34.3126 106.19 34.1428 106.19 25.0236C106.19 18.8823 106.203 15.6662 106.228 15.5202C106.281 15.2155 106.333 15.0128 106.443 14.6759C106.532 14.4026 106.582 14.3441 106.665 14.4212Z" fill="#0974B4"/>
</svg>
