<svg width="22" height="22" viewBox="0 0 22 22" fill="none" xmlns="http://www.w3.org/2000/svg">
<rect width="22" height="22" rx="4" fill="white"/>
<path d="M15.7826 6.87403L15.7378 6.658C15.647 6.21447 15.2539 5.89365 14.8033 5.88746L14.6233 5.88727C14.0845 5.89815 13.5804 6.13721 13.2406 6.55025L11.6401 8.4825L5.78232 8.8397C5.29055 8.87065 4.83121 9.1069 4.51136 9.49564L4.29146 9.7629C4.22149 9.84794 4.20214 9.98738 4.23631 10.1004C4.28166 10.2128 4.36934 10.2994 4.48466 10.3267L9.28007 11.338L8.31052 12.5164L6.35049 12.7088C6.14931 12.7215 5.96758 12.8136 5.83882 12.9829L5.6689 13.1895C5.59893 13.2745 5.57839 13.4025 5.61256 13.5155C5.65791 13.6279 5.74442 13.7031 5.84973 13.7425L8.45376 14.5577L9.73377 17.1495C9.79029 17.2612 9.89915 17.3349 10.0121 17.3393C10.1251 17.3438 10.2221 17.3031 10.2909 17.2066L10.4708 16.9879C10.5907 16.8422 10.6501 16.6541 10.6488 16.4238L10.5067 14.3939L11.4886 13.2263L13.2455 17.9306C13.2908 18.043 13.3897 18.1289 13.505 18.1562C13.5397 18.1655 13.5621 18.1641 13.5956 18.162C13.685 18.1564 13.7709 18.1164 13.8309 18.0435L14.0508 17.7763C14.3706 17.3875 14.521 16.8828 14.4678 16.3677L13.8487 10.3708L15.3968 8.47641C15.7678 8.03838 15.9088 7.44204 15.7826 6.87403Z" fill="#3796F6"/>
</svg>
