<svg fill="none" xmlns="http://www.w3.org/2000/svg" viewBox="0 0 18 18"><path d="M12.505 5.496a3.407 3.407 0 0 0-4.814 0 3.4 3.4 0 0 0-.85 3.42l-2.115 2.116a.907.907 0 0 0-.22.67l.135.982c.05.324.35.63.674.675l.981.135a.874.874 0 0 0 .67-.225l.37-.369a.223.223 0 0 0 0-.32l-.873-.873a.34.34 0 0 1 0-.477.34.34 0 0 1 .477 0l.877.878c.085.085.23.085.315 0l.954-.95a3.406 3.406 0 0 0 3.419-.842 3.416 3.416 0 0 0 0-4.82Zm-2.38 3.502a1.125 1.125 0 1 1 .001-2.251 1.125 1.125 0 0 1-.001 2.25Z" fill="#3796F6"/><rect x=".5" y=".5" width="17" height="17" rx="3.5" stroke="#3796F6"/></svg>