<svg fill="none" xmlns="http://www.w3.org/2000/svg" viewBox="0 0 18 18"><path fill-rule="evenodd" clip-rule="evenodd" d="M4 0a4 4 0 0 0-4 4v10a4 4 0 0 0 4 4h10a4 4 0 0 0 4-4V4a4 4 0 0 0-4-4H4Zm9.424 4.63.036.177a1.52 1.52 0 0 1-.315 1.311l-1.267 1.55.507 4.907c.043.421-.08.834-.341 1.152l-.18.219a.269.269 0 0 1-.193.097.202.202 0 0 1-.074-.005.31.31 0 0 1-.212-.184l-1.438-3.85-.803.956.116 1.66a.696.696 0 0 1-.146.462l-.147.18a.253.253 0 0 1-.228.108.275.275 0 0 1-.228-.155l-1.047-2.121-2.13-.667a.327.327 0 0 1-.195-.186.294.294 0 0 1 .047-.266l.139-.17a.56.56 0 0 1 .418-.224l1.604-.157.793-.964-3.923-.828a.297.297 0 0 1-.204-.185.314.314 0 0 1 .046-.276l.18-.219a1.467 1.467 0 0 1 1.04-.536l4.792-.293 1.31-1.58c.278-.338.69-.534 1.13-.543h.148c.369.005.69.268.765.63Z" fill="#3796F6"/></svg>