<svg fill="none" xmlns="http://www.w3.org/2000/svg" viewBox="0 0 18 18"><g clip-path="url(#a)"><path fill-rule="evenodd" clip-rule="evenodd" d="M16.93 4.03c-2.386 1.128-3.579 2.454-3.579 3.977 1.017.112 1.858.512 2.523 1.198.665.686.997 1.48.997 2.383 0 .959-.322 1.767-.968 2.425-.645.658-1.457.987-2.435.987-1.095 0-2.043-.428-2.845-1.283C9.82 12.86 9.42 11.823 9.42 10.6c0-3.666 2.132-6.533 6.395-8.601l1.115 2.03Zm-8.42 0C6.104 5.158 4.902 6.484 4.902 8.007c1.036.112 1.887.512 2.552 1.198.665.686.997 1.48.997 2.383 0 .959-.327 1.767-.983 2.425-.655.658-1.471.987-2.45.987-1.094 0-2.038-.428-2.83-1.283C1.396 12.86 1 11.823 1 10.6 1 6.935 3.122 4.068 7.366 2L8.51 4.03Z" fill="#3796F6"/></g><defs><clipPath id="a"><path fill="#fff" transform="translate(1 2)" d="M0 0h16v13H0z"/></clipPath></defs></svg>