<svg width="50" height="50" viewBox="0 0 50 50" fill="none" xmlns="http://www.w3.org/2000/svg">
<rect width="50" height="50" rx="8" fill="white"/>
<path d="M36.9066 14.9623L36.814 14.5048C36.6263 13.5654 35.8135 12.886 34.8818 12.8728L34.5097 12.8724C33.3956 12.8955 32.3534 13.4018 31.6508 14.2766L28.3418 18.3689L16.2305 19.1254C15.2137 19.191 14.264 19.6913 13.6027 20.5146L13.1481 21.0807C13.0034 21.2608 12.9634 21.5561 13.034 21.7955C13.1278 22.0334 13.3091 22.2169 13.5475 22.2747L23.4622 24.4166L21.4576 26.9122L17.4052 27.3199C16.9892 27.3467 16.6135 27.5417 16.3473 27.9004L15.996 28.3378C15.8513 28.5179 15.8088 28.789 15.8795 29.0284C15.9732 29.2663 16.1521 29.4255 16.3699 29.5091L21.7538 31.2356L24.4003 36.7248C24.5171 36.9612 24.7422 37.1175 24.9758 37.1268C25.2093 37.1362 25.4099 37.05 25.5521 36.8457L25.9241 36.3826C26.1721 36.0739 26.2948 35.6756 26.2922 35.1879L25.9984 30.8887L28.5 27.3724L33.3351 36.3826C33.4288 36.6205 33.6332 36.8025 33.8716 36.8603C33.9434 36.8801 33.9896 36.8771 34.0589 36.8726C34.2438 36.8607 34.4214 36.7761 34.5454 36.6217L35 36.0557C35.6613 35.2324 35.9722 34.1633 35.8623 33.0726L33.3351 21.9999L36.1089 18.356C36.876 17.4283 37.1674 16.1653 36.9066 14.9623Z" fill="#3796F6"/>
</svg>
