<svg width="50" height="50" viewBox="0 0 50 50" fill="none" xmlns="http://www.w3.org/2000/svg">
<rect width="50" height="50" rx="8" fill="white"/>
<path d="M24.3327 11.6667C17.346 11.6667 11.666 17.3467 11.666 24.3334C11.666 31.3201 17.346 37.0001 24.3327 37.0001C31.3193 37.0001 36.9993 31.3201 36.9993 24.3334C36.9993 17.3467 31.3193 11.6667 24.3327 11.6667ZM24.3327 27.3334H20.3327C19.786 27.3334 19.3327 26.8801 19.3327 26.3334C19.3327 25.7867 19.786 25.3334 20.3327 25.3334H24.3327C24.8793 25.3334 25.3327 25.7867 25.3327 26.3334C25.3327 26.8801 24.8793 27.3334 24.3327 27.3334ZM28.3327 23.3334H20.3327C19.786 23.3334 19.3327 22.8801 19.3327 22.3334C19.3327 21.7867 19.786 21.3334 20.3327 21.3334H28.3327C28.8793 21.3334 29.3327 21.7867 29.3327 22.3334C29.3327 22.8801 28.8793 23.3334 28.3327 23.3334Z" fill="#3796F6"/>
<path d="M37.4014 38.3315C37.1614 38.3315 36.9214 38.2382 36.748 38.0649L34.268 35.5849C33.908 35.2249 33.908 34.6382 34.268 34.2649C34.628 33.9049 35.2147 33.9049 35.588 34.2649L38.068 36.7449C38.428 37.1049 38.428 37.6915 38.068 38.0649C37.8814 38.2382 37.6414 38.3315 37.4014 38.3315Z" fill="#3796F6"/>
<rect x="27" y="6" width="12" height="12" rx="3" fill="white"/>
<path d="M31.32 8H34.68C36.1314 8 37 8.86857 37 10.32V13.68C37 15.1314 36.1314 16 34.68 16H31.32C29.8686 16 29 15.1314 29 13.68V10.32C29 8.86857 29.8686 8 31.32 8ZM31.9371 14.08C32.0857 14.2171 32.28 14.2857 32.4629 14.2857C32.6457 14.2857 32.8286 14.2171 32.9771 14.08C34.8668 12.208 33.668 13.357 35.8571 11.1886C36.1429 10.9029 36.1429 10.4343 35.8571 10.1486C35.5714 9.86286 35.1029 9.86286 34.8171 10.1486L32.4743 12.4L31.2629 11.1886C30.9771 10.9029 30.5086 10.9029 30.2229 11.1886C29.9371 11.4743 29.9371 11.9429 30.2229 12.2286C31.2097 13.2154 31.2999 13.4428 31.9371 14.08Z" fill="#3796F6"/>
</svg>
