<svg width="50" height="50" viewBox="0 0 50 50" fill="none" xmlns="http://www.w3.org/2000/svg">
<rect y="0.5" width="50" height="49" rx="8" fill="white"/>
<path d="M29.8889 12.5H20.1111C15.8333 12.5 14 15 14 18.75V31.25C14 35 15.8333 37.5 20.1111 37.5H29.8889C34.1667 37.5 36 35 36 31.25V18.75C36 15 34.1667 12.5 29.8889 12.5ZM20.1111 25.3125H25C25.5011 25.3125 25.9167 25.7375 25.9167 26.25C25.9167 26.7625 25.5011 27.1875 25 27.1875H20.1111C19.61 27.1875 19.1944 26.7625 19.1944 26.25C19.1944 25.7375 19.61 25.3125 20.1111 25.3125ZM29.8889 32.1875H20.1111C19.61 32.1875 19.1944 31.7625 19.1944 31.25C19.1944 30.7375 19.61 30.3125 20.1111 30.3125H29.8889C30.39 30.3125 30.8056 30.7375 30.8056 31.25C30.8056 31.7625 30.39 32.1875 29.8889 32.1875ZM32.9444 21.5625H30.5C28.6422 21.5625 27.1389 20.025 27.1389 18.125V15.625C27.1389 15.1125 27.5544 14.6875 28.0556 14.6875C28.5567 14.6875 28.9722 15.1125 28.9722 15.625V18.125C28.9722 18.9875 29.6567 19.6875 30.5 19.6875H32.9444C33.4456 19.6875 33.8611 20.1125 33.8611 20.625C33.8611 21.1375 33.4456 21.5625 32.9444 21.5625Z" fill="#3796F6"/>
</svg>
