<svg width="50" height="50" viewBox="0 0 50 50" fill="none" xmlns="http://www.w3.org/2000/svg">
<rect width="50" height="50" rx="8" fill="white"/>
<path d="M31.5 14H18.5C14.6 14 12 15.9412 12 20.4706V29.5294C12 34.0588 14.6 36 18.5 36H31.5C35.4 36 38 34.0588 38 29.5294V20.4706C38 15.9412 35.4 14 31.5 14ZM32.111 21.8812L28.042 25.1165C27.184 25.8024 26.092 26.1388 25 26.1388C23.908 26.1388 22.803 25.8024 21.958 25.1165L17.889 21.8812C17.473 21.5447 17.408 20.9235 17.733 20.5094C18.071 20.0953 18.682 20.0176 19.098 20.3541L23.167 23.5894C24.155 24.3788 25.832 24.3788 26.82 23.5894L30.889 20.3541C31.305 20.0176 31.929 20.0824 32.254 20.5094C32.592 20.9235 32.527 21.5447 32.111 21.8812Z" fill="#3796F6"/>
</svg>
