<svg width="206" height="50" viewBox="0 0 206 50" fill="none" xmlns="http://www.w3.org/2000/svg">
<path d="M200.7 14.6H201.5C201.6 14.6 201.7 14.6 201.8 14.7C201.9 14.8 201.9 14.9 201.9 15C201.9 15.1 201.7 15.3 201.6 15.4C201.4 15.5 201.3 15.5 201.2 15.5H200.5L200.7 14.6ZM199.4 14.1C199 14.5 198.7 15.1 198.7 15.7C198.7 16.3 199 16.9 199.4 17.3C199.8 17.7 200.4 18 201.1 18C201.7 18 202.3 17.7 202.8 17.3C203.2 16.9 203.5 16.3 203.5 15.7C203.5 15.1 203.2 14.5 202.8 14.1C202.348 13.6513 201.737 13.3995 201.1 13.3995C200.463 13.3995 199.852 13.6513 199.4 14.1ZM199 17.7C198.5 17.2 198.1 16.5 198.1 15.7C198.1 14.9 198.4 14.2 199 13.7C199.5 13.2 200.3 12.9 201.1 12.9C201.9 12.9 202.6 13.2 203.2 13.7C203.7 14.2 204.1 14.9 204.1 15.7C204.1 16.5 203.8 17.2 203.2 17.7C202.7 18.2 201.9 18.5 201.1 18.5C200.3 18.5 199.5 18.2 199 17.7ZM199.8 16.8H200.1L200.4 15.7H200.8C201.1 15.7 201.2 15.7 201.4 16.3L201.6 16.8H202L201.7 16.1C201.6 15.8 201.4 15.7 201.3 15.6C201.8 15.5 202.1 15.3 202.2 14.9C202.3 14.6 202.2 14.4 202 14.3C201.9 14.2 201.7 14.2 201.5 14.2H200.4L199.8 16.8ZM13 13.7L18.6 25.3L13 36.8C14.3 38.2 15.9 39.3 17.7 40.2L25 25.2L17.7 10.2C15.9 11.2 14.3 12.3 13 13.7ZM8.3 25.5C8.3 21 10.1 16.9 13 13.9L10.1 8C5.2 12.2 2 18.5 2 25.5C2 32.5 5.1 38.8 10.1 43L13 37C10.1 34 8.3 29.9 8.3 25.5ZM72.2 21.9C72.7 23.1 70.6 25 67.6 25H62.6C63.5 24.1 64.7 22.8 66 21.9H54.8C54.4 22.4 54.1 22.9 53.8 23.5L50.4 30.4H73.8V30.3C74.8 29.9 76.2 29 77.6 27.9C79.6 26.3 81.2 24.5 81.8 22H72.2V21.9ZM131.6 26.6L127.8 22.4C127.7 22.3 127.5 22.1 127.5 21.9H115.3C115.1 23.3 115.7 24.5 116.8 25.7L120.7 29.8C120.9 30 121 30.2 121 30.4H133.3C133.3 30 133.3 29.5 133.2 29.1C132.9 28.1 132.4 27.4 131.6 26.6ZM162.3 21.9H140.2L136.1 30.4H145.8L146.8 28.4C147.8 29.1 148.7 29.8 149.4 30.4H160.4C159.9 29.2 158.8 28.2 157.5 27L157 26.5C158 26 158.9 25.5 159.7 24.9C160.5 24.1 161.4 23 162.3 21.9ZM184.1 21.9C185.4 22.9 186 24.4 185.7 26.1C185.3 27.9 183.9 29.4 182.1 30.4H193.5C194.3 29.2 194.9 27.9 195.2 26.6C195.6 25 195.5 23.4 195.2 22H184.1V21.9ZM35.3 21.9L31.2 30.4H41L45.1 21.9H35.3ZM176.5 21.9H165.6C164.5 23.3 163.8 24.9 163.4 26.5C163.1 27.8 163.1 29.1 163.3 30.3H174.8C173.4 29.3 172.8 27.8 173.1 26C173.4 24.3 174.8 22.8 176.5 21.9ZM102.8 21.9C103.3 23.1 101.2 25 98.2 25H93.2C94.1 24.1 95.3 22.8 96.6 21.9H85.4C85.1 22.4 84.7 22.8 84.5 23.3L81.1 30.3H108.4L111.9 23.2C112.1 22.7 112.3 22.3 112.4 21.8H102.8V21.9ZM150.4 20.8L153.5 14.5H143.9L140.7 20.8H150.4ZM137.1 20.8L140.1 14.5H131.8C128.5 14.5 123.5 14.4 119.2 17C117.9 17.8 116.8 18.8 116.1 19.9C115.9 20.2 115.8 20.5 115.7 20.8H137.1ZM163 20.8C164.4 18.7 165.6 16.5 166.8 14.5H157.9L155.3 18.9C154.9 19.6 154.2 20.3 153.3 20.8H163ZM82.1 20.8V20.3C82.1 19.2 81.8 18.3 81.2 17.4C80.6 16.5 79.6 15.8 78.5 15.2C76.9 14.4 74.8 14 72.3 14C71.8 14 71.3 14 70.8 14.1C67.8 14.4 64.9 15 63.2 15.7C60.9 16.7 58.8 18 57.1 19.4C56.6 19.8 56.2 20.3 55.7 20.8H82.1ZM52.4 20.8L55.5 14.5H31.4L28.2 20.8H52.4ZM166.5 20.8H194.7C193 16.8 188.3 14 182.2 14C176.1 14 170.1 16.8 166.5 20.8ZM112.6 20.8V20.3C112.6 19.2 112.3 18.3 111.7 17.4C111.1 16.5 110.2 15.8 109 15.2C107.4 14.4 105.3 14 102.8 14C100.5 14 98.2 14.4 96 15C95.1 15.3 94.3 15.6 93.4 15.9C90.6 17.1 88 18.8 86.3 20.7L112.6 20.8ZM110.6 31.4L107.1 38.5H116.2C119.5 38.5 124.5 38.7 128.8 36.1C130.2 35.2 132.2 33.4 132.9 31.4H110.6ZM80.6 31.4L77.1 38.5H86.8L90.3 31.4H80.6ZM63.2 31.4C63.5 31.5 63.8 31.8 64.1 32.1C64.2 32.2 64.2 32.3 64.3 32.4C64.4 32.5 64.4 32.6 64.4 32.7L65.4 38.4H75.2L74 31.3L63.2 31.4ZM150.3 31.4C150.6 31.7 150.7 32 150.7 32.3L147.6 38.6H157.7L159.8 34.4C160.4 33.3 160.6 32.3 160.5 31.5L150.3 31.4ZM49.9 31.4L46.4 38.5H56.2L59.7 31.4H49.9ZM163.5 31.4C164.9 35.8 169.8 38.9 176.3 38.9C182.8 38.9 189.2 35.8 192.7 31.4H163.5ZM135.5 31.4L133.1 36.3L132 38.5H141.6L142.7 36.2L145.1 31.4H135.5ZM98.1 31.4L94.6 38.5H104.3L107.8 31.4H98.1ZM30.7 31.4L27.2 38.5H37L40.5 31.4H30.7Z" fill="#1748A7"/>
</svg>
